<svg id="Capa_1" enable-background="new 0 0 512 512" height="512" viewBox="0 0 512 512" width="512" xmlns="http://www.w3.org/2000/svg"><g><path d="m497 174v164c0 16.57-13.43 30-30 30h-422c-16.57 0-30-13.43-30-30v-164c0-16.57 13.43-30 30-30h422c16.57 0 30 13.43 30 30z" fill="#e9edfd"/><path d="m497 174v164c0 16.57-13.43 30-30 30h-211v-224h211c16.57 0 30 13.43 30 30z" fill="#d8e1fd"/><path d="m467 129h-422c-24.81 0-45 20.19-45 45v164c0 24.81 20.19 45 45 45h422c24.81 0 45-20.19 45-45v-164c0-24.81-20.19-45-45-45zm15 209c0 8.27-6.73 15-15 15h-422c-8.27 0-15-6.73-15-15v-164c0-8.27 6.73-15 15-15h422c8.27 0 15 6.73 15 15z" fill="#d8e1fd"/><path d="m512 174v164c0 24.81-20.19 45-45 45h-211v-30h211c8.27 0 15-6.73 15-15v-164c0-8.27-6.73-15-15-15h-211v-30h211c24.81 0 45 20.19 45 45z" fill="#c2d1f1"/><path d="m440 213h-80c-8.28 0-15 6.72-15 15v56c0 8.28 6.72 15 15 15h80c8.28 0 15-6.72 15-15v-56c0-8.28-6.72-15-15-15z" fill="#c2d1f1"/><path d="m455 116v56c0 8.28-6.72 15-15 15h-80c-8.28 0-15-6.72-15-15v-56c0-8.28 6.72-15 15-15h80c8.28 0 15 6.72 15 15z" fill="#c2d1f1"/><path d="m455 340v56c0 8.28-6.72 15-15 15h-80c-8.28 0-15-6.72-15-15v-56c0-8.28 6.72-15 15-15h80c8.28 0 15 6.72 15 15z" fill="#c2d1f1"/><g fill="#d8e1fd"><path d="m152 213h-80c-8.28 0-15 6.72-15 15v56c0 8.28 6.72 15 15 15h80c8.28 0 15-6.72 15-15v-56c0-8.28-6.72-15-15-15z"/><path d="m152 101h-80c-8.284 0-15 6.716-15 15v56c0 8.284 6.716 15 15 15h80c8.284 0 15-6.716 15-15v-56c0-8.284-6.716-15-15-15z"/><path d="m152 325h-80c-8.284 0-15 6.716-15 15v56c0 8.284 6.716 15 15 15h80c8.284 0 15-6.716 15-15v-56c0-8.284-6.716-15-15-15z"/><path d="m311 340v56c0 8.28-6.72 15-15 15h-80c-8.28 0-15-6.72-15-15v-56c0-8.28 6.72-15 15-15h80c8.28 0 15 6.72 15 15z"/></g><path d="m311 340v56c0 8.28-6.72 15-15 15h-40v-86h40c8.28 0 15 6.72 15 15z" fill="#c2d1f1"/><path d="m296 213h-80c-8.28 0-15 6.72-15 15v56c0 8.28 6.72 15 15 15h80c8.28 0 15-6.72 15-15v-56c0-8.28-6.72-15-15-15z" fill="#d8e1fd"/><path d="m311 228v56c0 8.28-6.72 15-15 15h-40v-86h40c8.28 0 15 6.72 15 15z" fill="#c2d1f1"/><path d="m311 116v56c0 8.28-6.72 15-15 15h-80c-8.28 0-15-6.72-15-15v-56c0-8.28 6.72-15 15-15h80c8.28 0 15 6.72 15 15z" fill="#d8e1fd"/><path d="m311 116v56c0 8.28-6.72 15-15 15h-40v-86h40c8.28 0 15 6.72 15 15z" fill="#c2d1f1"/></g></svg>