<svg id="Capa_1" enable-background="new 0 0 512 512" height="512" viewBox="0 0 512 512" width="512" xmlns="http://www.w3.org/2000/svg"><g><path d="m256 0c-83.26 0-151 67.74-151 151s67.74 151 151 151 151-67.74 151-151-67.74-151-151-151zm0 272c-66.72 0-121-54.28-121-121s54.28-121 121-121 121 54.28 121 121-54.28 121-121 121z" fill="#0d8ebc"/><path d="m407 151c0 83.26-67.74 151-151 151v-30c66.72 0 121-54.28 121-121s-54.28-121-121-121v-30c83.26 0 151 67.74 151 151z" fill="#0a617d"/><path d="m256 0c-65.62 0-119 53.38-119 119s53.38 119 119 119 119-53.38 119-119-53.38-119-119-119zm0 208c-49.07 0-89-39.93-89-89s39.93-89 89-89 89 39.93 89 89-39.93 89-89 89z" fill="#00c6cb"/><path d="m375 119c0 65.62-53.38 119-119 119v-30c49.07 0 89-39.93 89-89s-39.93-89-89-89v-30c65.62 0 119 53.38 119 119z" fill="#0d8ebc"/><path d="m56 512c-8.284 0-15-6.716-15-15v-33c0-8.284 6.716-15 15-15s15 6.716 15 15v33c0 8.284-6.716 15-15 15z" fill="#7affe4"/><path d="m456 512c-8.284 0-15-6.716-15-15v-33c0-8.284 6.716-15 15-15s15 6.716 15 15v33c0 8.284-6.716 15-15 15z" fill="#00c6cb"/><path d="m471 215v89c0 8.28-6.72 15-15 15s-15-6.72-15-15v-89c0-102.01-82.99-185-185-185s-185 82.99-185 185v89c0 8.28-6.72 15-15 15s-15-6.72-15-15v-89c0-118.55 96.45-215 215-215s215 96.45 215 215z" fill="#7affe4"/><path d="m471 215v89c0 8.28-6.72 15-15 15s-15-6.72-15-15v-89c0-102.01-82.99-185-185-185v-30c118.55 0 215 96.45 215 215z" fill="#00c6cb"/><path d="m110.63 307.33c1.868-8.151-3.353-16.366-11.69-18.04-1.453-.293 6.808-.29-82.94-.29-9.506 0-16.556 8.711-14.71 17.94 10.049 50.244 10.366 102.057.08 153.73-2.237 9.764 5.645 19.073 15.82 18.29 12.414 0 31.646.04 78.81.04 9.506 0 16.556-8.711 14.71-17.94-10.006-50.031-10.405-101.866-.08-153.73z" fill="#0a789b"/><path d="m104.28 353c-.8 9.99-1.21 20-1.23 30h-94.1c-.02-10-.43-20.01-1.24-30z" fill="#0a617d"/><path d="m401.29 461.06c-1.849 9.246 5.223 17.94 14.71 17.94 48.167 0 62.76-.04 78.81-.04 10.162.782 18.06-8.515 15.82-18.29-10.142-50.949-10.115-102.752.08-153.73 1.849-9.246-5.223-17.94-14.71-17.94-89.579 0-81.497-.001-82.94.29-8.331 1.673-13.559 9.882-11.69 18.04 9.922 49.839 10.332 101.667-.08 153.73z" fill="#0a617d"/><path d="m407.72 353c.8 9.99 1.21 20 1.23 30h94.1c.02-10 .43-20.01 1.24-30z" fill="#08475e"/></g></svg>