<svg id="Capa_1" enable-background="new 0 0 512 512" height="512" viewBox="0 0 512 512" width="512" xmlns="http://www.w3.org/2000/svg"><g><path d="m40 403c-8.284 0-15-6.716-15-15v-256c0-8.284 6.716-15 15-15s15 6.716 15 15v256c0 8.284-6.716 15-15 15z" fill="#0a789b"/><path d="m472 403c-8.284 0-15-6.716-15-15v-256c0-8.284 6.716-15 15-15s15 6.716 15 15v256c0 8.284-6.716 15-15 15z" fill="#0a617d"/><path d="m112 45c-47.97 0-87 39.03-87 87s39.03 87 87 87 87-39.03 87-87-39.03-87-87-87z" fill="#e9edfd"/><path d="m199 132c0 47.97-39.03 87-87 87v-174c47.97 0 87 39.03 87 87z" fill="#d8e1fd"/><path d="m224 339h-80c-8.284 0-15-6.716-15-15v-18.557c0-18.209 8.155-35.177 22.374-46.552l23.255-18.604c5.479-4.383 13.263-4.383 18.741 0l23.255 18.604c14.22 11.376 22.375 28.343 22.375 46.552v18.557c0 8.284-6.716 15-15 15zm-65-30h50v-3.557c0-9.046-4.051-17.475-11.115-23.126l-13.885-11.108-13.885 11.108c-7.064 5.651-11.115 14.08-11.115 23.126z" fill="#0a617d"/><path d="m199 132v112.78h-30v-112.78c0-8.28 6.72-15 15-15s15 6.72 15 15z" fill="#d8e1fd"/><path d="m112 45c-30.33 0-55 24.67-55 55s24.67 55 55 55 55-24.67 55-55-24.67-55-55-55z" fill="#c2d1f1"/><path d="m167 100c0 30.33-24.67 55-55 55v-110c30.33 0 55 24.67 55 55z" fill="#b1c2e2"/><path d="m112 45c-47.97 0-87 39.03-87 87s39.03 87 87 87 87-39.03 87-87-39.03-87-87-87zm0 144c-31.43 0-57-25.57-57-57s25.57-57 57-57 57 25.57 57 57-25.57 57-57 57z" fill="#d8e1fd"/><path d="m199 132c0 47.97-39.03 87-87 87v-30c31.43 0 57-25.57 57-57s-25.57-57-57-57v-30c47.97 0 87 39.03 87 87z" fill="#c2d1f1"/><path d="m273 324v-18.557c0-18.209 8.155-35.177 22.374-46.552l23.255-18.604c5.479-4.383 13.263-4.383 18.741 0l23.255 18.604c14.22 11.376 22.375 28.343 22.375 46.552v18.557c0 8.284-6.716 15-15 15h-80c-8.284 0-15-6.716-15-15zm80-18.557c0-9.046-4.051-17.475-11.115-23.126l-13.885-11.108-13.885 11.108c-7.064 5.651-11.115 14.08-11.115 23.126v3.557h50z" fill="#08475e"/><path d="m313 132v112.78h30v-112.78c0-8.28-6.72-15-15-15s-15 6.72-15 15z" fill="#c2d1f1"/><path d="m400 45c-47.97 0-87 39.03-87 87s39.03 87 87 87 87-39.03 87-87-39.03-87-87-87z" fill="#e9edfd"/><path d="m487 132c0 47.97-39.03 87-87 87v-174c47.97 0 87 39.03 87 87z" fill="#d8e1fd"/><path d="m400 45c-30.33 0-55 24.67-55 55s24.67 55 55 55 55-24.67 55-55-24.67-55-55-55z" fill="#c2d1f1"/><path d="m455 100c0 30.33-24.67 55-55 55v-110c30.33 0 55 24.67 55 55z" fill="#b1c2e2"/><path d="m400 45c-47.97 0-87 39.03-87 87s39.03 87 87 87 87-39.03 87-87-39.03-87-87-87zm0 144c-31.43 0-57-25.57-57-57s25.57-57 57-57 57 25.57 57 57-25.57 57-57 57z" fill="#d8e1fd"/><path d="m487 132c0 47.97-39.03 87-87 87v-30c31.43 0 57-25.57 57-57s-25.57-57-57-57v-30c47.97 0 87 39.03 87 87z" fill="#c2d1f1"/><path d="m15 388h482v64h-482z" fill="#0a789b"/><path d="m256 388h241v64h-241z" fill="#0a617d"/><path d="m497 373h-482c-8.28 0-15 6.72-15 15v64c0 8.28 6.72 15 15 15h482c8.28 0 15-6.72 15-15v-64c0-8.28-6.72-15-15-15zm-376 64h-91v-34h91zm120 0h-90v-34h90zm120 0h-90v-34h90zm121 0h-91v-34h91z" fill="#0a617d"/><path d="m497 373h-241v94h241c8.28 0 15-6.72 15-15v-64c0-8.28-6.72-15-15-15zm-136 64h-90v-34h90zm121 0h-91v-34h91z" fill="#08475e"/></g></svg>