<svg id="Capa_1" enable-background="new 0 0 512 512" height="512" viewBox="0 0 512 512" width="512" xmlns="http://www.w3.org/2000/svg"><g><path d="m336 200c0 88.37-71.63 160-160 160s-161-71.63-161-160 72.63-160 161-160 160 71.63 160 160z" fill="#ffb454"/><path d="m336 200c0 88.37-71.63 160-160 160v-320c88.37 0 160 71.63 160 160z" fill="#ff8659"/><path d="m416 345h-142.12c46.5-31.49 77.12-84.74 77.12-145 0-96.5-78.5-175-175-175-97.05 0-176 78.5-176 175v81c0 96.5 78.95 175 176 175h240c8.28 0 15-6.72 15-15v-81c0-8.28-6.72-15-15-15zm-386-145c0-79.95 65.5-145 146-145 79.95 0 145 65.05 145 145s-65.05 145-145 145c-80.5 0-146-65.05-146-145z" fill="#ffdd54"/><path d="m431 360v81c0 8.28-6.72 15-15 15h-240v-111c79.95 0 145-65.05 145-145s-65.05-145-145-145v-30c96.5 0 175 78.5 175 175 0 60.26-30.62 113.51-77.12 145h142.12c8.28 0 15 6.72 15 15z" fill="#ffb454"/><path d="m176 89c-61.21 0-111 49.79-111 111s49.79 111 111 111 111-49.79 111-111-49.79-111-111-111zm0 192c-44.66 0-81-36.34-81-81s36.34-81 81-81 81 36.34 81 81-36.34 81-81 81z" fill="#ffdd54"/><path d="m287 200c0 61.21-49.79 111-111 111v-30c44.66 0 81-36.34 81-81s-36.34-81-81-81v-30c61.21 0 111 49.79 111 111z" fill="#ffb454"/><path d="m176 153c-25.92 0-47 21.08-47 47s21.08 47 47 47 47-21.08 47-47-21.08-47-47-47zm0 64c-9.37 0-17-7.63-17-17s7.63-17 17-17 17 7.63 17 17-7.63 17-17 17z" fill="#ffdd54"/><path d="m176 247v-30c9.37 0 17-7.63 17-17s-7.63-17-17-17v-30c25.92 0 47 21.08 47 47s-21.08 47-47 47z" fill="#ffb454"/><path d="m416 345h-80v111h80c8.28 0 15-6.72 15-15v-81c0-8.28-6.72-15-15-15z" fill="#0a789b"/><path d="m467 487h-51c-8.284 0-15-6.716-15-15v-144c0-8.284 6.716-15 15-15h51c24.813 0 45 20.187 45 45v84c0 24.813-20.187 45-45 45zm-36-30h36c8.271 0 15-6.729 15-15v-84c0-8.271-6.729-15-15-15h-36z" fill="#0a617d"/></g></svg>