<svg id="Capa_1" enable-background="new 0 0 512 512" height="512" viewBox="0 0 512 512" width="512" xmlns="http://www.w3.org/2000/svg"><g><path d="m353.692 100.029c-2.33-1.4-5-2.141-7.71-2.141-25.973 0-69.821 12.223-94.15 20.75-6.04 2.09-10.08 7.78-10.08 14.17 0 1.94.38 47.7 33.78 64.4 22.68 11.34 34.32 22.57 34.43 22.68 4.94 4.9 12.57 5.721 18.47 2.03 4.876-3.051-4.993 3.117 50.99-31.87 3.76-2.35 6.29-6.24 6.9-10.63.32-2.249 7.3-55.429-32.63-79.389z" fill="#edbc85"/><path d="m353.692 100.029c-2.33-1.4-5-2.141-7.71-2.141-4.18 0-8.71.3-13.46.83v120.641l46.9-29.311c3.76-2.35 6.29-6.24 6.9-10.63.32-2.249 7.3-55.429-32.63-79.389z" fill="#e9a86c"/><path d="m451.342 454.109c-1.96-89.271-19.88-161.49-34.57-206.36-12.64-38.61-24.99-63.99-29.97-73.57-64.975 33.398-46.663 23.987-81.37 41.82-.485 31.296-3.4 69.904-8.33 104.53-21.904-11.733-48.235-14.989-73.19-7.841-.575 0-9.055-9.595-26.65-18.109-41.625-20.254-92.543-12.787-127.31 21.1-44.615 43.499-44.59 113.238 0 156.69 36.241 35.323 89.777 41.681 131.68 18.91 12.365 6.726 26.696 10.542 40.63 13.18 51.834 8.699 136.348 14.355 184.04-9.12 15.59-7.66 25.42-23.85 25.04-41.23z" fill="#f2d1a3"/><g fill="#edbc85"><path d="m451.342 454.109c-1.96-89.271-19.88-161.49-34.57-206.36-12.64-38.61-24.99-63.99-29.97-73.57l-54.28 27.9v309.91c32.93-.12 68.08-4 93.78-16.65 15.59-7.66 25.42-23.85 25.04-41.23z"/><path d="m297.102 320.529c-9.13-4.891-18.95-8.271-29.05-10.07-.106.519-2.814 29.972-9.05 44.88-3.21 7.64.38 16.43 8.02 19.64s16.43-.38 19.64-8.02c7.647-18.234 10.874-49.475 10.44-46.43z"/><path d="m223.912 312.689c-.433 0-9.667-9.891-26.65-18.109-4.56 3.55-9.5 8-13.95 13.32-5.31 6.359-4.46 15.819 1.9 21.13 6.35 5.31 15.81 4.46 21.12-1.9 5.92-7.081 13.69-12.161 17.58-14.441z"/></g><circle cx="332.5" cy="143" fill="#0a789b" r="128"/><path d="m460.5 143c0 70.69-57.31 128-128 128v-256c70.69 0 128 57.31 128 128z" fill="#0a617d"/><path d="m332.5 0c-78.85 0-143 64.15-143 143s64.15 143 143 143 143-64.15 143-143-64.15-143-143-143zm0 256c-62.31 0-113-50.69-113-113s50.69-113 113-113 113 50.69 113 113-50.69 113-113 113z" fill="#0a617d"/><path d="m332.5 57c-47.97 0-87 39.03-87 87s39.03 87 87 87 87-39.03 87-87-39.03-87-87-87zm0 144c-31.43 0-57-25.57-57-57s25.57-57 57-57 57 25.57 57 57-25.57 57-57 57z" fill="#0a617d"/><path d="m332.5 231v-30c31.43 0 57-25.57 57-57s-25.57-57-57-57v-30c47.97 0 87 39.03 87 87s-39.03 87-87 87z" fill="#08475e"/><path d="m475.5 143c0 78.85-64.15 143-143 143v-30c62.31 0 113-50.69 113-113s-50.69-113-113-113v-30c78.85 0 143 64.15 143 143z" fill="#08475e"/><path d="m333.98 158.93c-12.252 1.245-21.082-12.426-13.95-23.26 4.612-6.832 13.765-8.773 20.8-4.14 11.717 7.91 7.07 25.942-6.85 27.4z" fill="#e9edfd"/><path d="m332.5 159v-30c3.784 0 7.564 1.428 10.61 4.39 9.482 9.763 2.521 25.61-10.61 25.61z" fill="#d8e1fd"/></g></svg>