<svg id="Capa_1" enable-background="new 0 0 512.085 512.085" height="512" viewBox="0 0 512.085 512.085" width="512" xmlns="http://www.w3.org/2000/svg"><g><path d="m425.043 87.043c-45.14-45.14-105.16-70-169-70s-123.86 24.86-169 70-70 105.16-70 169 24.86 123.86 70 169 105.16 70 169 70 123.86-24.86 169-70 70-105.16 70-169c0-63.841-24.86-123.86-70-169zm-169 352c-100.91 0-183-82.09-183-183s82.09-183 183-183 183 82.09 183 183-82.091 183-183 183z" fill="#7affe4"/><path d="m495.043 256.043c0 63.84-24.86 123.86-70 169s-105.16 70-169 70v-56c100.91 0 183-82.09 183-183s-82.09-183-183-183v-56c63.84 0 123.86 24.86 169 70s70 105.159 70 169z" fill="#00c6cb"/><path d="m492.621 221.912c-1.06-7.385-7.387-12.869-14.848-12.869h-61.73c-8.284 0-15 6.716-15 15v64c0 8.284 6.716 15 15 15h61.729c7.461 0 13.787-5.483 14.848-12.868 3.251-22.647 3.252-45.613.001-68.263z" fill="#0a617d"/><path d="m497.108 335.074c-5.191 0-10.25-2.697-13.039-7.503-.651-1.123-15.954-27.992-15.954-71.529s15.303-70.406 15.954-71.529c4.158-7.166 13.338-9.603 20.503-5.445 7.142 4.144 9.586 13.277 5.485 20.432-.298.535-11.942 21.855-11.942 56.542 0 34.958 11.827 56.339 11.947 56.551 4.158 7.165 1.697 16.305-5.468 20.463-2.359 1.369-4.938 2.018-7.486 2.018z" fill="#08475e"/><path d="m19.464 221.912c1.06-7.385 7.387-12.869 14.848-12.869h61.73c8.284 0 15 6.716 15 15v64c0 8.284-6.716 15-15 15h-61.729c-7.461 0-13.787-5.483-14.848-12.868-3.251-22.647-3.252-45.613-.001-68.263z" fill="#0a789b"/><path d="m14.977 335.074c5.191 0 10.25-2.697 13.039-7.503.651-1.123 15.954-27.992 15.954-71.529s-15.303-70.406-15.954-71.529c-4.158-7.166-13.338-9.603-20.503-5.445-7.142 4.144-9.586 13.277-5.485 20.432.298.535 11.942 21.855 11.942 56.542 0 34.958-11.827 56.339-11.947 56.551-4.158 7.165-1.697 16.305 5.468 20.463 2.359 1.369 4.938 2.018 7.486 2.018z" fill="#0a617d"/></g></svg>