<svg id="Capa_1" enable-background="new 0 0 510 510" height="512" viewBox="0 0 510 510" width="512" xmlns="http://www.w3.org/2000/svg"><g><path d="m311.97 100.4-14.49 86.99c-1.23 7.33-7.58 12.53-14.78 12.53-9.37 0-16.329-8.391-14.82-17.47l14.5-86.98c1.53-9.158-5.496-17.47-14.79-17.47h-153.18c-9.288 0-16.322 8.301-14.79 17.47l14.47 86.81c1.36 8.18-4.16 15.9-12.33 17.27-8.18 1.36-15.9-4.16-17.27-12.33l-14.46-86.82c-4.573-27.437 16.588-52.4 44.38-52.4h153.18c27.814 0 48.949 24.987 44.38 52.4z" fill="#0a617d"/><path d="m267.59 78h-76.59v-30h76.59c27.814 0 48.949 24.987 44.38 52.4l-14.49 86.99c-1.321 7.873-8.693 13.658-17.27 12.33-8.17-1.37-13.69-9.09-12.33-17.27l14.5-86.98c1.53-9.158-5.496-17.47-14.79-17.47z" fill="#08475e"/><path d="m326.74 200.91c-35.427-35.868-83.307-56.91-135.74-56.91-105.619 0-191 85.492-191 191 0 38.6 11.46 75.79 33.14 107.56 8.31 12.17 22.16 19.44 37.05 19.44h241.63c14.88 0 28.71-7.26 37.01-19.41 50.045-73.282 44.142-174.623-22.09-241.68z" fill="#0a789b"/><path d="m381.99 337.02c-.39 37.88-11.86 74.38-33.16 105.57-8.3 12.15-22.13 19.41-37.01 19.41h-120.82v-318c105.932 0 192.089 86.936 190.99 193.02z" fill="#0a617d"/><path d="m303 335c0 17.18-3.87 33.45-10.79 48h-202.42c-6.92-14.55-10.79-30.82-10.79-48 0-61.86 50.14-112 112-112s112 50.14 112 112z" fill="#7affe4"/><path d="m303 335c0 17.18-3.87 33.45-10.79 48h-101.21v-160c61.86 0 112 50.14 112 112z" fill="#00c6cb"/><path d="m238 319c0 8.28-6.72 15-15 15h-64c-8.28 0-15-6.72-15-15s6.72-15 15-15h64c8.28 0 15 6.72 15 15z" fill="#00c6cb"/><path d="m223 334h-32v-30h32c8.28 0 15 6.72 15 15s-6.72 15-15 15z" fill="#0d8ebc"/><path d="m191 208c-70.03 0-127 56.97-127 127 0 19.04 4.12 37.36 12.24 54.44 2.49 5.23 7.76 8.56 13.55 8.56h202.42c5.79 0 11.06-3.33 13.55-8.56 8.12-17.08 12.24-35.4 12.24-54.44 0-70.03-56.97-127-127-127zm91.25 160h-182.5c-22.755-62.725 23.826-130 91.25-130 67.534 0 113.97 67.373 91.25 130z" fill="#0a617d"/><path d="m318 335c0 19.04-4.12 37.36-12.24 54.44-2.49 5.23-7.76 8.56-13.55 8.56h-101.21v-30h91.25c22.755-62.725-23.826-130-91.25-130v-30c70.03 0 127 56.97 127 127z" fill="#08475e"/><path d="m464.96 211.36-11.11 77.76c-1.07 7.48-7.49 12.88-14.83 12.88-9.146 0-16.16-8.078-14.87-17.12l11.11-77.76c1.282-9.036-5.685-17.12-14.85-17.12h-74.82c-9.163 0-16.132 8.082-14.85 17.12l11.11 77.76c1.17 8.2-4.53 15.8-12.73 16.97s-15.8-4.53-16.97-12.73l-11.11-77.76c-3.87-27.173 17.253-51.36 44.55-51.36h74.82c27.341 0 48.414 24.227 44.55 51.36z" fill="#ff3d7d"/><path d="m464.96 211.36-11.11 77.76c-1.07 7.48-7.49 12.88-14.83 12.88-9.146 0-16.16-8.078-14.87-17.12l11.11-77.76c1.282-9.036-5.685-17.12-14.85-17.12h-37.41v-30h37.41c27.341 0 48.414 24.227 44.55 51.36z" fill="#cc006f"/><path d="m510 367c0 34.42-13.54 66.64-38.12 90.72-2.81 2.74-6.58 4.28-10.5 4.28h-156.76c-3.92 0-7.69-1.54-10.5-4.28-24.58-24.08-38.12-56.3-38.12-90.72 0-70.03 56.97-127 127-127s127 56.97 127 127z" fill="#f17ab4"/><path d="m510 367c0 34.42-13.54 66.64-38.12 90.72-2.81 2.74-6.58 4.28-10.5 4.28h-78.38v-222c70.03 0 127 56.97 127 127z" fill="#ff3d7d"/><path d="m438 383c0 8.28-6.72 15-15 15h-80c-8.28 0-15-6.72-15-15s6.72-15 15-15h80c8.28 0 15 6.72 15 15z" fill="#ff3d7d"/><path d="m438 383c0 8.28-6.72 15-15 15h-40v-30h40c8.28 0 15 6.72 15 15z" fill="#cc006f"/><path d="m422 319c0 8.28-6.72 15-15 15h-48c-8.28 0-15-6.72-15-15s6.72-15 15-15h48c8.28 0 15 6.72 15 15z" fill="#ff3d7d"/><path d="m407 334h-24v-30h24c8.28 0 15 6.72 15 15s-6.72 15-15 15z" fill="#cc006f"/></g></svg>