<svg id="Capa_1" enable-background="new 0 0 512.088 512.088" height="512" viewBox="0 0 512.088 512.088" width="512" xmlns="http://www.w3.org/2000/svg"><g><path d="m464.049 223.174c-45.13 0-84.62-9.4-115.96-20.82-.05-.02-.09-.03-.14-.05-27.95-10.21-54.16-23.73-77.49-39.75-.1-.08-13.39-9.19-20.32-15.48-.69-.63-.41-.39-7.92-6.02-32.513-24.375-81.17-2.911-81.17 42.03 0 11.41-7.89 21.36-19.19 24.18-4.43 1.1-8.45 1.97-14.3.54-.21-.21-10.47-1.71-16.33-12.84-.15-.26.2.44-8.88-17.74-8.04-16.07-24.19-26.05-42.16-26.05-23.53 0-43.62 17.59-46.71 40.92-3.95 29.74-9.12 68.69-13.22 99.5.1 0 .13.02 14.79 2.58 84.923 18.622 356.949 25.14 497-2.75v-20.25c0-26.471-21.531-48-48-48z" fill="#e9edfd"/><path d="m512.049 271.174v20.25c-77.23 15.38-193.08 20.23-296 18.52v-178.92c9.05.75 18.1 3.98 26.17 10.03 7.51 5.63 7.23 5.39 7.92 6.02 6.93 6.29 20.22 15.4 20.32 15.48 23.33 16.02 49.54 29.54 77.49 39.75.05.02.09.03.14.05 31.34 11.42 70.83 20.82 115.96 20.82 26.469 0 48 21.529 48 48z" fill="#d8e1fd"/><path d="m.049 306.784c-.1 0 0-.39 0 29.39 0 24.81 20.19 45 45 45h107c2.33 0 4.62-.54 6.71-1.58l13.04-6.52c7.67-3.84 16.83-3.84 24.5 0l13.04 6.52c2.09 1.04 4.38 1.58 6.71 1.58 38.41 0 64.16.91 115.32-5.07 42.46-4.95 96.98-14.75 147.7-34.12 15.67-5.99 27.2-19.3 31.31-35.01-67.65-4.528-445.571-4.289-510.33-.19z" fill="#0a789b"/><path d="m510.379 306.973c-4.11 15.71-15.64 29.02-31.31 35.01-50.72 19.37-105.24 29.17-147.7 34.12-51.16 5.98-76.91 5.07-115.32 5.07v-77.49c50.842-.119 243.861-.087 294.33 3.29z" fill="#0a617d"/><path d="m296.529 178.723-19.65 19.65c-2.93 2.93-6.77 4.39-10.61 4.39-13.324 0-20.012-16.192-10.61-25.61 15.771-15.771 14.627-14.729 14.8-14.6 7.02 4.821 15.77 10.411 26.07 16.17z" fill="#c2d1f1"/><path d="m347.949 202.304-23.07 23.07c-2.93 2.93-6.77 4.39-10.61 4.39-13.324 0-20.012-16.192-10.61-25.61 15.396-15.396 14.29-14.385 14.48-14.29 8.86 4.18 18.83 8.43 29.81 12.44z" fill="#c2d1f1"/><path d="m327.669 300.674c0 13.158-15.681 19.776-25.17 11.04-50.486-46.028-109.678-85.736-174.94-103.91 7.884 1.931 17.025-.356 22.8-4.4 5.598-3.828 9.274-9.813 10.38-16.45 60.05 21.801 115.63 59.957 161.92 102.54 3.07 2.749 5.01 6.74 5.01 11.18z" fill="#f17ab4"/><path d="m312.669 315.674c-3.76 0-7.4-1.41-10.17-3.96-27.114-24.72-54.867-46.317-86.45-65.13v-34.51c43.4 23.65 79.89 52.84 106.61 77.42 10.249 9.18 3.71 26.18-9.99 26.18z" fill="#ff3d7d"/><path d="m300.449 309.834c-28.4.56-56.87.57-84.4.11-86.1-1.43-163.15-7.47-201-15.77-3.72-.65-6.5-1.13-8.57-1.5 1.23-9.59-4.24-15.97-4.24-15.97 3.7-27.81 7.9-59.49 11.24-84.61 3.09-23.33 23.18-40.92 46.71-40.92 17.97 0 34.12 9.98 42.16 26.05 9.08 18.18 8.73 17.48 8.88 17.74 5.86 11.13 16.12 12.63 16.33 12.84 64.301 17.906 124.163 57.592 172.89 102.03z" fill="#7affe4"/><path d="m300.449 309.834c-28.4.56-56.87.57-84.4.11v-63.36c33.61 20.02 62.36 43.15 84.4 63.25z" fill="#00c6cb"/><path d="m88.029 303.643c-42.884-3.795-58.576-6.949-81.55-10.97 1.23-9.59-4.24-15.97-4.24-15.97l7.32-55.09 14.83 2.24c39.169 8.131 65.1 44.011 63.64 79.79z" fill="#ffdd54"/><path d="m512.049 294.174c0 4.38-.57 8.67-1.66 12.8l-10.41 1.91c-5.84 1.25-79.69 16.29-243.93 16.29-13.98 0-27.31-.11-40-.31-135.8-2.14-198.12-14.74-203.87-15.96l-12.13-2.12c0-17.02-.57-9.34 2.19-30.08l15.39 2.69c106.999 20.415 360.553 21.645 476.71.03.64-.12-.65.11 17.71-3.24v15.24c-.56.11 0-.201 0 2.75z" fill="#d8e1fd"/><path d="m510.389 306.973-10.41 1.91c-5.84 1.25-79.69 16.29-243.93 16.29-13.98 0-27.31-.11-40-.31v-30.04c102.49 1.77 212.51-3.16 278.29-15.4.64-.12-.65.11 17.71-3.24 0 18.127.447 22.809-1.66 30.79z" fill="#c2d1f1"/></g></svg>