<svg id="Capa_1" enable-background="new 0 0 512.041 512.041" height="512" viewBox="0 0 512.041 512.041" width="512" xmlns="http://www.w3.org/2000/svg"><g><path d="m504.01 322.729c-102.6-53.822-204.516-107.282-305-160-2.15-1.13-4.54-1.72-6.97-1.72h-177c-6.9 0-12.91 4.71-14.56 11.41-1.66 6.7 1.48 13.67 7.59 16.87 4.98 2.612 213.696 112.099 305 160 2.15 1.13 4.54 1.72 6.97 1.72h177c6.9 0 12.91-4.71 14.56-11.41 1.66-6.699-1.48-13.669-7.59-16.87z" fill="#ff8659"/><path d="m511.6 339.6c-1.65 6.7-7.66 11.41-14.56 11.41h-177c-2.43 0-4.82-.59-6.97-1.72l-57.03-29.92v-126.72l247.97 130.08c6.11 3.2 9.25 10.17 7.59 16.87z" fill="#ff6b6b"/><path d="m400 66.654h-385c-8.28 0-15 6.72-15 15v96c0 8.28 6.72 15 15 15h385c8.28 0 15-6.72 15-15v-96c0-8.28-6.72-15-15-15z" fill="#ffdd54"/><path d="m415 81.654v96c0 8.28-6.72 15-15 15h-143.96v-126h143.96c8.28 0 15 6.72 15 15z" fill="#ffb454"/><path d="m303.004 145.654v47h-30v-47c0-8.28 6.72-15 15-15s15 6.72 15 15z" fill="#ff8659"/><path d="m239.004 145.654v47h-30v-47c0-8.28 6.72-15 15-15s15 6.72 15 15z" fill="#ffb454"/><path d="m175.004 145.654v47h-30v-47c0-8.28 6.72-15 15-15s15 6.72 15 15z" fill="#ffb454"/><path d="m111.004 145.654v47h-30v-47c0-8.28 6.72-15 15-15s15 6.72 15 15z" fill="#ffb454"/><path d="m497.004 208.654h-81c-3.979 0-7.794-1.581-10.606-4.394l-64-64c-5.858-5.858-5.858-15.355 0-21.213l64-64c2.812-2.813 6.628-4.394 10.606-4.394h81c8.284 0 15 6.716 15 15v128c0 8.286-6.716 15.001-15 15.001z" fill="#d8e1fd"/><path d="m440.004 144.654c-8.256 0-15-6.754-15-15 0-8.61 7.379-15.765 16.479-14.93 8.262.856 14.281 8.228 13.45 16.41-.809 7.804-7.336 13.52-14.929 13.52z" fill="#0a617d"/><path d="m497.04 319.386h-385c-8.28 0-15 6.72-15 15v96c0 8.28 6.72 15 15 15h385c8.28 0 15-6.72 15-15v-96c0-8.28-6.72-15-15-15z" fill="#ffdd54"/><path d="m512.04 334.386v96c0 8.28-6.72 15-15 15h-241v-126h241c8.28 0 15 6.72 15 15z" fill="#ffb454"/><path d="m209.04 398.386v47h30v-47c0-8.28-6.72-15-15-15s-15 6.72-15 15z" fill="#ffb454"/><g fill="#ff8659"><path d="m273.04 398.386v47h30v-47c0-8.28-6.72-15-15-15s-15 6.72-15 15z"/><path d="m337.04 398.386v47h30v-47c0-8.28-6.72-15-15-15s-15 6.72-15 15z"/><path d="m401.04 398.386v47h30v-47c0-8.28-6.72-15-15-15s-15 6.72-15 15z"/></g><path d="m.04 446.386v-128c0-8.284 6.716-15 15-15h81c3.979 0 7.794 1.581 10.606 4.394l64 64c5.858 5.858 5.858 15.355 0 21.213l-64 64c-2.812 2.813-6.628 4.394-10.606 4.394h-81c-8.284-.001-15-6.717-15-15.001z" fill="#e9edfd"/><path d="m72.04 397.386c8.256 0 15-6.754 15-15 0-8.61-7.379-15.765-16.479-14.93-8.262.856-14.281 8.228-13.45 16.41.809 7.804 7.336 13.52 14.929 13.52z" fill="#0a789b"/></g></svg>