<svg id="Capa_1" enable-background="new 0 0 512.027 512.027" height="512" viewBox="0 0 512.027 512.027" width="512" xmlns="http://www.w3.org/2000/svg"><g><path d="m497.027 75.013v362c0 33.14-26.86 60-60 60h-363c-33.14 0-60-26.86-59-60v-362c-1-33.14 25.86-60 59-60h363c33.14 0 60 26.86 60 60z" fill="#e9edfd"/><g fill="#d8e1fd"><path d="m497.027 75.013v362c0 33.14-26.86 60-60 60h-181.01v-482h181.01c33.14 0 60 26.86 60 60z"/><path d="m437.027.013h-363c-41.713 0-75.109 33.835-74 75.21v361.58c-1.109 41.365 32.278 75.21 74 75.21h363c41.36 0 75-33.65 75-75v-362c0-41.35-33.64-75-75-75zm45 437c0 24.81-20.19 45-45 45h-363c-24.767 0-44.748-19.918-44.01-44.55.019-.289.012-362.714 0-362.9-.738-24.654 19.268-44.55 44.01-44.55h363c24.81 0 45 20.19 45 45z"/><path d="m80.027 95.013c-8.217 0-15-6.714-15-15 0-8.61 7.379-15.765 16.479-14.93 8.297.86 14.277 8.269 13.45 16.41-.812 7.831-7.364 13.52-14.929 13.52z"/></g><path d="m432.027 95.013c-8.229 0-15-6.724-15-15 0-8.908 7.797-15.818 16.479-14.93 8.475.878 14.258 8.456 13.45 16.41-.815 7.864-7.398 13.52-14.929 13.52z" fill="#c2d1f1"/><path d="m512.027 75.013v362c0 41.35-33.64 75-75 75h-181.01v-30h181.01c24.81 0 45-20.19 45-45v-362c0-24.81-20.19-45-45-45h-181.01v-30h181.01c41.36 0 75 33.65 75 75z" fill="#c2d1f1"/><path d="m271.027 208.013v224c0 8.28-6.72 15-15 15-8.278 0-15-6.715-15-15v-224c0-8.28 6.71-14.99 14.99-15 8.338 0 15.01 6.765 15.01 15z" fill="#d8e1fd"/><path d="m256.027 447.013c-.1 0-.01 3.062-.01-254 8.338 0 15.01 6.764 15.01 15v224c0 8.28-6.72 15-15 15z" fill="#c2d1f1"/><path d="m80.027 415.013c-8.284 0-15-6.716-15-15v-160c0-8.284 6.716-15 15-15s15 6.716 15 15v160c0 8.285-6.716 15-15 15z" fill="#c2d1f1"/><path d="m120.027 455.013c-30.327 0-55-24.673-55-55s24.673-55 55-55 55 24.673 55 55-24.673 55-55 55z" fill="#d8e1fd"/><path d="m136.027 311.013c-39.149 0-71-31.851-71-71s31.851-71 71-71 71 31.851 71 71-31.851 71-71 71z" fill="#d8e1fd"/><path d="m432.027 415.013c-8.284 0-15-6.716-15-15v-160c0-8.284 6.716-15 15-15s15 6.716 15 15v160c0 8.285-6.716 15-15 15z" fill="#b1c2e2"/><path d="m392.027 455.013c-30.327 0-55-24.673-55-55s24.673-55 55-55 55 24.673 55 55-24.673 55-55 55z" fill="#c2d1f1"/><path d="m376.027 311.013c-39.149 0-71-31.851-71-71s31.851-71 71-71 71 31.851 71 71-31.851 71-71 71z" fill="#c2d1f1"/><path d="m192.027 80.013h128v64h-128z" fill="#7affe4"/><path d="m256.017 80.013h64.01v64h-64.01z" fill="#00c6cb"/><path d="m320.027 65.013h-128c-8.28 0-15 6.72-15 15v64c0 8.28 6.72 15 15 15h128c8.28 0 15-6.72 15-15v-64c0-8.28-6.72-15-15-15zm-15 64h-98v-34h98z" fill="#d8e1fd"/><path d="m335.027 80.013v64c0 8.28-6.72 15-15 15h-64.01v-30h49.01v-34h-49.01v-30h64.01c8.28 0 15 6.72 15 15z" fill="#c2d1f1"/></g></svg>