<svg id="Capa_1" enable-background="new 0 0 512 512" height="512" viewBox="0 0 512 512" width="512" xmlns="http://www.w3.org/2000/svg"><g><path d="m205.42 337.29c-46.638-93.29-42.832-85.681-48-96-2.54-5.08-7.74-8.29-13.42-8.29h-64c-11.175 0-18.379 11.771-13.42 21.71l5.15 10.29h-56.73c-8.28 0-15 6.72-15 15v64c0 8.28 6.72 15 15 15h177c11.175 0 18.379-11.771 13.42-21.71z" fill="#0a617d"/><path d="m497 265h-56.73l5.15-10.29c4.951-9.924-2.226-21.71-13.42-21.71h-64c-5.68 0-10.88 3.21-13.42 8.29-4.88 9.774-.223.459-48 96-4.951 9.924 2.226 21.71 13.42 21.71h177c8.28 0 15-6.72 15-15v-64c0-8.28-6.72-15-15-15z" fill="#08475e"/><path d="m467 153h-422c-24.81 0-45 20.19-45 45v82h96l-16-32h352l-16 32h96v-82c0-24.81-20.19-45-45-45z" fill="#ffdd54"/><path d="m512 198v82h-96l16-32h-176v-95h211c24.81 0 45 20.19 45 45z" fill="#ffb454"/><path d="m512 265v30h-96c-11.175 0-18.379-11.771-13.42-21.71l5.15-10.29h-303.46l5.15 10.29c4.951 9.924-2.226 21.71-13.42 21.71h-96v-30h71.73l-5.15-10.29c-4.951-9.924 2.226-21.71 13.42-21.71h352c11.175 0 18.379 11.771 13.42 21.71l-5.15 10.29z" fill="#0a789b"/><path d="m512 265v30h-96c-11.175 0-18.379-11.771-13.42-21.71l5.15-10.29h-151.73v-30h176c11.175 0 18.379 11.771 13.42 21.71l-5.15 10.29z" fill="#0a617d"/></g></svg>