<svg id="Capa_1" enable-background="new 0 0 512.002 512.002" height="512" viewBox="0 0 512.002 512.002" width="512" xmlns="http://www.w3.org/2000/svg"><g><path d="m305.341 493.856c-5.185 0-10.226-2.69-13.004-7.502l-16-27.712c-4.142-7.174-1.684-16.348 5.49-20.49 7.174-4.143 16.348-1.684 20.49 5.49l16 27.712c5.8 10.045-1.55 22.502-12.976 22.502z" fill="#ff3d7d"/><path d="m344.678 444.992-27.712-16c-7.174-4.142-9.632-13.316-5.49-20.49s13.316-9.634 20.49-5.49l27.712 16c7.174 4.142 9.632 13.316 5.49 20.49-4.155 7.197-13.338 9.621-20.49 5.49z" fill="#ff3d7d"/><path d="m369.326 383.002h-32c-8.284 0-15-6.716-15-15s6.716-15 15-15h32c8.284 0 15 6.716 15 15s-6.715 15-15 15z" fill="#ff3d7d"/><path d="m311.475 327.502c-4.142-7.174-1.684-16.348 5.49-20.49l27.712-16c7.174-4.143 16.348-1.684 20.49 5.49s1.684 16.348-5.49 20.49l-27.712 16c-7.128 4.116-16.321 1.731-20.49-5.49z" fill="#ff3d7d"/><path d="m289.312 299.866c-11.412 0-18.783-12.444-12.976-22.502l16-27.712c4.142-7.174 13.316-9.634 20.49-5.49 7.174 4.142 9.632 13.316 5.49 20.49l-16 27.712c-2.778 4.812-7.82 7.502-13.004 7.502z" fill="#ff3d7d"/><g fill="#f17ab4"><path d="m193.341 299.866c-5.185 0-10.226-2.69-13.004-7.502l-16-27.712c-4.142-7.174-1.684-16.348 5.49-20.49 7.174-4.143 16.348-1.684 20.49 5.49l16 27.712c5.8 10.045-1.55 22.502-12.976 22.502z"/><path d="m150.688 332.992-27.712-16c-7.174-4.142-9.632-13.316-5.49-20.49 4.142-7.175 13.315-9.634 20.49-5.49l27.712 16c7.174 4.142 9.632 13.316 5.49 20.49-4.155 7.197-13.337 9.621-20.49 5.49z"/><path d="m145.326 383.002h-32c-8.284 0-15-6.716-15-15s6.716-15 15-15h32c8.284 0 15 6.716 15 15s-6.715 15-15 15z"/><path d="m117.485 439.502c-4.142-7.174-1.684-16.348 5.49-20.49l27.712-16c7.174-4.143 16.349-1.684 20.49 5.49 4.142 7.174 1.684 16.348-5.49 20.49l-27.712 16c-7.127 4.116-16.321 1.731-20.49-5.49z"/><path d="m177.312 493.856c-11.412 0-18.783-12.444-12.976-22.502l16-27.712c4.142-7.175 13.315-9.634 20.49-5.49 7.174 4.142 9.632 13.316 5.49 20.49l-16 27.712c-2.778 4.811-7.82 7.502-13.004 7.502z"/><path d="m256.326 464.002v33c0 8.28-6.72 15-15 15s-15-6.72-15-15v-33c0-8.28 6.72-15 15-15s15 6.72 15 15z"/></g><path d="m256.326 464.002v33c0 8.28-6.72 15-15 15v-63c8.28 0 15 6.72 15 15z" fill="#ff3d7d"/><path d="m256.326 240.002v32c0 8.28-6.72 15-15 15s-15-6.72-15-15v-32c0-8.28 6.72-15 15-15s15 6.72 15 15z" fill="#f17ab4"/><path d="m256.326 240.002v32c0 8.28-6.72 15-15 15v-62c8.28 0 15 6.72 15 15z" fill="#ff3d7d"/><circle cx="241.326" cy="368.002" fill="#f17ab4" r="96"/><path d="m337.326 368.002c0 53.02-42.98 96-96 96v-192c53.02 0 96 42.98 96 96z" fill="#ff3d7d"/><path d="m241.326 257.002c-61.21 0-111 49.79-111 111s49.79 111 111 111 111-49.79 111-111-49.79-111-111-111zm0 192c-44.66 0-81-36.34-81-81s36.34-81 81-81 81 36.34 81 81-36.34 81-81 81z" fill="#ff3d7d"/><path d="m352.326 368.002c0 61.21-49.79 111-111 111v-30c44.66 0 81-36.34 81-81s-36.34-81-81-81v-30c61.21 0 111 49.79 111 111z" fill="#cc006f"/><path d="m201.326 383.002c-8.217 0-15-6.712-15-15 0-8.603 7.37-15.765 16.48-14.93 8.513.883 14.265 8.462 13.45 16.41-.814 7.847-7.376 13.52-14.93 13.52z" fill="#ff3d7d"/><path d="m281.326 383.002c-8.217 0-15-6.713-15-15 0-8.599 7.366-15.766 16.48-14.93 7.863.816 14.169 7.597 13.45 16.41-.816 7.863-7.393 13.52-14.93 13.52z" fill="#cc006f"/><circle cx="241.326" cy="408.002" fill="#ff3d7d" r="15"/><path d="m256.256 406.532c.891 8.73-6.032 16.47-14.93 16.47v-30c7.589 0 14.137 5.754 14.93 13.53z" fill="#cc006f"/><circle cx="241.326" cy="328.002" fill="#ff3d7d" r="15"/><path d="m256.256 326.522c.891 8.729-6.024 16.48-14.93 16.48v-30c7.546 0 14.116 5.699 14.93 13.52z" fill="#cc006f"/><path d="m432.026 124.602-1.25-1.56c-10.32-12.91-27.26-18.31-43.16-13.76-17.14 4.92-36.26 3.51-56.81-4.18-37.96-14.2-63.12-36.34-77.53-52.42-9-10.02-11.95-24.05-11.95-37.68 0-8.23-6.63-14.93-14.87-15h-114c-8.105-.143-15.13 6.521-15.13 15v44.04c0 9.91-3.05 19.42-8.81 27.48l-3.18 4.46c-18.72 26.2-19.13 61.7-1.04 88.34.69 1.02 1.51 1.96 2.44 2.78 23.281 20.692 54.486 29.846 85.87 24.32 78.78-13.906 65.621-11.584 77.07-13.6 8-1.41 16.36-.99 24.17 1.22 6.12 1.738 9.54 2.494 28.41 6.85 39.19 9.12 79.32 4.24 116.08-14.1 23.332-11.655 29.954-41.839 13.69-62.19z" fill="#f2d1a3"/><path d="m418.336 186.792c-36.76 18.34-76.89 23.22-116.08 14.1-19.702-4.549-22.558-5.188-28.41-6.85-13.377-3.785-22.776-1.465-32.52.25v-179.29c0 13.63 2.95 27.66 11.95 37.68 14.41 16.08 39.57 38.22 77.53 52.42 20.55 7.69 39.67 9.1 56.81 4.18 15.9-4.55 32.84.85 43.16 13.76l1.25 1.56c16.282 20.374 9.616 50.548-13.69 62.19z" fill="#edbc85"/></g></svg>