<svg id="Capa_1" enable-background="new 0 0 511.994 511.994" height="512" viewBox="0 0 511.994 511.994" width="512" xmlns="http://www.w3.org/2000/svg"><g><path d="m366.607 166.604-52 52c-2.93 2.93-6.77 4.39-10.61 4.39-13.311 0-20.024-16.18-10.61-25.61l52-52c5.86-5.85 15.36-5.85 21.22 0 5.85 5.86 5.85 15.36 0 21.22z" fill="#e9edfd"/><path d="m366.607 166.604-52 52c-5.824 5.825-15.339 5.882-21.22 0l73.22-73.22c5.85 5.86 5.85 15.36 0 21.22z" fill="#d8e1fd"/><path d="m507.607 60.384-56-56c-6.621-6.622-17.706-5.622-23.02 2.18-30.31 44.59-65.83 80.16-108.56 108.72-8.499 5.275-9.555 17.585-1.69 24.19 13.751 13.573-28.818-28.737 55.05 55.13 6.727 6.704 17.862 5.563 23.09-2.29 28.59-42.89 64.23-78.52 108.95-108.91 7.802-5.314 8.801-16.4 2.18-23.02z" fill="#7affe4"/><path d="m505.427 83.404c-44.72 30.39-80.36 66.02-108.95 108.91-5.223 7.846-16.362 8.995-23.09 2.29-11.55-11.55-20.72-20.73-27.99-28.01l134.21-134.21 28 28c6.62 6.62 5.623 17.706-2.18 23.02z" fill="#00c6cb"/><path d="m218.607 314.604-52 52c-2.93 2.93-6.77 4.39-10.61 4.39-13.311 0-20.024-16.18-10.61-25.61l52-52c5.86-5.85 15.36-5.85 21.22 0 5.85 5.86 5.85 15.36 0 21.22z" fill="#d8e1fd"/><path d="m218.607 293.384c5.85 5.86 5.85 15.36 0 21.22l-52 52c-5.824 5.825-15.339 5.882-21.22 0z" fill="#c2d1f1"/><path d="m193.657 372.514c-13.751-13.573 28.818 28.737-55.05-55.13-6.747-6.727-17.881-5.534-23.09 2.29-28.59 42.89-64.23 78.52-108.95 108.91-7.802 5.314-8.801 16.4-2.18 23.02l56 56c6.757 6.734 17.791 5.497 23.02-2.18 30.31-44.59 65.83-80.16 108.56-108.72 8.499-5.275 9.555-17.585 1.69-24.19z" fill="#00c6cb"/><path d="m196.477 375.664c4.753 7.129 2.528 16.672-4.51 21.04-42.73 28.56-78.25 64.13-108.56 108.72-5.261 7.724-16.303 8.873-23.02 2.18l-28-28 134.21-134.21c32.005 32.034 29.06 29.045 29.88 30.27z" fill="#0d8ebc"/><path d="m447.997 447.994c-26.44 26.44-69.42 26.58-96 0l-288-288c-26.51-26.51-26.51-69.49 0-96 26.44-26.44 69.42-26.58 96 0l288 288c26.51 26.51 26.51 69.49 0 96z" fill="#0a617d"/><path d="m447.997 447.994c-26.44 26.44-69.42 26.58-96 0l-288-288c-26.51-26.51-26.51-69.49 0-96z" fill="#0a789b"/><path d="m144.997 186.994c0 8.28-6.72 15-15 15h-24l-30-30h54c8.28 0 15 6.72 15 15z" fill="#0a617d"/><path d="m201.997 105.994v24c0 8.28-6.72 15-15 15s-15-6.72-15-15v-54z" fill="#08475e"/><path d="m218.997 260.994c0 8.28-6.72 15-15 15h-24l-30-30h54c8.28 0 15 6.72 15 15z" fill="#0a617d"/><path d="m275.997 179.994v24c0 8.28-6.72 15-15 15s-15-6.72-15-15v-54z" fill="#08475e"/><path d="m292.997 334.994c0 8.28-6.72 15-15 15h-24l-30-30h54c8.28 0 15 6.72 15 15z" fill="#0a617d"/><path d="m349.997 253.994v24c0 8.28-6.72 15-15 15s-15-6.72-15-15v-54z" fill="#08475e"/><path d="m366.997 408.994c0 8.28-6.72 15-15 15h-24l-30-30h54c8.28 0 15 6.72 15 15z" fill="#0a617d"/><path d="m423.997 327.994v24c0 8.28-6.72 15-15 15s-15-6.72-15-15v-54z" fill="#08475e"/></g></svg>