<svg id="Capa_1" enable-background="new 0 0 512 512" height="512" viewBox="0 0 512 512" width="512" xmlns="http://www.w3.org/2000/svg"><g><path d="m176 96h160v64h-160z" fill="#e9edfd"/><path d="m256 96h80v64h-80z" fill="#d8e1fd"/><path d="m497 151h-33c-8.284 0-15-6.716-15-15s6.716-15 15-15h33c8.284 0 15 6.716 15 15s-6.716 15-15 15z" fill="#d8e1fd"/><path d="m48 151h-33c-8.284 0-15-6.716-15-15s6.716-15 15-15h33c8.284 0 15 6.716 15 15s-6.716 15-15 15z" fill="#e9edfd"/><path d="m432 207c-25.916 0-47-21.084-47-47v-48c0-25.916 21.084-47 47-47s47 21.084 47 47v48c0 25.916-21.084 47-47 47z" fill="#08475e"/><path d="m368 239c-25.916 0-47-21.084-47-47v-112c0-25.916 21.084-47 47-47s47 21.084 47 47v112c0 25.916-21.084 47-47 47z" fill="#0a617d"/><path d="m80 207c-25.916 0-47-21.084-47-47v-48c0-25.916 21.084-47 47-47s47 21.084 47 47v48c0 25.916-21.084 47-47 47z" fill="#0a617d"/><path d="m144 239c-25.916 0-47-21.084-47-47v-112c0-25.916 21.084-47 47-47s47 21.084 47 47v112c0 25.916-21.084 47-47 47z" fill="#0a789b"/><path d="m176 336h160v64h-160z" fill="#e9edfd"/><path d="m256 336h80v64h-80z" fill="#d8e1fd"/><path d="m497 391h-33c-8.284 0-15-6.716-15-15s6.716-15 15-15h33c8.284 0 15 6.716 15 15s-6.716 15-15 15z" fill="#d8e1fd"/><path d="m48 391h-33c-8.284 0-15-6.716-15-15s6.716-15 15-15h33c8.284 0 15 6.716 15 15s-6.716 15-15 15z" fill="#e9edfd"/><path d="m432 447c-25.916 0-47-21.084-47-47v-48c0-25.916 21.084-47 47-47s47 21.084 47 47v48c0 25.916-21.084 47-47 47z" fill="#08475e"/><path d="m368 479c-25.916 0-47-21.084-47-47v-112c0-25.916 21.084-47 47-47s47 21.084 47 47v112c0 25.916-21.084 47-47 47z" fill="#0a617d"/><path d="m80 447c-25.916 0-47-21.084-47-47v-48c0-25.916 21.084-47 47-47s47 21.084 47 47v48c0 25.916-21.084 47-47 47z" fill="#0a617d"/><path d="m144 479c-25.916 0-47-21.084-47-47v-112c0-25.916 21.084-47 47-47s47 21.084 47 47v112c0 25.916-21.084 47-47 47z" fill="#0a789b"/></g></svg>