<svg id="Capa_1" enable-background="new 0 0 512 512" height="512" viewBox="0 0 512 512" width="512" xmlns="http://www.w3.org/2000/svg"><g><path d="m327.54 435h-175.08c-9.059 0-15.324 6.01-14.13 15l6.8 48.97c.99 7.46 7.35 13.03 14.87 13.03h160c7.52 0 13.88-5.57 14.87-13.03l6.54-47c1.193-8.979-4.8-16.97-13.87-16.97z" fill="#0a789b"/><path d="m341.67 450-6.8 48.97c-.99 7.46-7.35 13.03-14.87 13.03h-80v-77h87.54c9.059 0 15.324 6.01 14.13 15z" fill="#0a617d"/><path d="m336 361h-192c-9.059 0-16.064 7.979-14.87 16.97l9.2 72.03h203.34l9.2-72.03c1.193-8.979-5.8-16.97-14.87-16.97z" fill="#0a617d"/><path d="m350.87 377.97-9.2 72.03h-101.67v-89h96c9.059 0 16.064 7.979 14.87 16.97z" fill="#08475e"/><path d="m341.67 63-6.8-49.97c-.99-7.46-7.35-13.03-14.87-13.03h-160c-7.52 0-13.88 5.57-14.87 13.03l-6.8 49.97c-1.193 8.979 5.06 15 14.13 15h175.08c9.059 0 15.324-6.01 14.13-15z" fill="#0a789b"/><path d="m327.54 78h-87.54v-78h80c7.52 0 13.88 5.57 14.87 13.03l6.8 49.97c1.193 8.979-5.06 15-14.13 15z" fill="#0a617d"/><path d="m350.87 134.03-9.2-71.03h-203.34l-9.2 71.03c-1.193 8.979 5.8 16.97 14.87 16.97h192c9.059 0 16.064-7.979 14.87-16.97z" fill="#0a617d"/><path d="m336 151h-96v-88h101.67l9.2 71.03c1.193 8.979-5.8 16.97-14.87 16.97z" fill="#08475e"/><path d="m360 166v180c0 16.57-13.43 30-30 30h-180c-16.57 0-30-13.43-30-30v-180c0-16.57 13.43-30 30-30h180c16.57 0 30 13.43 30 30z" fill="#e9edfd"/><path d="m360 166v180c0 16.57-13.43 30-30 30h-90v-240h90c16.57 0 30 13.43 30 30z" fill="#d8e1fd"/><path d="m392 215h-32c-8.284 0-15-6.716-15-15s6.716-15 15-15h32c8.284 0 15 6.716 15 15s-6.716 15-15 15z" fill="#ff3d7d"/><path d="m392 279h-32c-8.284 0-15-6.716-15-15s6.716-15 15-15h32c8.284 0 15 6.716 15 15s-6.716 15-15 15z" fill="#00c6cb"/><path d="m296.59 254.61s-29.59 29.59-45.98 45.98c-5.824 5.825-15.339 5.882-21.22 0l-45.96-45.96c-12.77-12.78-12.45-33.59.74-45.98 12.68-11.9 32.7-11.1 44.99 1.2l10.84 10.84 11.31-11.32c12.53-12.53 32.8-12.46 45.26 0 12.49 12.49 12.5 32.74.02 45.24z" fill="#f17ab4"/><path d="m250.61 300.59c-2.93 2.93-6.77 4.39-10.61 4.39v-84.29l11.31-11.32c12.53-12.53 32.8-12.46 45.26 0 12.49 12.49 12.5 32.74.02 45.24 0 0-29.59 29.59-45.98 45.98z" fill="#ff3d7d"/><path d="m330 121h-180c-24.81 0-45 20.19-45 45v180c0 24.81 20.19 45 45 45h180c24.81 0 45-20.19 45-45v-180c0-24.81-20.19-45-45-45zm15 225c0 8.27-6.73 15-15 15h-180c-8.27 0-15-6.73-15-15v-180c0-8.27 6.73-15 15-15h180c8.27 0 15 6.73 15 15z" fill="#0a789b"/><path d="m375 166v180c0 24.81-20.19 45-45 45h-90v-30h90c8.27 0 15-6.73 15-15v-180c0-8.27-6.73-15-15-15h-90v-30h90c24.81 0 45 20.19 45 45z" fill="#0a617d"/></g></svg>