<svg id="Capa_1" enable-background="new 0 0 512 512" height="512" viewBox="0 0 512 512" width="512" xmlns="http://www.w3.org/2000/svg"><g><path d="m343.008 45v48.8c0 8.28-6.72 15-15 15s-15-6.72-15-15v-48.8c0-8.27-6.73-15-15-15h-84c-8.27 0-15 6.73-15 15v48.8c0 8.28-6.72 15-15 15s-15-6.72-15-15v-48.8c0-24.81 20.19-45 45-45h84c24.81 0 45 20.19 45 45z" fill="#f17ab4"/><path d="m298.008 30h-42v-30h42c24.81 0 45 20.19 45 45v48.8c0 8.28-6.72 15-15 15s-15-6.72-15-15v-48.8c0-8.27-6.73-15-15-15z" fill="#ff3d7d"/><path d="m478.798 279.31c-1.078-25.651-6.532-50.876-16.16-74.5v-.01c-11.228-27.524-27.846-52.377-48.95-73.48-98.489-98.512-261.86-83.692-341.32 31.07-49.421 71.32-51.85 164.546-9.98 237.44 38.086 66.268 109.76 112.17 193.62 112.17 126.792 0 228.317-105.483 222.79-232.69z" fill="#ff3d7d"/><path d="m479.008 289c0 40.565-10.748 78.424-29.39 110.83v.01c-38.223 66.576-110.094 112.16-193.61 112.16v-446c123.233 0 223 99.659 223 223z" fill="#cc006f"/><path d="m478.918 295.19c-.81 30.29-7.64 59.55-19.91 86.41-59.19 17.62-131.11 26.41-203 26.4-71.97 0-143.9-8.81-203-26.4-12.27-26.86-19.1-56.12-19.91-86.41 62.32 21.88 142.62 32.81 222.91 32.81 80.331 0 160.64-10.95 222.91-32.81z" fill="#f17ab4"/><path d="m478.918 295.19c-.81 30.29-7.64 59.55-19.91 86.41-59.19 17.62-131.11 26.41-203 26.4v-80c80.331 0 160.64-10.95 222.91-32.81z" fill="#ff3d7d"/><path d="m467.818 218.88c-60.71 19.42-136.26 29.12-211.81 29.12-75.56 0-151.12-9.7-211.81-29.11 8.3-25.14 21.08-48.66 37.94-69.57 52.94 12.46 113.4 18.69 173.87 18.69 60.45 0 120.91-6.23 173.87-18.69 16.86 20.9 29.64 44.42 37.94 69.56z" fill="#f17ab4"/><path d="m467.818 218.88c-60.71 19.42-136.26 29.12-211.81 29.12v-79.99c60.45 0 120.91-6.23 173.87-18.69 16.86 20.9 29.64 44.42 37.94 69.56z" fill="#ff3d7d"/><path d="m466.278 363.61c-4.44 12.54-10.01 24.66-16.66 36.22v.01c-56.2 15.04-123.39 23.17-193.56 23.17h-.21c-70.15-.02-137.31-8.15-193.46-23.18-6.64-11.56-12.21-23.68-16.65-36.22 59.49 19.49 134.88 29.23 210.27 29.23s150.78-9.74 210.27-29.23z" fill="#cc006f"/><path d="m256.008 392.84c75.39 0 150.78-9.74 210.27-29.23-4.44 12.54-10.01 24.66-16.66 36.22v.01c-56.2 15.04-123.39 23.17-193.56 23.17h-.05z" fill="#86335c"/><path d="m479.008 289c0 7.52-.37 14.98-1.1 22.37-60.79 20.25-139.46 31.62-221.82 31.63h-.11c-82.37 0-161.06-11.36-221.87-31.64-.73-7.38-1.1-14.84-1.1-22.36 0-3.24.07-6.47.21-9.69 61.51 22.63 142.15 33.94 222.79 33.94s161.28-11.31 222.79-33.94c.14 3.22.21 6.45.21 9.69z" fill="#cc006f"/><path d="m479.008 289c0 7.52-.37 14.98-1.1 22.37-60.79 20.25-139.46 31.62-221.82 31.63h-.08v-29.75c80.64 0 161.28-11.31 222.79-33.94.14 3.22.21 6.45.21 9.69z" fill="#86335c"/><path d="m472.028 233.28c-62.06 19.77-139.04 29.65-216.02 29.65s-153.96-9.88-216.02-29.65c2.48-9.71 5.62-19.22 9.39-28.47 59.34 18.93 132.99 28.4 206.63 28.4 73.65 0 147.3-9.47 206.63-28.4 3.77 9.25 6.91 18.76 9.39 28.47z" fill="#cc006f"/><path d="m472.028 233.28c-62.06 19.77-139.04 29.65-216.02 29.65v-29.72c73.65 0 147.3-9.47 206.63-28.4 3.77 9.25 6.91 18.76 9.39 28.47z" fill="#86335c"/><path d="m439.648 162.39c-54.55 13.5-118 20.62-183.64 20.62h-.03c-65.63 0-129.07-7.13-183.61-20.62 6.28-9.07 13.27-17.73 20.96-25.9 49.7 10.93 106.19 16.39 162.68 16.39s112.98-5.46 162.68-16.39c7.69 8.17 14.68 16.83 20.96 25.9z" fill="#cc006f"/><path d="m439.648 162.39c-54.55 13.5-118 20.62-183.64 20.62v-30.13c56.49 0 112.98-5.46 162.68-16.39 7.69 8.17 14.68 16.83 20.96 25.9z" fill="#86335c"/></g></svg>