<svg id="Capa_1" enable-background="new 0 0 512 512" height="512" viewBox="0 0 512 512" width="512" xmlns="http://www.w3.org/2000/svg"><g><circle cx="384" cy="336" fill="#0a617d" r="32"/><path d="m384 383c-25.916 0-47-21.084-47-47s21.084-47 47-47 47 21.084 47 47-21.084 47-47 47zm0-64c-9.374 0-17 7.626-17 17s7.626 17 17 17 17-7.626 17-17-7.626-17-17-17z" fill="#ffb454"/><circle cx="128" cy="336" fill="#0a789b" r="32"/><path d="m128 383c-25.916 0-47-21.084-47-47s21.084-47 47-47 47 21.084 47 47-21.084 47-47 47zm0-64c-9.374 0-17 7.626-17 17s7.626 17 17 17 17-7.626 17-17-7.626-17-17-17z" fill="#ffdd54"/><circle cx="256" cy="336" fill="#0a789b" r="32"/><path d="m288 336c0 17.67-14.33 32-32 32v-64c17.67 0 32 14.33 32 32z" fill="#0a617d"/><path d="m256 289c-25.92 0-47 21.08-47 47s21.08 47 47 47 47-21.08 47-47-21.08-47-47-47zm0 64c-9.37 0-17-7.63-17-17s7.63-17 17-17 17 7.63 17 17-7.63 17-17 17z" fill="#ffdd54"/><path d="m303 336c0 25.92-21.08 47-47 47v-30c9.37 0 17-7.63 17-17s-7.63-17-17-17v-30c25.92 0 47 21.08 47 47z" fill="#ffb454"/><circle cx="384" cy="208" fill="#0a617d" r="32"/><path d="m384 255c-25.916 0-47-21.084-47-47s21.084-47 47-47 47 21.084 47 47-21.084 47-47 47zm0-64c-9.374 0-17 7.626-17 17s7.626 17 17 17 17-7.626 17-17-7.626-17-17-17z" fill="#ff3d7d"/><circle cx="128" cy="208" fill="#0a789b" r="32"/><path d="m128 255c-25.916 0-47-21.084-47-47s21.084-47 47-47 47 21.084 47 47-21.084 47-47 47zm0-64c-9.374 0-17 7.626-17 17s7.626 17 17 17 17-7.626 17-17-7.626-17-17-17z" fill="#f17ab4"/><circle cx="256" cy="208" fill="#0a789b" r="32"/><path d="m288 208c0 17.67-14.33 32-32 32v-64c17.67 0 32 14.33 32 32z" fill="#0a617d"/><path d="m256 161c-25.92 0-47 21.08-47 47s21.08 47 47 47 47-21.08 47-47-21.08-47-47-47zm0 64c-9.37 0-17-7.63-17-17s7.63-17 17-17 17 7.63 17 17-7.63 17-17 17z" fill="#f17ab4"/><path d="m303 208c0 25.92-21.08 47-47 47v-30c9.37 0 17-7.63 17-17s-7.63-17-17-17v-30c25.92 0 47 21.08 47 47z" fill="#ff3d7d"/><circle cx="384" cy="80" fill="#0a617d" r="32"/><path d="m384 127c-25.916 0-47-21.084-47-47s21.084-47 47-47 47 21.084 47 47-21.084 47-47 47zm0-64c-9.374 0-17 7.626-17 17s7.626 17 17 17 17-7.626 17-17-7.626-17-17-17z" fill="#00c6cb"/><circle cx="128" cy="80" fill="#0a789b" r="32"/><path d="m128 127c-25.916 0-47-21.084-47-47s21.084-47 47-47 47 21.084 47 47-21.084 47-47 47zm0-64c-9.374 0-17 7.626-17 17s7.626 17 17 17 17-7.626 17-17-7.626-17-17-17z" fill="#7affe4"/><circle cx="256" cy="80" fill="#0a789b" r="32"/><path d="m256 112v-64c17.67 0 32 14.33 32 32s-14.33 32-32 32z" fill="#0a617d"/><path d="m256 33c-25.92 0-47 21.08-47 47s21.08 47 47 47 47-21.08 47-47-21.08-47-47-47zm0 64c-9.37 0-17-7.63-17-17s7.63-17 17-17 17 7.63 17 17-7.63 17-17 17z" fill="#7affe4"/><path d="m303 80c0 25.92-21.08 47-47 47v-30c9.37 0 17-7.63 17-17s-7.63-17-17-17v-30c25.92 0 47 21.08 47 47z" fill="#00c6cb"/><path d="m48 479c-8.284 0-15-6.716-15-15v-32c0-8.284 6.716-15 15-15s15 6.716 15 15v32c0 8.284-6.716 15-15 15z" fill="#0a789b"/><path d="m464 479c-8.284 0-15-6.716-15-15v-32c0-8.284 6.716-15 15-15s15 6.716 15 15v32c0 8.284-6.716 15-15 15z" fill="#0a789b"/><path d="m512 112c0 8.28-6.72 15-15 15h-482c-8.28 0-15-6.72-15-15s6.72-15 15-15h482c8.28 0 15 6.72 15 15z" fill="#d8e1fd"/><path d="m497 127h-241v-30h241c8.28 0 15 6.72 15 15s-6.72 15-15 15z" fill="#c2d1f1"/><path d="m512 240c0 8.28-6.72 15-15 15h-482c-8.28 0-15-6.72-15-15s6.72-15 15-15h482c8.28 0 15 6.72 15 15z" fill="#d8e1fd"/><path d="m512 240c0 8.28-6.72 15-15 15h-241v-30h241c8.28 0 15 6.72 15 15z" fill="#c2d1f1"/><path d="m0 353v79c0 8.28 6.72 15 15 15h482c8.28 0 15-6.72 15-15v-79z" fill="#d8e1fd"/><path d="m256 353h256v79c0 8.28-6.72 15-15 15h-241z" fill="#c2d1f1"/><path d="m512 48v335h-512v-334.573c0-8.074 6.201-15.024 14.265-15.41 8.614-.411 15.735 6.459 15.735 14.983v305h452v-304.573c0-8.074 6.201-15.024 14.265-15.41 8.614-.411 15.735 6.459 15.735 14.983z" fill="#e9edfd"/><path d="m512 48v335h-256v-30h226v-304.573c0-8.074 6.201-15.024 14.265-15.41 8.614-.411 15.735 6.459 15.735 14.983z" fill="#d8e1fd"/></g></svg>