<svg id="Capa_1" enable-background="new 0 0 512 512" height="512" viewBox="0 0 512 512" width="512" xmlns="http://www.w3.org/2000/svg"><g><path d="m426.612 106.61-137.38 137.37c-2.93 2.93-6.77 4.39-10.6 4.39-13.294 0-20.052-16.174-10.61-25.6l137.37-137.38c5.86-5.85 15.36-5.85 21.22 0 5.85 5.86 5.85 15.36 0 21.22z" fill="#e9edfd"/><path d="m426.612 106.61-137.38 137.37c-5.823 5.823-15.327 5.883-21.21 0l158.59-158.59c5.85 5.86 5.85 15.36 0 21.22z" fill="#d8e1fd"/><path d="m243.983 289.23-137.37 137.38c-2.93 2.93-6.77 4.39-10.61 4.39-13.311 0-20.024-16.18-10.61-25.61l137.38-137.37c5.85-5.86 15.35-5.86 21.21 0s5.86 15.36 0 21.21z" fill="#e9edfd"/><path d="m243.983 268.02c5.86 5.86 5.86 15.36 0 21.21l-137.37 137.38c-5.811 5.812-15.325 5.895-21.22 0z" fill="#d8e1fd"/><path d="m346.093 48.43c-9.603 7.706-17.576 17.525-23.2 29.44-80.992 171.407-76.481 163.118-79.64 166.08-2.877 2.554 8.887-3.404-165.38 78.94-11.18 5.27-20.82 12.77-28.68 22.28-2.96 3.58-7.25 5.44-11.57 5.44-12.465 0-19.721-14.677-11.55-24.55 10.68-12.94 23.8-23.13 38.99-30.3l156.67-74.03 74.04-156.68c4.74-10.04 10.99-19.37 18.43-27.61 7.462-8.314 12.48-11.744 13.2-12.47 5.634-4.472 13.438-4.181 18.66.03 7.601 6.082 7.46 17.474.03 23.43z" fill="#e9edfd"/><path d="m485.932 185.94v.01c-.07.08-.13.16-.2.23-10.59 12.757-23.652 22.908-38.79 30.06l-156.67 74.03-74.04 156.68c-7.33 15.51-18.24 29.35-31.56 40.02-6.504 5.213-15.935 4.111-21.08-2.32-5.19-6.46-4.15-15.9 2.32-21.08 9.92-7.96 17.73-17.86 23.2-29.44 82.716-175.056 76.334-162.598 79.3-165.74 1.281-1.28 2.585-2.153 4.18-2.95.263 0 161.277-76.206 161.54-76.33 11.192-5.269 20.856-12.818 28.68-22.28 5.213-6.338 14.682-7.313 21.11-2 6.391 5.27 7.29 14.73 2.01 21.11z" fill="#d8e1fd"/><circle cx="256.003" cy="256" fill="#7affe4" r="33.503"/><path d="m279.692 232.31c13.08 13.08 13.08 34.3 0 47.38s-34.3 13.08-47.38 0z" fill="#00c6cb"/><path d="m290.293 221.71c-18.91-18.91-49.67-18.91-68.58 0s-18.91 49.67 0 68.58c18.899 18.919 49.68 18.921 68.58 0 18.912-18.912 18.9-49.679 0-68.58zm-21.21 47.37c-7.21 7.21-18.95 7.21-26.16 0s-7.21-18.95 0-26.16c5.315-5.329 13.253-6.803 20.05-4.06 12.13 4.896 15.512 20.818 6.11 30.22z" fill="#0a789b"/><path d="m304.473 256c0 26.796-21.642 48.48-48.47 48.48-12.42 0-24.84-4.73-34.29-14.19l21.21-21.21c7.21 7.21 18.95 7.21 26.16 0s7.21-18.95 0-26.16l21.21-21.21c9.45 9.45 14.18 21.87 14.18 34.29z" fill="#0a617d"/><path d="m478.702 33.3c-38.015-38.015-96.745-43.973-141.54-15.34-2.833 1.816-9.887 6.604-12 9.22l10.45 10.45c2.44 1.5 5.31 2.37 8.39 2.37h16c8.84 0 16 7.16 16 16v16c0 8.84 7.16 16 16 16h16c8.853 0 16 7.16 16 16v16c0 8.84 7.16 16 16 16h16c8.84 0 16 7.16 16 16v16c0 3.08.87 5.95 2.37 8.39l10.6 10.6c.428-.412.705-.749.96-1.04v-.01c36.595-44.061 35.08-110.331-7.23-152.64z" fill="#0a789b"/><path d="m485.932 185.94v.01c-.275.314-.528.624-.96 1.04l-10.6-10.6c-1.5-2.44-2.37-5.31-2.37-8.39v-16c0-8.84-7.16-16-16-16h-16c-8.84 0-16-7.16-16-16v-16c0-4.42-1.79-8.42-4.68-11.32l59.38-59.38c42.313 42.312 43.822 108.584 7.23 152.64z" fill="#0a617d"/><path d="m494.033 174.84c-5.345 8.366-12.048 16.307-19.45 22.98-11.705-11.705-11.692-11.497-12.99-13.57-3.065-4.994-4.59-10.672-4.59-16.25v-16c0-.55-.45-1-1-1h-16c-17.09 0-31-13.91-31-31 0-17.497.124-16.296-.29-16.71-.418-.418.892-.29-16.71-.29-17.09 0-31-13.91-31-31v-16c0-.55-.45-1-1-1-17.165 0-17.63.123-20.81-.38-4.712-.735-10.834-3.024-14.19-6.38l-10.8-10.8c6.778-7.551 14.55-14.089 22.96-19.48 5.545 5.556 4.005 4.015 7.03 7.04h15.81c17.09 0 31 13.91 31 31v16c0 .55.45 1 1 1h16c17.172 0 31 13.879 31 31v16c0 .55.45 1 1 1h16c17.09 0 31 13.91 31 31v15.81z" fill="#0a617d"/><path d="m494.033 174.84c-5.345 8.366-12.048 16.307-19.45 22.98-11.705-11.705-11.692-11.497-12.99-13.57-3.065-4.994-4.59-10.672-4.59-16.25v-16c0-.55-.45-1-1-1h-16c-17.09 0-31-13.91-31-31 0-17.497.124-16.296-.29-16.71l21.22-21.22c5.86 5.9 9.07 13.67 9.07 21.93v16c0 .55.45 1 1 1h16c17.09 0 31 13.91 31 31v15.81z" fill="#08475e"/><path d="m176.393 474.37c-2.44-1.5-5.31-2.37-8.39-2.37h-16c-8.84 0-16-7.16-16-16v-16c0-8.84-7.16-16-16-16h-16c-8.853 0-16-7.16-16-16v-16c0-8.84-7.16-16-16-16h-16c-8.84 0-16-7.16-16-16v-16c0-3.08-.87-5.95-2.37-8.39l-10.6-10.6c-.428.412-.706.75-.96 1.04v.01c-16.299 19.624-26.07 45.289-26.07 72.38 0 62.605 50.938 113.56 113.56 113.56 25.47 0 50.756-8.705 71.04-24.97.161-.162 1.121-.825 2.24-2.21z" fill="#0a789b"/><path d="m176.393 474.37 10.45 10.45c-2.118 2.622-9.167 7.404-12 9.22-44.762 28.612-103.496 22.705-141.54-15.34l59.38-59.38c2.9 2.89 6.9 4.68 11.32 4.68h16c8.84 0 16 7.16 16 16v16c0 8.84 7.16 16 16 16h16c3.08 0 5.949.87 8.39 2.37z" fill="#0a617d"/><path d="m197.803 474.56c-6.848 7.629-14.655 14.157-22.96 19.48-5.545-5.556-4.005-4.014-7.03-7.04h-15.81c-17.09 0-31-13.91-31-31v-16c0-.55-.45-1-1-1h-16c-17.217 0-31-13.924-31-31v-16c0-.55-.45-1-1-1h-16c-17.09 0-31-13.91-31-31v-15.81l-7.03-7.03c5.605-8.771 12.402-16.626 19.45-22.98l10.82 10.82c3.349 3.349 5.654 9.477 6.38 14.22.505 3.17.38 3.443.38 20.78 0 .55.45 1 1 1h16c17.09 0 31 13.91 31 31 0 17.45-.135 16.284.31 16.73.371.385-.793.27 16.69.27 17.09 0 31 13.91 31 31v16c0 .55.45 1 1 1h16c5.571 0 11.232 1.516 16.25 4.59 2.174 1.348 2.142 1.562 13.55 12.97z" fill="#0a617d"/><path d="m187.003 463.76 10.8 10.8c-6.765 7.537-14.533 14.079-22.96 19.48-5.545-5.556-4.005-4.014-7.03-7.04h-15.81c-17.09 0-31-13.91-31-31v-16c0-.55-.45-1-1-1h-16c-8.27 0-16.05-3.22-21.91-9.05-.1-.1-.493.453 21.2-21.24.418.418-.892.29 16.71.29 17.09 0 31 13.91 31 31v16c0 .55.45 1 1 1 17.165 0 17.63-.123 20.81.38 4.712.735 10.833 3.024 14.19 6.38z" fill="#08475e"/></g></svg>