<svg id="Capa_1" enable-background="new 0 0 512 512" height="512" viewBox="0 0 512 512" width="512" xmlns="http://www.w3.org/2000/svg"><g><path d="m399.973 0h-288c-8.28 0-15 6.72-15 15v65c0 8.28 6.72 15 15 15h288c8.28 0 15-6.72 15-15v-65c0-8.28-6.72-15-15-15z" fill="#f17ab4"/><path d="m414.973 15v65c0 8.28-6.72 15-15 15h-144v-95h144c8.28 0 15 6.72 15 15z" fill="#ff3d7d"/><path d="m143.973 64.96v447.04h80c8.28 0 15-6.72 15-15v-161c0-9.37 7.63-17 17-17s17 7.63 17 17v161c0 8.28 6.72 15 15 15h80v-447c-110.961 0-210.165-.04-224-.04z" fill="#0a789b"/><path d="m367.973 65v447h-80c-8.28 0-15-6.72-15-15v-161c0-9.37-7.63-17-17-17v-254.01c31.347.012 74.052.01 112 .01z" fill="#0a617d"/><path d="m143.973 64.96v447.04h-32c-6.17 0-11.71-3.78-13.96-9.52l-21.55-54.86c-47.795-119.52-41.731-257.322 22.341-374.8.257 0 3.234-7.772 13.74-7.85 1.34-.014 5.026-.01 31.429-.01z" fill="#0a617d"/><path d="m435.443 447.71-21.51 54.77c-2.25 5.74-7.79 9.52-13.96 9.52h-32v-447h32c5.49 0 10.54 3 13.17 7.82 61.23 112.264 72.432 249.592 22.3 374.89z" fill="#08475e"/><path d="m128.973 64.96h30v447.04h-30z" fill="#08475e"/><path d="m352.973 65h30v447h-30z" fill="#05303d"/><path d="m96.973 46.22h318v30h-318z" fill="#ff3d7d"/><path d="m255.973 46.22h159v30h-159z" fill="#86335c"/></g></svg>