<svg id="Capa_1" enable-background="new 0 0 511.081 511.081" height="512" viewBox="0 0 511.081 511.081" width="512" xmlns="http://www.w3.org/2000/svg"><g><path d="m431.334 454.721c-7.891 1.793-16.063-3.145-17.9-11.39l-10.78-48.5c-1.53-6.92-7.56-11.75-14.64-11.75h-192c-7.08 0-13.11 4.83-14.64 11.75l-10.78 48.5c-1.8 8.09-9.81 13.2-17.9 11.39-8.09-1.79-13.18-9.81-11.39-17.89l10.78-48.51c4.649-20.916 22.859-35.24 43.92-35.24h192.01c21.25 0 39.32 14.49 43.93 35.24l10.78 48.51c1.79 8.08-3.3 16.1-11.39 17.89z" fill="#e9edfd"/><path d="m431.334 454.721c-7.891 1.793-16.063-3.145-17.9-11.39l-10.78-48.5c-1.53-6.92-7.56-11.75-14.64-11.75h-80v-30h80c21.25 0 39.32 14.49 43.93 35.24l10.78 48.51c1.79 8.08-3.3 16.1-11.39 17.89z" fill="#d8e1fd"/><path d="m195.949 425.081h-77c-6.427 0-12.14 4.095-14.205 10.181l-19 56c-3.297 9.718 3.94 19.819 14.205 19.819h96c8.284 0 15-6.716 15-15v-56c0-8.284-6.716-15-15-15z" fill="#0a789b"/><path d="m498.283 491.262-19-56c-2.065-6.086-7.778-10.181-14.205-10.181h-77c-8.284 0-15 6.716-15 15v56c0 8.284 6.716 15 15 15h96c10.263 0 17.504-10.099 14.205-19.819z" fill="#0a617d"/><path d="m329.184 411.971c-2.33 1.4-5 2.141-7.71 2.141-25.973 0-69.821-12.223-94.15-20.75-6.04-2.09-10.08-7.78-10.08-14.17 0-1.94.38-47.7 33.78-64.4 22.68-11.34 34.32-22.57 34.43-22.68 4.94-4.9 12.57-5.721 18.47-2.03 4.876 3.051-4.993-3.117 50.99 31.87 3.76 2.35 6.29 6.24 6.9 10.63.32 2.249 7.3 55.429-32.63 79.389z" fill="#edbc85"/><path d="m329.184 411.971c-2.33 1.4-5 2.141-7.71 2.141-4.18 0-8.71-.3-13.46-.83v-120.641l46.9 29.311c3.76 2.35 6.29 6.24 6.9 10.63.32 2.249 7.3 55.429-32.63 79.389z" fill="#e9a86c"/><path d="m401.794 16.661c-47.692-23.475-132.206-17.819-184.04-9.12-13.934 2.638-28.265 6.454-40.63 13.18-41.903-22.771-95.439-16.413-131.68 18.91-44.59 43.453-44.615 113.191 0 156.69 34.767 33.887 85.685 41.354 127.31 21.1 17.595-8.515 26.075-18.109 26.65-18.109 24.955 7.148 51.286 3.892 73.19-7.841 4.929 34.627 7.845 73.234 8.33 104.53 34.707 17.834 16.395 8.422 81.37 41.82 4.98-9.58 17.33-34.96 29.97-73.57 14.69-44.87 32.61-117.09 34.57-206.36.38-17.38-9.45-33.57-25.04-41.23z" fill="#f2d1a3"/><g fill="#edbc85"><path d="m426.834 57.891c-1.96 89.271-19.88 161.49-34.57 206.36-12.64 38.61-24.99 63.99-29.97 73.57l-54.28-27.9v-309.91c32.93.12 68.08 4 93.78 16.65 15.59 7.66 25.42 23.85 25.04 41.23z"/><path d="m272.594 191.471c-9.13 4.891-18.95 8.271-29.05 10.07-.106-.519-2.814-29.972-9.05-44.88-3.21-7.64.38-16.43 8.02-19.64s16.43.38 19.64 8.02c7.646 18.234 10.874 49.475 10.44 46.43z"/><path d="m199.404 199.311c-.433 0-9.667 9.891-26.65 18.109-4.56-3.55-9.5-8-13.95-13.32-5.31-6.359-4.46-15.819 1.9-21.13 6.35-5.31 15.81-4.46 21.12 1.9 5.92 7.081 13.69 12.161 17.58 14.441z"/></g></g></svg>