<svg id="Capa_1" enable-background="new 0 0 512 512" height="512" viewBox="0 0 512 512" width="512" xmlns="http://www.w3.org/2000/svg"><g><path d="m392 255c-8.284 0-15-6.716-15-15v-192c0-8.284 6.716-15 15-15s15 6.716 15 15v192c0 8.284-6.716 15-15 15z" fill="#c2d1f1"/><path d="m392 319c-25.916 0-47-21.084-47-47s21.084-47 47-47 47 21.084 47 47-21.084 47-47 47zm0-64c-9.374 0-17 7.626-17 17s7.626 17 17 17 17-7.626 17-17-7.626-17-17-17z" fill="#ffb454"/><path d="m312 215c-8.284 0-15-6.716-15-15v-152c0-8.284 6.716-15 15-15s15 6.716 15 15v152c0 8.284-6.716 15-15 15z" fill="#edbc85"/><path d="m168 319h-80c-8.284 0-15-6.716-15-15v-18.557c0-18.209 8.155-35.177 22.374-46.552l23.255-18.604c5.479-4.383 13.263-4.383 18.741 0l23.255 18.604c14.22 11.376 22.375 28.343 22.375 46.552v18.557c0 8.284-6.716 15-15 15zm-65-30h50v-3.557c0-9.046-4.051-17.475-11.115-23.126l-13.885-11.108-13.885 11.108c-7.064 5.651-11.115 14.08-11.115 23.126z" fill="#0a617d"/><path d="m143 161v63.78h-30v-63.78c0-8.28 6.72-15 15-15s15 6.72 15 15z" fill="#d8e1fd"/><path d="m142.988 159.739c-.068-3.834-1.595-7.583-4.428-10.392l-113-112c-5.884-5.832-15.382-5.79-21.213.094s-5.79 15.382.094 21.213l87.117 86.346h-76.558c-8.284 0-15 6.716-15 15s6.716 15 15 15h128c0-15.462.088-15.233-.012-15.261z" fill="#0a617d"/><path d="m48 479c-8.284 0-15-6.716-15-15v-32c0-8.284 6.716-15 15-15s15 6.716 15 15v32c0 8.284-6.716 15-15 15z" fill="#0a789b"/><path d="m464 479c-8.284 0-15-6.716-15-15v-32c0-8.284 6.716-15 15-15s15 6.716 15 15v32c0 8.284-6.716 15-15 15z" fill="#0a617d"/><path d="m0 353v79c0 8.28 6.72 15 15 15h482c8.28 0 15-6.72 15-15v-79z" fill="#0a617d"/><path d="m512 353v79c0 8.28-6.72 15-15 15h-241v-94z" fill="#08475e"/><path d="m497 33h-482c-8.284 0-15 6.716-15 15v335h512v-335c0-8.284-6.716-15-15-15zm-15 320h-452v-290h452z" fill="#0a789b"/><path d="m512 48v335h-256v-30h226v-290h-226v-30h241c8.284 0 15 6.716 15 15z" fill="#0a617d"/></g></svg>