<svg id="Capa_1" enable-background="new 0 0 512 512" height="512" viewBox="0 0 512 512" width="512" xmlns="http://www.w3.org/2000/svg"><g><path d="m456.79 175h-208c-8.284 0-15-6.716-15-15s6.716-15 15-15h208c8.284 0 15 6.716 15 15s-6.716 15-15 15z" fill="#d8e1fd"/><path d="m241.9 127.38c-11.38-14.22-28.34-22.38-46.55-22.38h-18.56c-8.28 0-15 6.72-15 15v80c0 8.28 6.72 15 15 15h18.56c18.21 0 35.17-8.16 46.55-22.37l14.1-17.63v-30zm-23.43 46.5c-5.65 7.07-14.08 11.12-23.12 11.12h-3.56v-50h3.56c9.04 0 17.47 4.05 23.12 11.12l11.11 13.88z" fill="#0a789b"/><path d="m263.335 309.853c-13.244 0-20.083-16.131-10.606-25.606l136.665-134.853c5.857-5.857 15.355-5.857 21.213 0s5.858 15.355 0 21.213l-136.665 134.853c-2.929 2.929-6.768 4.393-10.607 4.393z" fill="#00c6cb"/><path d="m152 311c-3.839 0-7.678-1.465-10.606-4.394l-81.37-81.37c-5.858-5.857-5.858-15.355 0-21.213 5.857-5.857 15.355-5.857 21.213 0l81.37 81.37c9.477 9.477 2.635 25.607-10.607 25.607z" fill="#7affe4"/><path d="m464 311h-64c-8.284 0-15-6.716-15-15v-136c0-8.284 6.716-15 15-15h64c8.284 0 15 6.716 15 15v136c0 8.284-6.716 15-15 15zm-49-30h34v-106h-34z" fill="#0a617d"/><circle cx="48" cy="192" fill="#e9edfd" r="32"/><path d="m48 239c-25.916 0-47-21.084-47-47s21.084-47 47-47 47 21.084 47 47-21.084 47-47 47zm0-64c-9.374 0-17 7.626-17 17s7.626 17 17 17 17-7.626 17-17-7.626-17-17-17z" fill="#0a789b"/><path d="m48 407c-8.284 0-15-6.716-15-15v-32c0-8.284 6.716-15 15-15s15 6.716 15 15v32c0 8.284-6.716 15-15 15z" fill="#0a789b"/><path d="m464 407c-8.284 0-15-6.716-15-15v-32c0-8.284 6.716-15 15-15s15 6.716 15 15v32c0 8.284-6.716 15-15 15z" fill="#0a617d"/><path d="m0 296v64c0 8.284 6.716 15 15 15h482c8.284 0 15-6.716 15-15v-64c0-8.284-6.716-15-15-15h-482c-8.284 0-15 6.716-15 15z" fill="#0a617d"/><path d="m512 296v64c0 8.284-6.716 15-15 15h-241v-94h241c8.284 0 15 6.716 15 15z" fill="#08475e"/></g></svg>