<svg id="Capa_1" enable-background="new 0 0 512 512" height="512" viewBox="0 0 512 512" width="512" xmlns="http://www.w3.org/2000/svg"><g><path d="m94.5 88v409c0 8.28-6.72 15-15 15s-15-6.72-15-15v-409c0-8.28 6.72-15 15-15s15 6.72 15 15z" fill="#e9edfd"/><path d="m94.5 88v409c0 8.28-6.72 15-15 15v-439c8.28 0 15 6.72 15 15z" fill="#d8e1fd"/><path d="m119.5 0h-80c-8.28 0-15 6.72-15 15v19.56c0 18.21 8.15 35.17 22.37 46.55l17.63 14.1h30l17.63-14.1c14.22-11.38 22.37-28.34 22.37-46.55v-19.56c0-8.28-6.72-15-15-15zm-15 34.56c0 9.04-4.05 17.47-11.11 23.12l-13.89 11.11-13.88-11.11c-7.07-5.65-11.12-14.08-11.12-23.12v-4.56h50z" fill="#0a789b"/><path d="m134.5 15v19.56c0 18.21-8.15 35.17-22.37 46.55l-17.63 14.1h-15v-26.42l13.89-11.11c7.06-5.65 11.11-14.08 11.11-23.12v-4.56h-25v-30h40c8.28 0 15 6.72 15 15z" fill="#08475e"/><path d="m347.48 281.24-85.71 85.71c-2.93 2.93-6.77 4.39-10.61 4.39-13.311 0-20.025-16.179-10.61-25.61l85.71-85.71c5.86-5.85 15.36-5.85 21.22 0 5.85 5.86 5.85 15.36 0 21.22z" fill="#e9edfd"/><path d="m347.48 281.24-85.71 85.71c-5.823 5.823-15.337 5.883-21.22 0l106.93-106.93c5.85 5.86 5.85 15.36 0 21.22z" fill="#d8e1fd"/><path d="m322.11 330.61c-5.825 5.825-15.339 5.882-21.22 0l-24-24c-5.85-5.86-5.85-15.36 0-21.22 5.86-5.85 15.36-5.85 21.22 0l24 24c5.85 5.86 5.85 15.36 0 21.22z" fill="#d8e1fd"/><path d="m322.11 330.61c-5.825 5.825-15.339 5.882-21.22 0l-12-12 21.22-21.22 12 12c5.85 5.86 5.85 15.36 0 21.22z" fill="#c2d1f1"/><path d="m359.5 201c-25.92 0-47 21.08-47 47 0 25.919 21.079 47 47 47 25.92 0 47-21.08 47-47 0-25.919-21.079-47-47-47zm0 64c-9.366 0-17-7.638-17-17 0-15.193 18.415-22.64 29.01-12.01 10.632 10.597 3.179 29.01-12.01 29.01z" fill="#0a617d"/><path d="m406.5 248c0 25.92-21.08 47-47 47-12.96 0-24.71-5.27-33.22-13.78l21.21-21.21c3.07 3.08 7.33 4.99 12.01 4.99 15.193 0 22.639-18.415 12.01-29.01l21.21-21.21c8.51 8.51 13.78 20.26 13.78 33.22z" fill="#08475e"/><path d="m228.33 329.64c-40.982-12.39-68.83-49.474-68.83-92.68v-44.96c0-8.28-6.72-15-15-15h-65s-40 63-40 183 40 152 40 152h224c8.28 0 15-6.72 15-15v-45.96c0-56.047-36.652-105.245-90.17-121.4z" fill="#f2d1a3"/><path d="m318.5 451.04v45.96c0 8.28-6.72 15-15 15h-96v-191.38c6.45 3.74 13.42 6.78 20.83 9.02 53.447 16.134 90.17 65.271 90.17 121.4z" fill="#edbc85"/><path d="m15.5 177c-8.28 0-15 6.72-15 15v305c0 8.28 6.72 15 15 15h64v-335z" fill="#0a789b"/><path d="m239.5 447c-8.225 0-15-6.722-15-15 0-8.598 7.364-15.766 16.48-14.93 7.844.814 14.171 7.578 13.45 16.41-.82 7.897-7.434 13.52-14.93 13.52z" fill="#e9a86c"/><path d="m175.5 447c-8.217 0-15-6.712-15-15 0-8.602 7.367-15.766 16.48-14.93 8.425.874 14.274 8.374 13.45 16.41-.804 7.749-7.275 13.52-14.93 13.52z" fill="#edbc85"/><path d="m511.5 497c0 8.28-6.72 15-15 15h-481c-8.28 0-15-6.72-15-15v-15h496c8.28 0 15 6.72 15 15z" fill="#0a617d"/><path d="m511.5 497c0 8.28-6.72 15-15 15h-289v-30h289c8.28 0 15 6.72 15 15z" fill="#08475e"/></g></svg>