<svg id="Capa_1" enable-background="new 0 0 512.099 512.099" height="512" viewBox="0 0 512.099 512.099" width="512" xmlns="http://www.w3.org/2000/svg"><g><path d="m470.34 283.33c-2.48 19.7-7.62 38.58-15.05 56.26 24.57 28.64 9.75 54.2-27.32 47.23-11.8 15.5-25.65 29.35-41.15 41.15 6.97 37.08-18.6 51.88-47.23 27.32-17.68 7.43-36.56 12.57-56.26 15.05-12.435 35.432-41.995 35.767-54.561 0-19.7-2.48-38.58-7.62-56.26-15.05-28.63 24.57-54.2 9.75-47.23-27.32-15.5-11.8-29.35-25.65-41.15-41.15-37.08 6.97-51.88-18.6-27.32-47.23-7.43-17.68-12.57-36.56-15.05-56.26-35.55-12.48-35.65-42.04 0-54.56 2.48-19.7 7.62-38.58 15.05-56.26-24.57-28.64-9.75-54.2 27.32-47.23 11.8-15.5 25.65-29.35 41.15-41.15-6.97-37.08 18.6-51.88 47.23-27.32 17.68-7.43 36.56-12.57 56.26-15.05 12.435-35.432 41.995-35.767 54.561 0 19.7 2.48 38.58 7.62 56.26 15.05 28.63-24.57 54.2-9.75 47.23 27.32 15.5 11.8 29.35 25.65 41.15 41.15 37.08-6.97 51.88 18.6 27.32 47.23 7.43 17.68 12.57 36.56 15.05 56.26 35.549 12.48 35.65 42.04 0 54.56z" fill="#7affe4"/><path d="m470.34 283.33c-2.48 19.7-7.62 38.58-15.05 56.26 24.57 28.64 9.75 54.2-27.32 47.23-11.8 15.5-25.65 29.35-41.15 41.15 6.97 37.08-18.6 51.88-47.23 27.32-17.68 7.43-36.56 12.57-56.26 15.05-6.24 17.78-16.75 26.69-27.28 26.7v-481.98c10.51-.01 21.02 8.88 27.28 26.7 19.7 2.48 38.58 7.62 56.26 15.05 28.63-24.57 54.2-9.75 47.23 27.32 15.5 11.8 29.35 25.65 41.15 41.15 37.08-6.97 51.88 18.6 27.32 47.23 7.43 17.68 12.57 36.56 15.05 56.26 35.549 12.48 35.65 42.04 0 54.56z" fill="#00c6cb"/><path d="m483.96 218.21c-2.44-14.81-6.33-29.33-11.6-43.36 23.339-34.565 3.75-68.479-37.89-65.52-9.52-11.57-20.13-22.18-31.7-31.7 2.977-41.587-30.929-61.247-65.52-37.89-14.03-5.27-28.55-9.16-43.36-11.6-18.348-37.674-57.513-37.366-75.68 0-14.81 2.44-29.33 6.33-43.36 11.6-34.573-23.345-68.498-3.715-65.52 37.89-11.57 9.52-22.18 20.13-31.7 31.7-41.613-2.957-61.237 30.944-37.89 65.52-5.27 14.03-9.16 28.55-11.6 43.36-37.51 18.238-37.508 57.423 0 75.68 2.44 14.81 6.33 29.33 11.6 43.36-23.342 34.57-3.729 68.499 37.89 65.52 9.52 11.57 20.13 22.18 31.7 31.7-2.977 41.587 30.929 61.247 65.52 37.89 14.03 5.27 28.55 9.16 43.36 11.6 18.203 37.439 57.4 37.599 75.68 0 14.81-2.44 29.33-6.33 43.36-11.6 34.574 23.345 68.498 3.716 65.52-37.89 11.57-9.52 22.18-20.13 31.7-31.7 41.613 2.957 61.237-30.944 37.89-65.52 5.27-14.03 9.16-28.55 11.6-43.36 37.509-18.237 37.508-57.422 0-75.68zm-18.591 50.97c-5.36 1.88-9.2 6.64-9.91 12.28-2.27 18.01-6.98 35.61-14 52.32-2.2 5.24-1.25 11.27 2.45 15.58 8.43 9.82 9.31 17.15 7.85 19.68s-8.27 5.43-21.02 3.04c-5.58-1.05-11.27 1.14-14.71 5.65-10.98 14.43-23.87 27.32-38.3 38.3-4.51 3.44-6.7 9.13-5.65 14.71 2.4 12.75-.5 19.56-3.04 21.02-2.53 1.46-9.86.57-19.68-7.85-4.31-3.7-10.35-4.65-15.58-2.45-16.7 7.02-34.31 11.73-52.32 14-5.64.71-10.4 4.55-12.28 9.91-4.3 12.22-10.2 16.66-13.13 16.67h-.01c-2.92 0-8.82-4.44-13.12-16.67-1.88-5.36-6.64-9.2-12.28-9.91-18.01-2.27-35.62-6.98-52.32-14-5.158-2.179-11.225-1.292-15.58 2.45-9.82 8.42-17.15 9.31-19.68 7.85s-5.44-8.27-3.04-21.02c1.05-5.58-1.14-11.27-5.65-14.71-14.43-10.98-27.32-23.87-38.3-38.3-3.44-4.51-9.14-6.7-14.71-5.65-12.75 2.4-19.56-.51-21.02-3.04s-.58-9.86 7.85-19.68c3.7-4.31 4.65-10.34 2.45-15.58-7.02-16.71-11.73-34.31-14-52.32-.71-5.64-4.55-10.4-9.91-12.28-12.23-4.3-16.67-10.21-16.67-13.14 0-2.92 4.44-8.82 16.67-13.12 5.36-1.88 9.2-6.64 9.91-12.28 2.27-18.01 6.98-35.61 14-52.32 2.2-5.24 1.25-11.27-2.45-15.58-8.43-9.82-9.31-17.15-7.85-19.68s8.26-5.44 21.02-3.04c5.58 1.05 11.27-1.14 14.71-5.65 10.98-14.43 23.87-27.32 38.3-38.3 4.51-3.44 6.7-9.13 5.65-14.71-2.4-12.75.5-19.56 3.04-21.02 2.53-1.46 9.86-.57 19.68 7.85 4.31 3.7 10.35 4.65 15.58 2.45 16.7-7.02 34.31-11.73 52.32-14 5.64-.71 10.4-4.55 12.28-9.91 4.3-12.22 10.2-16.66 13.13-16.67h.01c2.92 0 8.82 4.44 13.12 16.67 1.88 5.36 6.64 9.2 12.28 9.91 18.01 2.27 35.62 6.98 52.32 14 5.23 2.2 11.27 1.25 15.58-2.45 9.82-8.43 17.15-9.31 19.68-7.85s5.44 8.27 3.04 21.02c-1.05 5.58 1.14 11.27 5.65 14.71 14.43 10.98 27.32 23.87 38.3 38.3 3.44 4.51 9.14 6.7 14.71 5.65 12.75-2.4 19.56.51 21.02 3.04s.58 9.86-7.85 19.68c-3.7 4.31-4.65 10.34-2.45 15.58 7.02 16.71 11.73 34.31 14 52.32.71 5.64 4.55 10.4 9.91 12.28 12.23 4.3 16.67 10.21 16.67 13.14.001 2.92-4.44 8.82-16.67 13.12z" fill="#00c6cb"/><path d="m483.96 293.89c-2.44 14.81-6.33 29.33-11.6 43.36 23.34 34.567 3.739 68.478-37.89 65.52-9.52 11.57-20.13 22.18-31.7 31.7 2.977 41.591-30.929 61.247-65.52 37.89-14.03 5.27-28.55 9.16-43.36 11.6-8.63 17.75-22.34 28.08-37.84 28.08v-30c2.93-.01 8.83-4.45 13.13-16.67 1.88-5.36 6.64-9.2 12.28-9.91 18.01-2.27 35.62-6.98 52.32-14 5.23-2.2 11.27-1.25 15.58 2.45 9.82 8.42 17.15 9.31 19.68 7.85 2.54-1.46 5.44-8.27 3.04-21.02-1.05-5.58 1.14-11.27 5.65-14.71 14.43-10.98 27.32-23.87 38.3-38.3 3.44-4.51 9.13-6.7 14.71-5.65 12.75 2.39 19.56-.51 21.02-3.04s.58-9.86-7.85-19.68c-3.7-4.31-4.65-10.34-2.45-15.58 7.02-16.71 11.73-34.31 14-52.32.71-5.64 4.55-10.4 9.91-12.28 12.23-4.3 16.67-10.2 16.67-13.12 0-2.93-4.44-8.84-16.67-13.14-5.36-1.88-9.2-6.64-9.91-12.28-2.27-18.01-6.98-35.61-14-52.32-2.2-5.24-1.25-11.27 2.45-15.58 8.43-9.82 9.31-17.15 7.85-19.68s-8.27-5.44-21.02-3.04c-5.57 1.05-11.27-1.14-14.71-5.65-10.98-14.43-23.87-27.32-38.3-38.3-4.51-3.44-6.7-9.13-5.65-14.71 2.4-12.75-.51-19.56-3.04-21.02s-9.86-.58-19.68 7.85c-4.31 3.7-10.35 4.65-15.58 2.45-16.7-7.02-34.31-11.73-52.32-14-5.64-.71-10.4-4.55-12.28-9.91-4.3-12.23-10.2-16.67-13.12-16.67-.1 0-.01.359-.01-30 17.246 0 30.227 12.448 37.84 28.08 14.81 2.44 29.33 6.33 43.36 11.6 34.564-23.339 68.498-3.724 65.52 37.89 11.57 9.52 22.18 20.13 31.7 31.7 41.622-2.958 61.236 30.946 37.89 65.52 5.27 14.03 9.16 28.55 11.6 43.36 37.505 18.256 37.512 57.442 0 75.68z" fill="#0d8ebc"/><path d="m298.118 287.879c-3.07-7.694.678-16.42 8.372-19.491 10.001-3.991 14.556-9.197 14.556-12.345 0-3.142-4.555-8.341-14.556-12.332-7.694-3.07-11.442-11.797-8.372-19.491 3.069-7.694 11.792-11.442 19.491-8.372 44.574 17.787 44.623 62.597 0 80.403-7.695 3.071-16.421-.678-19.491-8.372z" fill="#0d8ebc"/><path d="m358.543 361.645c-8.198-1.188-13.882-8.798-12.693-16.996 1.188-8.198 8.795-13.884 16.996-12.693 10.658 1.543 17.203-.687 18.777-3.414 1.571-2.721.226-9.5-6.439-17.957-5.128-6.506-4.012-15.938 2.494-21.066 6.507-5.128 15.938-4.012 21.066 2.495 30.006 38.067 6.84 76.452-40.201 69.631z" fill="#0d8ebc"/><path d="m386.954 225.801c-12.353 0-19.581-14.377-11.771-24.286 6.666-8.456 8.007-15.242 6.433-17.969-1.57-2.721-8.118-4.946-18.771-3.402-8.193 1.191-15.809-4.495-16.996-12.693-1.188-8.199 4.495-15.808 12.693-16.996 47.491-6.888 69.945 31.898 40.201 69.631-2.959 3.755-7.353 5.715-11.789 5.715z" fill="#0d8ebc"/><g fill="#00c6cb"><path d="m194.49 296.252c-44.574-17.787-44.623-62.597 0-80.403 7.697-3.071 16.421.678 19.491 8.373s-.678 16.42-8.372 19.491c-10.001 3.991-14.556 9.197-14.556 12.345 0 3.142 4.555 8.341 14.556 12.332 7.694 3.07 11.442 11.797 8.372 19.491-3.06 7.668-11.771 11.449-19.491 8.371z"/><path d="m125.145 225.801c-4.438 0-8.83-1.959-11.79-5.715-29.7-37.679-7.361-76.53 40.201-69.631 8.198 1.188 13.882 8.798 12.693 16.996-1.188 8.198-8.795 13.886-16.996 12.693-10.66-1.543-17.203.687-18.777 3.414-1.571 2.721-.226 9.5 6.439 17.957 7.804 9.899.598 24.286-11.77 24.286z"/><path d="m113.355 292.014c5.129-6.506 14.562-7.623 21.066-2.495 6.506 5.128 7.622 14.56 2.494 21.066-6.666 8.456-8.007 15.242-6.433 17.969 1.569 2.721 8.114 4.946 18.771 3.402 8.188-1.191 15.809 4.495 16.996 12.693 1.188 8.199-4.495 15.808-12.693 16.996-47.294 6.858-70.051-31.763-40.201-69.631z"/><path d="m296.25 397.61c-17.818 44.683-62.639 44.542-80.4 0-3.07-7.7.68-16.42 8.37-19.49 7.7-3.07 16.42.68 19.49 8.37 3.99 9.99 9.19 14.55 12.34 14.56h.01c3.14 0 8.34-4.56 12.33-14.56 3.07-7.69 11.79-11.44 19.49-8.37 7.69 3.07 11.44 11.79 8.37 19.49z"/></g><path d="m256.059 431.05c-.1 0-.01.359-.01-30h.01c3.14 0 8.34-4.56 12.33-14.56 3.07-7.69 11.79-11.44 19.49-8.37 7.69 3.07 11.44 11.79 8.37 19.49-8.349 20.94-23.38 33.44-40.19 33.44z" fill="#0d8ebc"/><path d="m287.88 133.98c-7.7 3.07-16.42-.68-19.49-8.37-3.99-9.99-9.19-14.55-12.34-14.56h-.01c-3.14 0-8.34 4.56-12.33 14.56-3.072 7.705-11.815 11.432-19.49 8.37-7.69-3.07-11.44-11.79-8.37-19.49 17.851-44.766 62.644-44.473 80.4 0 3.07 7.7-.68 16.42-8.37 19.49z" fill="#00c6cb"/><path d="m256.05 111.05v-30c19.213 0 33.113 15.689 40.2 33.44 3.07 7.7-.68 16.42-8.37 19.49-7.7 3.07-16.42-.68-19.49-8.37-3.99-9.99-9.19-14.55-12.34-14.56z" fill="#0d8ebc"/></g></svg>