<svg id="Capa_1" enable-background="new 0 0 512 512" height="512" viewBox="0 0 512 512" width="512" xmlns="http://www.w3.org/2000/svg"><g><path d="m485.6 169.18c-118.019-53.64-341.178-53.641-459.2 0-16.04 7.29-26.4 23.38-26.4 40.98v91.68c0 17.6 10.36 33.69 26.4 40.98 118.042 53.641 341.157 53.639 459.2 0 16.04-7.29 26.4-23.38 26.4-40.98v-91.68c0-17.6-10.36-33.69-26.4-40.98z" fill="#e9edfd"/><path d="m512 210.16v91.68c0 17.6-10.36 33.69-26.4 40.98-59 26.81-144.31 40.23-229.6 40.23v-254.1c85.3 0 170.59 13.41 229.6 40.23 16.04 7.29 26.4 23.38 26.4 40.98z" fill="#d8e1fd"/><path d="m512 256v45.84c0 17.6-10.36 33.69-26.4 40.98-118.04 53.64-341.16 53.64-459.2 0-16.04-7.29-26.4-23.38-26.4-40.98v-45.84s2.91 1.8 8.91 4.71c24.93 12.09 103.21 43.29 247.09 43.29 178.46 0 256-48 256-48z" fill="#0a789b"/><path d="m512 256v45.84c0 17.6-10.36 33.69-26.4 40.98-59 26.81-144.31 40.23-229.6 40.23v-79.05c178.46 0 256-48 256-48z" fill="#0a617d"/><path d="m224 208c-8.233 0-15-6.732-15-15 0-8.61 7.379-15.765 16.479-14.93 8.333.872 14.275 8.29 13.45 16.41-.808 7.798-7.329 13.52-14.929 13.52z" fill="#d8e1fd"/><path d="m288 208c-8.233 0-15-6.732-15-15 0-8.61 7.378-15.765 16.479-14.93 8.327.872 14.277 8.276 13.45 16.41-.812 7.831-7.36 13.52-14.929 13.52z" fill="#c2d1f1"/><path d="m160 213c-8.232 0-15-6.731-15-15 0-8.632 7.415-15.769 16.47-14.93 8.431.865 14.269 8.35 13.45 16.41-.618 7.413-7.089 13.52-14.92 13.52z" fill="#d8e1fd"/><path d="m352 213c-8.235 0-15-6.732-15-15 0-8.888 7.751-15.812 16.479-14.92 7.946.662 14.301 8.025 13.45 16.4-.819 7.902-7.434 13.52-14.929 13.52z" fill="#c2d1f1"/><path d="m320 269c-8.267 0-15-6.764-15-15 0-8.61 7.379-15.765 16.479-14.93 8.52.892 14.251 8.432 13.44 16.41-.629 7.554-7.202 13.52-14.919 13.52z" fill="#c2d1f1"/><path d="m384 260c-8.217 0-15-6.714-15-15 0-8.61 7.379-15.765 16.479-14.93 8.506.89 14.26 8.436 13.45 16.41-.819 7.902-7.434 13.52-14.929 13.52z" fill="#c2d1f1"/><g fill="#d8e1fd"><path d="m192 269c-8.234 0-15-6.732-15-15 0-9.014 7.891-15.808 16.479-14.93 8.459.885 14.257 8.369 13.44 16.41-.613 7.365-7.038 13.52-14.919 13.52z"/><path d="m128 260c-13.019 0-20.176-15.756-10.61-25.61 6.538-6.337 16.506-5.685 22.21 1.1 8.038 9.845.956 24.51-11.6 24.51z"/><path d="m80 234c-8.217 0-15-6.714-15-15 0-8.61 7.379-15.765 16.479-14.93 8.332.872 14.275 8.288 13.45 16.41-.813 7.844-7.38 13.52-14.929 13.52z"/></g><path d="m432 234c-8.21 0-15-6.705-15-15 0-8.611 7.379-15.765 16.479-14.93 8.313.87 14.277 8.272 13.45 16.41-.815 7.861-7.398 13.52-14.929 13.52z" fill="#c2d1f1"/><path d="m270.93 257.48c-.82 7.9-7.43 13.52-14.93 13.52-8.25 0-15-6.75-15-15 0-8.804 7.651-15.814 16.48-14.93 8.51.89 14.26 8.44 13.45 16.41z" fill="#d8e1fd"/><path d="m270.93 257.48c-.82 7.9-7.43 13.52-14.93 13.52v-30c8.986 0 15.81 7.819 14.93 16.48z" fill="#c2d1f1"/><path d="m485.61 169.18c-117.959-53.612-341.188-53.641-459.21 0-16.04 7.29-26.4 23.37-26.4 40.98v53.98l6.76 4.39c3.13 2.06 78.71 50.47 249.24 50.47s246.11-48.41 249.24-50.47l6.76-4.39c0-7.898 0-47.067 0-53.98 0-17.61-10.36-33.69-26.39-40.98zm-3.61 78.05c-8.32 4.3-24.36 11.66-48.63 18.95-128.601 38.68-316.538 25.931-403.37-18.95v-37.07c0-5.87 3.46-11.23 8.81-13.66 109.572-49.798 324.773-49.828 434.39 0 5.34 2.43 8.8 7.79 8.8 13.66z" fill="#d8e1fd"/><path d="m485.61 169.18c-59.01-26.82-144.31-40.22-229.61-40.22v30.18c81.2 0 162.4 12.45 217.2 37.36 5.34 2.43 8.8 7.79 8.8 13.66v37.07c-8.32 4.3-24.36 11.66-48.63 18.95-34.61 10.41-93.47 22.82-177.37 22.82v30c170.53 0 246.11-48.41 249.24-50.47l6.76-4.39c0-7.898 0-47.067 0-53.98 0-17.61-10.36-33.69-26.39-40.98z" fill="#c2d1f1"/></g></svg>