<svg id="Capa_1" enable-background="new 0 0 512 512" height="512" viewBox="0 0 512 512" width="512" xmlns="http://www.w3.org/2000/svg"><g><path d="m152 455.22h-51.5c-23.986 0-43.5-19.514-43.5-43.5v-7c0-7.444-6.056-13.5-13.5-13.5-23.986 0-43.5-19.514-43.5-43.5v-43.5c0-8.284 6.716-15 15-15s15 6.716 15 15v43.5c0 7.444 6.056 13.5 13.5 13.5 23.986 0 43.5 19.514 43.5 43.5v7c0 7.444 6.056 13.5 13.5 13.5h51.5c8.284 0 15 6.716 15 15s-6.716 15-15 15z" fill="#d8e1fd"/><path d="m411.5 455.22h-51.5c-8.284 0-15-6.716-15-15s6.716-15 15-15h51.5c7.444 0 13.5-6.056 13.5-13.5v-7c0-23.986 19.514-43.5 43.5-43.5 7.444 0 13.5-6.056 13.5-13.5v-43.5c0-8.284 6.716-15 15-15s15 6.716 15 15v43.5c0 23.986-19.514 43.5-43.5 43.5-7.444 0-13.5 6.056-13.5 13.5v7c0 23.986-19.514 43.5-43.5 43.5z" fill="#c2d1f1"/><path d="m224 385.22h-18.56c-18.21 0-35.17 8.16-46.55 22.37l-13.94 17.63v30l13.94 17.62c11.38 14.22 28.34 22.38 46.55 22.38h18.56c8.28 0 15-6.72 15-15v-80c0-8.28-6.72-15-15-15zm-15 80h-3.56c-9.04 0-17.47-4.05-23.12-11.12l-11.11-13.88 11.11-13.88c5.65-7.07 14.08-11.12 23.12-11.12h3.56z" fill="#0a789b"/><path d="m273 400.22v80c0 8.28 6.72 15 15 15h18.56c18.21 0 35.17-8.16 46.55-22.38l13.94-17.62v-30l-13.94-17.63c-11.38-14.21-28.34-22.37-46.55-22.37h-18.56c-8.28 0-15 6.72-15 15zm30 15h3.56c9.04 0 17.47 4.05 23.12 11.12l11.11 13.88-11.11 13.88c-5.65 7.07-14.08 11.12-23.12 11.12h-3.56z" fill="#0a617d"/><path d="m402.35 71.554c-92.394-80.626-235.936-72.364-317.76 25.59-34.455 41.691-51.59 91.031-51.59 142.67 0 8.28 6.72 15 15 15h416c8.28 0 15-6.72 15-15 0-62.604-25.627-123.427-76.65-168.26z" fill="#f17ab4"/><path d="m479 239.814c0 8.28-6.72 15-15 15h-208v-238c123.107 0 223 99.629 223 223z" fill="#ff3d7d"/><path d="m468.17 170.834c-118.11 26.548-304.523 26.921-424.35 0 3.15-9.72 6.95-19.149 11.37-28.229 112.519 24.268 289.133 24.269 401.63-.01 4.43 9.139 8.22 18.569 11.35 28.239z" fill="#ff3d7d"/><path d="m468.17 170.834c-59.44 13.36-135.79 20.051-212.17 20.051v-30.08c72.29 0 144.57-6.07 200.82-18.21 4.43 9.139 8.22 18.569 11.35 28.239z" fill="#cc006f"/><path d="m428.57 98.524c-4.46 1.28-74.71 12.35-172.57 12.35-59.87 0-119.75-3.989-170.85-11.979-.58-.09-1.15-.21-1.7-.37 7.81-9.45 16.03-18.08 25.63-26.52 90.188 11.859 203.27 11.895 293.79.01 9.38 8.209 17.96 17.079 25.7 26.509z" fill="#ff3d7d"/><path d="m428.57 98.524c-4.46 1.28-74.71 12.35-172.57 12.35v-29.96c50.86 0 101.71-2.97 146.87-8.899 9.38 8.209 17.96 17.079 25.7 26.509z" fill="#cc006f"/><path d="m497 240.814h-482c-8.284 0-15 6.716-15 15v64h497c8.284 0 15-6.716 15-15v-49c0-8.284-6.716-15-15-15z" fill="#0a789b"/><path d="m512 255.814v64h-256v-79h241c8.284 0 15 6.716 15 15z" fill="#0a617d"/></g></svg>