<svg id="Capa_1" enable-background="new 0 0 512 512" height="512" viewBox="0 0 512 512" width="512" xmlns="http://www.w3.org/2000/svg"><g><path d="m403.08 334.95c-55.088 1.983-119.766 16.932-147.08 65.05-26.43-46.56-88.46-62.94-147.08-65.05-22.49 66.46 11.46 162.92 12.96 167.1 2.13 5.97 7.78 9.95 14.12 9.95h240c6.34 0 11.99-3.98 14.12-9.95 1.5-4.18 35.45-100.64 12.96-167.1z" fill="#f2d1a3"/><path d="m403.08 334.95c-55.088 1.983-119.766 16.932-147.08 65.05v112h120c6.34 0 11.99-3.98 14.12-9.95 1.5-4.18 35.45-100.64 12.96-167.1z" fill="#edbc85"/><path d="m381.01 56.15-118.73-54.77c-3.978-1.839-8.58-1.84-12.56 0l-118.73 54.77c-6.72 3.1-10.18 10.64-8.14 17.75 1.83 6.39 3.97 13.22 6.36 20.279 18.81 55.67 20.55 115.771 6.07 171.48 0 0 11 22.95 3.02 47.33.53.84 32.88 51.96 117.7 51.96s117.17-51.12 117.7-51.96c-7.98-24.38 3.02-47.33 3.02-47.33-14.48-55.71-12.74-115.811 6.07-171.48 2.39-7.06 4.53-13.89 6.36-20.279 2.04-7.11-1.42-14.65-8.14-17.75z" fill="#f2d1a3"/><g fill="#edbc85"><path d="m256 0v364.95c84.82 0 117.17-51.12 117.7-51.96-7.98-24.38 3.02-47.33 3.02-47.33-14.48-55.71-12.74-115.811 6.07-171.48 2.39-7.06 4.53-13.89 6.36-20.279 2.04-7.11-1.42-14.65-8.14-17.75l-118.73-54.771c-1.99-.92-4.14-1.38-6.28-1.38z"/><path d="m415 15c0 47.97-39.03 87-87 87-29.91 0-56.33-15.17-72-38.21-15.67 23.04-42.09 38.21-72 38.21-47.97 0-87-39.03-87-87 0-8.28 6.72-15 15-15h288c8.28 0 15 6.72 15 15z"/><path d=""/><path d="m271 248c0 13.309-15.966 20.007-25.61 10.61-9.4-9.4-2.734-25.62 10.61-25.62 8.02-.01 15 6.54 15 15.01z"/></g><path d="m271 248c0 8.98-7.29 14.97-15 15v-30.01c8.02-.01 15 6.54 15 15.01z" fill="#e9a86c"/><path d="m415 15c0 47.97-39.03 87-87 87-29.91 0-56.33-15.17-72-38.21v-63.79h144c8.28 0 15 6.72 15 15z" fill="#e9a86c"/><path d="m407.13 349.92c-40.5 1.38-111.02 10.78-138.15 57.6-5.764 9.928-20.184 9.993-25.96 0-27.13-46.819-97.66-56.22-138.15-57.6 2.72-13.01 6.11-21.21 10.36-29.939 8.49-17.391 15.15-35.421 20.05-54.32 71.283 20.423 169.996 20.447 241.34.03 4.36 16.55 11 35.149 18.57 50.989 3.61 7.62 8.35 16.09 11.94 33.24z" fill="#f17ab4"/><path d="m407.13 349.92c-40.5 1.38-111.02 10.78-138.15 57.6-2.88 4.961-7.93 7.461-12.98 7.471v-134c42.49 0 84.98-5.101 120.62-15.3 4.36 16.55 11 35.149 18.57 50.989 3.61 7.62 8.35 16.09 11.94 33.24z" fill="#ff3d7d"/></g></svg>