<svg id="Capa_1" enable-background="new 0 0 512.138 512.138" height="512" viewBox="0 0 512.138 512.138" width="512" xmlns="http://www.w3.org/2000/svg"><g><path d="m497.069 208.583h-65c-8.284 0-15 6.716-15 15s6.716 15 15 15h50v145c0 8.284 6.716 15 15 15s15-6.716 15-15v-160c0-8.284-6.716-15-15-15z" fill="#08475e"/><path d="m389.309 371.823c-3.839 0-7.678-1.464-10.606-4.393l-48.94-48.94c-5.858-5.858-5.858-15.355 0-21.213 5.857-5.858 15.355-5.858 21.213 0l48.94 48.94c9.477 9.477 2.636 25.606-10.607 25.606z" fill="#08475e"/><path d="m340.369 154.283c-13.244 0-20.082-16.131-10.606-25.607l48.94-48.94c5.858-5.858 15.355-5.858 21.213 0s5.858 15.355 0 21.213l-48.94 48.94c-2.929 2.929-6.769 4.394-10.607 4.394z" fill="#08475e"/><g fill="#0a617d"><path d="m80.069 208.583h-65c-8.284 0-15 6.716-15 15v160c0 8.284 6.716 15 15 15s15-6.716 15-15v-145h50c8.284 0 15-6.716 15-15s-6.716-15-15-15z"/><path d="m171.769 154.283c-3.839 0-7.678-1.464-10.606-4.393l-48.94-48.94c-5.858-5.858-5.858-15.355 0-21.213 5.857-5.858 15.355-5.858 21.213 0l48.94 48.94c9.477 9.477 2.636 25.606-10.607 25.606z"/><path d="m122.829 371.823c-13.244 0-20.082-16.131-10.606-25.607l48.94-48.94c5.858-5.858 15.355-5.858 21.213 0s5.858 15.355 0 21.213l-48.94 48.94c-2.93 2.929-6.769 4.394-10.607 4.394z"/><path d="m271.069 319.583v129c0 8.28-6.72 15-15 15s-15-6.72-15-15v-129c0-8.28 6.72-15 15-15s15 6.72 15 15z"/></g><path d="m271.069 319.583v129c0 8.28-6.72 15-15 15v-159c8.28 0 15 6.72 15 15z" fill="#08475e"/><path d="m271.069 63.583v64c0 8.28-6.72 15-15 15s-15-6.72-15-15v-64c0-8.28 6.72-15 15-15s15 6.72 15 15z" fill="#0a617d"/><path d="m271.069 63.583v64c0 8.28-6.72 15-15 15v-94c8.28 0 15 6.72 15 15z" fill="#08475e"/><path d="m434.559 97.943c-99.323-65.836-257.61-65.867-356.98 0-103.036 68.299-103.84 182.448 0 251.28 99.323 65.836 257.61 65.867 356.98 0 103.036-68.299 103.84-182.448 0-251.28zm-16.57 226.27c-89.324 59.211-234.526 59.204-323.84 0-85.397-56.608-85.504-144.582 0-201.26 89.324-59.211 234.526-59.204 323.84 0 85.397 56.608 85.504 144.582 0 201.26z" fill="#0a789b"/><path d="m434.559 349.223c-48.02 31.83-111.41 49.36-178.49 49.36v-30c61.25 0 118.76-15.76 161.92-44.37 85.397-56.608 85.504-144.582 0-201.26-43.16-28.61-100.67-44.37-161.92-44.37v-30c67.08 0 130.47 17.53 178.49 49.36 103.036 68.299 103.84 182.448 0 251.28z" fill="#0a617d"/><ellipse cx="256.069" cy="223.583" fill="#7affe4" rx="176" ry="96"/><path d="m432.069 223.583c0 53.02-78.8 96-176 96v-192c97.2 0 176 42.98 176 96z" fill="#00c6cb"/><path d="m256.069 112.583c-107.1 0-191 48.76-191 111s83.9 111 191 111 191-48.76 191-111-83.9-111-191-111zm117.27 165.71c-64.119 34.968-170.003 35.196-234.54 0-58.192-31.737-58.353-77.595 0-109.42 64.119-34.968 170.003-35.196 234.54 0 58.192 31.738 58.353 77.595 0 109.42z" fill="#e9edfd"/><path d="m256.069 334.583v-30c44.54 0 86.19-9.34 117.27-26.29 58.192-31.737 58.353-77.595 0-109.42-31.08-16.95-72.73-26.29-117.27-26.29v-30c107.1 0 191 48.76 191 111s-83.9 111-191 111z" fill="#d8e1fd"/></g></svg>