<svg id="Capa_1" enable-background="new 0 0 512.09 512.09" height="512" viewBox="0 0 512.09 512.09" width="512" xmlns="http://www.w3.org/2000/svg"><g><path d="m407.045 264v16c0 57.639-69.654 86.556-110.46 45.75-3.942-3.942-98.344-98.344-102.29-102.29-21.847-21.846-59.25-6.376-59.25 24.54 0 8.28-6.72 15-15 15s-15-6.72-15-15c0-57.613 69.638-86.572 110.46-45.75l102.29 102.29c21.841 21.841 59.25 6.375 59.25-24.54v-16c0-8.28 6.72-15 15-15s15 6.72 15 15z" fill="#e9edfd"/><path d="m407.045 264v16c0 57.639-69.654 86.556-110.46 45.75l-40.54-40.54v-42.42l61.75 61.75c21.841 21.841 59.25 6.375 59.25-24.54v-16c0-8.28 6.72-15 15-15s15 6.72 15 15z" fill="#d8e1fd"/><path d="m496.045 0h-208c-8.28 0-15 6.72-15 15v57c0 45 22.09 87.15 59.08 112.76l51.38 35.57c5.121 3.547 11.919 3.574 17.08 0l51.38-35.57c36.99-25.61 59.08-67.76 59.08-112.76v-57c0-8.28-6.72-15-15-15zm-61.16 160.1-6.81 4.71c-21.641 15.007-50.399 15.02-72.06 0l-6.81-4.71c-24.75-17.13-40.95-43.74-45.11-73.1h175.9c-4.16 29.36-20.36 55.97-45.11 73.1zm46.16-103.1h-178v-27h178z" fill="#ffb454"/><path d="m511.045 15v57c0 45-22.09 87.15-59.08 112.76l-51.38 35.57c-2.57 1.78-5.55 2.67-8.54 2.67v-46.93c12.6 0 25.2-3.75 36.03-11.26l6.81-4.71c24.75-17.13 40.95-43.74 45.11-73.1h-87.95v-30h89v-27h-89v-30h104c8.28 0 15 6.72 15 15z" fill="#ff8659"/><path d="m424.045 204.09v27.91c0 17.68-14.32 32-32 32-17.67 0-32-14.33-32-32v-27.91z" fill="#0a617d"/><path d="m424.045 204.09v27.91c0 17.68-14.32 32-32 32v-59.91z" fill="#08475e"/><path d="m239.045 497.09v-57c0-45-22.09-87.15-59.08-112.76l-51.38-35.57c-5.121-3.547-11.919-3.574-17.08 0l-51.38 35.57c-36.99 25.61-59.08 67.76-59.08 112.76v57c0 8.28 6.72 15 15 15h208c8.28 0 15-6.72 15-15zm-31.05-72h-175.9c4.16-29.36 20.36-55.97 45.11-73.1l6.81-4.71c21.641-15.007 50.399-15.02 72.06 0l6.81 4.71c24.75 17.13 40.95 43.74 45.11 73.1zm1.05 57h-178v-27h178z" fill="#ffdd54"/><path d="m239.045 497.09v-57c0-45-22.09-87.15-59.08-112.76l-51.38-35.57c-2.57-1.78-5.55-2.67-8.54-2.67v46.93c12.6 0 25.2 3.75 36.03 11.26l6.81 4.71c24.75 17.13 40.95 43.74 45.11 73.1h-87.95v30h89v27h-89v30h104c8.28 0 15-6.72 15-15z" fill="#ffb454"/><path d="m152.045 308v-27.91c0-17.68-14.32-32-32-32-17.67 0-32 14.33-32 32v27.91z" fill="#0a789b"/><path d="m152.045 308v-27.91c0-17.68-14.32-32-32-32v59.91z" fill="#0a617d"/></g></svg>