<svg id="Capa_1" enable-background="new 0 0 512 512" height="512" viewBox="0 0 512 512" width="512" xmlns="http://www.w3.org/2000/svg"><g><path d="m208.001 512h-80c-8.284 0-15-6.716-15-15v-65c0-8.284 6.716-15 15-15h80c8.284 0 15 6.716 15 15v65c0 8.284-6.716 15-15 15z" fill="#0a617d"/><path d="m384.001 512h-80c-8.284 0-15-6.716-15-15v-65c0-8.284 6.716-15 15-15h80c8.284 0 15 6.716 15 15v65c0 8.284-6.716 15-15 15z" fill="#08475e"/><path d="m416.001 65h-320c-8.79 0-15.73 7.52-14.94 16.36 1.94 21.3 30.59 336.45 31.94 351.32h110l33-130.83 33 130.83h110c1.35-14.88 30.01-330.04 31.94-351.32.78-8.79-6.1-16.36-14.94-16.36z" fill="#0a789b"/><path d="m430.941 81.36c-1.93 21.28-30.59 336.44-31.94 351.32h-110l-33-130.83v-236.85h160c8.84 0 15.72 7.57 14.94 16.36z" fill="#0a617d"/><path d="m416.001 0h-320c-8.28 0-15 6.72-15 15v65h350v-65c0-8.28-6.72-15-15-15z" fill="#0a617d"/><path d="m431.001 15v65h-175v-80h160c8.28 0 15 6.72 15 15z" fill="#08475e"/><path d="m216.001 191c-8.284 0-15-6.716-15-15 0-72.346 7.872-98.051 8.77-100.743 30.672 10.223 28.436 9.562 28.505 9.35-.073.232-7.275 24.058-7.275 91.394 0 8.283-6.716 14.999-15 14.999z" fill="#0a617d"/><path d="m141.731 125.87c-13.47-32.93-31.84-53.45-52.6-59.2-5.412 2.757-8.622 8.593-8.07 14.69l31.94 351.32 6-7.66c49.36-56.997 59.75-208.669 22.73-299.15z" fill="#0a617d"/><g fill="#08475e"><path d="m393.001 425.02 6 7.66 31.94-351.32c.552-6.097-2.659-11.933-8.07-14.69-20.76 5.75-39.13 26.27-52.6 59.2-36.958 90.329-26.766 241.997 22.73 299.15z"/><path d="m296.001 191c-8.284 0-15-6.716-15-15 0-67.336-7.202-91.161-7.275-91.394.07.212-2.166.874 28.506-9.35.897 2.692 8.77 28.397 8.77 100.743-.001 8.285-6.717 15.001-15.001 15.001z"/><path d="m429.701 95h-347.4c-1.64-18.01-1.3-10.27-1.3-30h350c0 19.77.33 12.03-1.3 30z"/></g><path d="m429.701 95h-173.7v-30h175c0 19.77.33 12.03-1.3 30z" fill="#05303d"/></g></svg>