<svg id="Capa_1" enable-background="new 0 0 512 512" height="512" viewBox="0 0 512 512" width="512" xmlns="http://www.w3.org/2000/svg"><g><path d="m438.95 442.28-11.65-143.06c-.712-8.808-8.869-15.097-17.57-13.55-2.303.415-345.092 60.895-356.41 62.9-7.17 1.26-12.4 7.5-12.39 14.78l.07 80.16c.01 8.28 6.72 14.99 15 14.99h368c8.764 0 15.661-7.477 14.95-16.22z" fill="#e9edfd"/><path d="m424 458.5h-168v-145.7c79.42-14.01 152.23-26.86 153.73-27.13 8.7-1.547 16.858 4.741 17.57 13.55l11.65 143.06c.711 8.737-6.18 16.22-14.95 16.22z" fill="#d8e1fd"/><path d="m439 443.5c0 8.28-6.72 15-15 15h-368c-8.28 0-15-6.72-15-15s6.72-15 15-15h368c8.28 0 15 6.72 15 15z" fill="#d8e1fd"/><path d="m439 443.5c0 8.28-6.72 15-15 15h-168v-30h168c8.28 0 15 6.72 15 15z" fill="#c2d1f1"/><path d="m414.97 315.21c-.133.023-344.661 60.837-356.43 62.9-8.08 1.454-15.936-3.959-17.38-12.16-1.44-8.16 4.01-15.94 12.16-17.38 14.901-2.64 352.799-62.25 356.41-62.9 8.16-1.45 15.94 3.99 17.39 12.15s-3.99 15.94-12.15 17.39z" fill="#0a617d"/><path d="m414.97 315.21c-1.53.27-77.54 13.69-158.97 28.06v-30.47c79.42-14.01 152.23-26.86 153.73-27.13 8.16-1.45 15.94 3.99 17.39 12.15s-3.99 15.94-12.15 17.39z" fill="#08475e"/><path d="m424 491.5c-8.284 0-15-6.716-15-15v-33c0-8.284 6.716-15 15-15s15 6.716 15 15v33c0 8.284-6.716 15-15 15z" fill="#08475e"/><path d="m56 491.5c-8.284 0-15-6.716-15-15v-33c0-8.284 6.716-15 15-15s15 6.716 15 15v33c0 8.284-6.716 15-15 15z" fill="#0a617d"/><path d="m497 371.5c0 39.764-33.236 72-73 72s-72-32.236-72-72 32.236-72 72-72 73 32.235 73 72z" fill="#08475e"/><path d="m424 458.5c-47.972 0-87-39.028-87-87s39.028-87 87-87c48.175 0 88 38.989 88 87 0 47.996-39.815 87-88 87zm0-144c-31.43 0-57 25.57-57 57s25.57 57 57 57c31.981 0 58-25.57 58-57s-26.019-57-58-57z" fill="#0a617d"/><path d="m96 403.5c0 22.091-17.909 40-40 40s-41-17.909-41-40 18.909-40 41-40 40 17.909 40 40z" fill="#0a617d"/><path d="m56 458.5c-30.459 0-56-24.645-56-55 0-30.336 25.524-55 56-55 30.327 0 55 24.673 55 55s-24.673 55-55 55zm0-80c-14.093 0-26 11.449-26 25s11.907 25 26 25c13.785 0 25-11.215 25-25s-11.215-25-25-25z" fill="#0a789b"/><path d="m424 386.5c-8.251 0-15-6.749-15-15 0-8.689 7.467-15.764 16.47-14.93 8.366.85 14.29 8.319 13.46 16.41-.815 7.847-7.378 13.52-14.93 13.52z" fill="#d8e1fd"/><path d="m303 387.5c0 8.28-6.72 15-15 15h-64c-8.28 0-15-6.72-15-15s6.72-15 15-15h64c8.28 0 15 6.72 15 15z" fill="#7affe4"/><path d="m288 402.5h-32v-30h32c8.28 0 15 6.72 15 15s-6.72 15-15 15z" fill="#00c6cb"/><path d="m392 319.03c-8.284 0-15-6.716-15-15v-189c0-8.284 6.716-15 15-15s15 6.716 15 15v189c0 8.284-6.716 15-15 15z" fill="#0a617d"/><path d="m456 321.89c-8.284 0-15-6.716-15-15v-230.95c0-8.284 6.716-15 15-15s15 6.716 15 15v230.95c0 8.284-6.716 15-15 15z" fill="#0a617d"/><path d="m287.987 154.503c-6.803 0-12.963-4.659-14.588-11.568-1.897-8.064 3.102-16.139 11.166-18.037l131.9-31.036 70.002-69.043c5.898-5.817 15.395-5.751 21.213.146 5.817 5.898 5.751 15.396-.146 21.213l-73 72c-1.961 1.934-4.417 3.291-7.098 3.921-147.515 34.711-136.825 32.404-139.449 32.404z" fill="#d8e1fd"/></g></svg>