<svg id="Capa_1" enable-background="new 0 0 512 512" height="512" viewBox="0 0 512 512" width="512" xmlns="http://www.w3.org/2000/svg"><g><path d="m304 456h-96l25.81-110.72h44.38z" fill="#0a617d"/><path d="m304 456h-48v-110.72h22.19z" fill="#08475e"/><path d="m497 327h-201c-8.284 0-15-6.716-15-15s6.716-15 15-15h201c8.284 0 15 6.716 15 15s-6.716 15-15 15z" fill="#d8e1fd"/><path d="m216 327h-201c-8.284 0-15-6.716-15-15s6.716-15 15-15h201c8.284 0 15 6.716 15 15s-6.716 15-15 15z" fill="#e9edfd"/><path d="m331 456c0 8.28-6.72 15-15 15h-120c-8.28 0-15-6.72-15-15s6.72-15 15-15h120c8.28 0 15 6.72 15 15z" fill="#0a789b"/><path d="m331 456c0 8.28-6.72 15-15 15h-60v-30h60c8.28 0 15 6.72 15 15z" fill="#0a617d"/><circle cx="256" cy="312" fill="#d8e1fd" r="40"/><path d="m256 352v-80c22.09 0 40 17.91 40 40s-17.91 40-40 40z" fill="#c2d1f1"/><path d="m256 257c-30.33 0-55 24.67-55 55s24.67 55 55 55 55-24.67 55-55-24.67-55-55-55zm0 80c-13.79 0-25-11.21-25-25s11.21-25 25-25 25 11.21 25 25-11.21 25-25 25z" fill="#0a789b"/><path d="m311 312c0 30.33-24.67 55-55 55v-30c13.79 0 25-11.21 25-25s-11.21-25-25-25v-30c30.33 0 55 24.67 55 55z" fill="#0a617d"/><path d="m166.59 236.75c-9.814 16.348-27.444 26.25-46.39 26.25-14.579 0-23.763-5.73-24.22-5.73-25.011 12.553-55.929 3.935-70.61-20.52-16.59-27.64-16.59-61.98 0-89.62 14.63-24.389 45.521-33.338 70.63-20.82 25.001-12.477 55.879-3.674 70.59 20.82 16.59 27.64 16.59 61.98 0 89.62z" fill="#f17ab4"/><path d="m166.59 236.75c-14.679 24.453-45.557 33.062-70.59 20.53v-130.97c25.001-12.477 55.879-3.674 70.59 20.82 16.59 27.64 16.59 61.98 0 89.62z" fill="#ff3d7d"/><path d="m153 54.309h-12c-24.853 0-45 20.147-45 45v27h27c24.853 0 45-20.147 45-45v-12c0-8.285-6.716-15-15-15z" fill="#00c6cb"/><path d="m416 41h-24c-43.4 0-78.74 35.18-79 78.52-.23 8.667 6.682 15.48 15 15.48h152c8.28 0 15-6.72 15-15 0-43.56-35.44-79-79-79z" fill="#f2d1a3"/><path d="m480 135c-31.35 0-56.24-.01-76-.02v-93.98h12c43.56 0 79 35.44 79 79 0 8.28-6.72 15-15 15z" fill="#edbc85"/><path d="m480 169h-152c-8.28 0-15 6.72-15 15v34c0 24.81 20.19 45 45 45h92c24.81 0 45-20.19 45-45v-34c0-8.28-6.72-15-15-15z" fill="#edbc85"/><path d="m495 184v34c0 24.81-20.19 45-45 45h-46v-94h76c8.28 0 15 6.72 15 15z" fill="#e9a86c"/><path d="m512 135v34c0 8.28-6.72 15-15 15h-186c-8.28 0-15-6.72-15-15v-34c0-8.28 6.72-15 15-15h186c8.28 0 15 6.72 15 15z" fill="#7b5d3d"/><path d="m512 135v34c0 8.28-6.72 15-15 15h-93v-64h93c8.28 0 15 6.72 15 15z" fill="#5e482f"/></g></svg>