<svg id="Capa_1" enable-background="new 0 0 512 512" height="512" viewBox="0 0 512 512" width="512" xmlns="http://www.w3.org/2000/svg"><g><path d="m496.99 231.3c-.67-26.13-32.42-39.05-51.14-20.44l-85.37 84.89c-15.51 15.42-41.95 9.66-49.31-10.94-21.02-58.77-77.17-100.81-143.17-100.81-84.232 0-153 70.593-153 154.48v-80.74c0-83.31 66.33-152.21 149.62-153.71 65.215-1.155 123.756 31.702 157.6 83.56 10.34 15.85 32.75 17.99 46.16 4.63l21.65-21.58c39.38-39.26 106.5-19.18 106.96 60.66z" fill="#0a789b"/><path d="m496.99 231.3c-.67-26.13-32.42-39.05-51.14-20.44l-85.37 84.89c-15.51 15.42-41.95 9.66-49.31-10.94-21.02-58.77-77.17-100.81-143.17-100.81v-80c63.21.01 120.61 32.09 154.22 83.59 10.34 15.85 32.75 17.99 46.16 4.63l21.65-21.58c39.38-39.26 106.5-19.18 106.96 60.66z" fill="#0a617d"/><path d="m379.44 160.02-21.65 21.58c-6.66 6.64-17.86 5.7-23.01-2.2-36.737-56.31-100.095-91.524-170.43-90.37-90.7 1.64-164.35 76.36-164.35 168.71v150.26c0 8.28 6.72 15 15 15h482c8.28 0 15-6.72 15-15v-192.95c0-69.15-83.51-103.93-132.56-55.03zm-211.44 191.98c-17.67 0-32-14.33-32-32s14.33-32 32-32 32 14.33 32 32-14.33 32-32 32zm277.85-141.13-85.37 84.88c-15.51 15.42-41.95 9.66-49.31-10.94-20.782-58.094-76.25-100.81-143.86-100.81-60.28.27-112.66 36.75-137.31 88.41v-14.67c0-74.945 60.574-138.74 138-138.74 57.4-.05 110.18 28.54 141.66 76.79 15.49 23.75 49.12 27.19 69.31 7.06l21.65-21.59c27.94-27.84 73.81-11.31 80.52 24.43-10.83-5.74-25.02-5.04-35.29 5.18z" fill="#f2d1a3"/><path d="m512 215.05v192.95c0 8.28-6.72 15-15 15h-329v-86c9.37 0 17-7.63 17-17s-7.63-17-17-17v-119c66 0 122.15 42.05 143.17 100.81 7.36 20.6 33.8 26.36 49.31 10.94l85.37-84.88c10.27-10.22 24.46-10.92 35.29-5.18-6.71-35.74-52.58-52.27-80.52-24.43l-21.65 21.59c-20.19 20.13-53.82 16.69-69.31-7.06-31.48-48.25-84.26-76.84-141.66-76.79v-30c68.34.01 130.48 34.76 166.78 90.4 5.15 7.9 16.35 8.84 23.01 2.2l21.65-21.58c49.05-48.9 132.56-14.12 132.56 55.03z" fill="#edbc85"/><path d="m182.93 241.48c-.82 7.9-7.43 13.52-14.93 13.52-8.24 0-15-6.73-15-15 0-8.949 7.821-15.81 16.48-14.93 8.55.9 14.26 8.48 13.45 16.41z" fill="#0a789b"/><path d="m168 255v-30.01c8.9 0 15.821 7.764 14.93 16.49-.82 7.9-7.43 13.52-14.93 13.52z" fill="#0a617d"/><path d="m80 367c-8.284 0-15-6.716-15-15v-64c0-8.284 6.716-15 15-15s15 6.716 15 15v64c0 8.284-6.716 15-15 15z" fill="#edbc85"/><path d="m168 273c-25.92 0-47 21.08-47 47s21.08 47 47 47 47-21.08 47-47-21.08-47-47-47zm0 64c-9.37 0-17-7.63-17-17s7.63-17 17-17 17 7.63 17 17-7.63 17-17 17z" fill="#edbc85"/><path d="m215 320c0 25.92-21.08 47-47 47v-30c9.37 0 17-7.63 17-17s-7.63-17-17-17v-30c25.92 0 47 21.08 47 47z" fill="#e9a86c"/><path d="m512 393v15c0 8.28-6.72 15-15 15h-482c-8.28 0-15-6.72-15-15v-15z" fill="#edbc85"/><path d="m512 393v15c0 8.28-6.72 15-15 15h-329v-30z" fill="#e9a86c"/></g></svg>