<svg id="Capa_1" enable-background="new 0 0 512 512" height="512" viewBox="0 0 512 512" width="512" xmlns="http://www.w3.org/2000/svg"><g><path d="m402.35 263.74c-92.394-80.626-235.936-72.364-317.76 25.59-34.455 41.691-51.59 91.031-51.59 142.67 0 8.28 6.72 15 15 15h416c8.28 0 15-6.72 15-15 0-62.604-25.627-123.427-76.65-168.26z" fill="#7affe4"/><path d="m479 432c0 8.28-6.72 15-15 15h-208v-238c123.107 0 223 99.629 223 223z" fill="#00c6cb"/><path d="m468.17 363.02c-59.44 13.36-135.79 20.05-212.17 20.05-76.3 0-152.62-6.67-212.18-20.051 3.15-9.72 6.95-19.149 11.37-28.229 56.24 12.13 128.52 18.2 200.81 18.2s144.57-6.07 200.82-18.21c4.43 9.14 8.22 18.57 11.35 28.24z" fill="#00c6cb"/><path d="m468.17 363.02c-59.44 13.36-135.79 20.05-212.17 20.05v-30.08c72.29 0 144.57-6.07 200.82-18.21 4.43 9.14 8.22 18.57 11.35 28.24z" fill="#0d8ebc"/><path d="m428.57 290.71c-4.46 1.28-74.71 12.35-172.57 12.35-59.87 0-119.75-3.989-170.85-11.979-.58-.09-1.15-.21-1.7-.37 7.81-9.45 16.03-18.08 25.63-26.52 45.17 5.939 96.05 8.909 146.92 8.909 50.86 0 101.71-2.97 146.87-8.899 9.38 8.209 17.96 17.079 25.7 26.509z" fill="#00c6cb"/><path d="m428.57 290.71c-4.46 1.28-74.71 12.35-172.57 12.35v-29.96c50.86 0 101.71-2.97 146.87-8.899 9.38 8.209 17.96 17.079 25.7 26.509z" fill="#0d8ebc"/><path d="m497 433h-482c-8.28 0-15 6.72-15 15v49c0 8.28 6.72 15 15 15h482c8.28 0 15-6.72 15-15v-49c0-8.28-6.72-15-15-15z" fill="#0a789b"/><path d="m512 448v49c0 8.28-6.72 15-15 15h-241v-79h241c8.28 0 15 6.72 15 15z" fill="#0a617d"/><path d="m446.73 109.65c-.639-.799-.616-.782-1.27-1.61-10.32-12.89-27.25-18.3-43.17-13.76-17.15 4.91-36.26 3.51-56.81-4.181-37.96-14.199-63.11-36.339-77.53-52.409-6.706-7.47-11.037-16.574-12.84-25.66-1.41-7-7.56-12.03-14.7-12.03h-113.41c-8.28 0-15 6.72-15 15v29.04c0 9.91-3.05 19.41-8.81 27.49l-3.17 4.45c-18.73 26.189-19.15 61.689-1.05 88.34.7 1.02 1.52 1.96 2.44 2.779 18.97 16.87 42.99 25.9 67.85 25.9 12.067 0 12.201-.552 86.74-13.72 15.277-2.691 19.08-3.841 36.36.77 5.137 1.381 3.196.879 24.56 5.84 39.01 9.08 79.15 4.21 116.09-14.1 23.357-11.656 29.916-41.874 13.72-62.139z" fill="#f2d1a3"/><path d="m433.01 171.79c-36.94 18.31-77.08 23.18-116.09 14.1-21.183-4.919-19.617-4.511-24.56-5.84-17.298-4.615-21.265-3.428-36.36-.77v-163.52c2.25 8.15 6.33 15.67 11.95 21.931 14.42 16.069 39.57 38.209 77.53 52.409 20.55 7.69 39.66 9.091 56.81 4.181 15.92-4.54 32.85.87 43.17 13.76.3.38.62.79.95 1.21 17.177 21.486 9.188 51.266-13.4 62.539z" fill="#edbc85"/></g></svg>