<svg id="Capa_1" enable-background="new 0 0 512 512" height="512" viewBox="0 0 512 512" width="512" xmlns="http://www.w3.org/2000/svg"><g><path d="m397.53 409.2-141.53 23.59-141.53-23.59c-9.121-1.509-17.47 5.5-17.47 14.8 0 56.67 7.98 76.51 9.58 79.71 2.54 5.08 7.74 8.29 13.42 8.29h272c5.68 0 10.88-3.21 13.42-8.29 1.6-3.2 9.58-23.04 9.58-79.71 0-9.285-8.332-16.312-17.47-14.8z" fill="#f2d1a3"/><path d="m256 432.79v79.21h136c5.68 0 10.88-3.21 13.42-8.29 1.6-3.2 9.58-23.04 9.58-79.71 0-9.285-8.332-16.312-17.47-14.8z" fill="#edbc85"/><path d="m414.33 62.75c1.087-8.906-5.861-16.82-14.89-16.82h-286.88c-9.043 0-15.976 7.929-14.89 16.82 3.01 24.61 12.38 85 34.33 114.25 14.24 18.99 6.04 75.74-2.47 107.05-1.47 5.391.17 11.141 4.26 14.94l112 104c5.762 5.342 14.648 5.351 20.42 0l112-104c4.08-3.79 5.73-9.55 4.26-14.931-8.51-31.319-16.71-88.069-2.47-107.059 21.95-29.25 31.32-89.64 34.33-114.25z" fill="#f2d1a3"/><path d="m380 177c-14.24 18.99-6.04 75.74 2.47 107.06 1.47 5.381-.18 11.141-4.26 14.931l-112 104c-2.88 2.67-6.54 4.01-10.21 4.01v-361.071h143.44c9.043 0 15.976 7.929 14.89 16.82-3.01 24.61-12.38 85-34.33 114.25z" fill="#edbc85"/><path d="m432 0h-352c-9.437 0-16.53 8.61-14.72 17.87l4.15 21.29c3.51 17.96 17.37 31.899 35.31 35.5l101.58 20.38c19.36 4.68 38.75-3.09 49.68-18.42 10.951 15.362 30.341 23.076 49.68 18.42l101.58-20.38c17.94-3.601 31.8-17.54 35.31-35.5l4.15-21.29c1.81-9.262-5.284-17.87-14.72-17.87z" fill="#edbc85"/><path d="m446.72 17.87-4.15 21.29c-3.51 17.96-17.37 31.899-35.31 35.5-112.583 22.588-106.351 21.73-112.87 21.73-15.33 0-29.6-7.439-38.39-19.77v-76.62h176c9.437 0 16.53 8.61 14.72 17.87z" fill="#e9a86c"/><path d="" style="fill:none;stroke:#000;stroke-width:30;stroke-linecap:round;stroke-linejoin:round;stroke-miterlimit:10"/><path d="m271 248c0 13.309-15.966 20.007-25.61 10.61-9.4-9.4-2.734-25.62 10.61-25.62 8.02-.01 15 6.54 15 15.01z" fill="#edbc85"/><path d="m271 248c0 8.98-7.29 14.97-15 15v-30.01c8.02-.01 15 6.54 15 15.01z" fill="#e9a86c"/><path d="m382.24 283.22s-17.53 10.07-94.24 12.33c-21.386.647-45.641.568-64-.03-76.67-2.39-94.04-13.09-94.04-13.09-1.35 3.37-32.96 83.35-32.96 141.57l151.55 22.87c4.967.744 9.883.889 14.95.38l151.44-15.22c.04-2.58.06-5.261.06-8.03 0-55.85-29.19-131.72-32.76-140.78z" fill="#7affe4"/><path d="m415 424c0 2.77-.02 5.45-.06 8.03-165.542 16.637-153.503 15.63-158.94 15.5v-151.53c11.1.01 22.09-.15 32-.45 76.71-2.26 94.24-12.33 94.24-12.33 3.57 9.06 32.76 84.93 32.76 140.78z" fill="#00c6cb"/><path d="m288 295.55v64.45c0 17.67-14.33 32-32 32s-32-14.33-32-32v-64.48c20.443.655 44.346.618 64 .03z" fill="#00c6cb"/><path d="m288 295.55v64.45c0 17.67-14.33 32-32 32v-96c11.67 0 22.31-.16 32-.45z" fill="#0d8ebc"/></g></svg>