<svg id="Capa_1" enable-background="new 0 0 511.21 511.21" height="512" viewBox="0 0 511.21 511.21" width="512" xmlns="http://www.w3.org/2000/svg"><g><path d="m511.075 386.655-11.38-148c-1.8-23.3-21.5-41.55-44.87-41.55h-398.44c-23.37 0-43.07 18.25-44.87 41.55l-11.38 148c-2.011 26.104 18.672 48.45 44.87 48.45h34.6s26.9-26.65 64 0h224c37.1-26.65 64 0 64 0h34.6c26.181 0 46.883-22.329 44.87-48.45z" fill="#0a789b"/><path d="m466.205 435.105h-34.6s-26.9-26.65-64 0h-112v-238h199.22c23.37 0 43.07 18.25 44.87 41.55l11.38 148c2.011 26.104-18.672 48.45-44.87 48.45z" fill="#0a617d"/><path d="m295.605 284.105v34c0 16.57-13.43 30-30 30h-20c-16.57 0-30-13.43-30-30v-34z" fill="#e9edfd"/><path d="m295.605 284.105v34c0 16.57-13.43 30-30 30h-10v-64z" fill="#d8e1fd"/><path d="m295.605 269.105h-80c-8.28 0-15 6.72-15 15v34c0 24.81 20.19 45 45 45h20c24.81 0 45-20.19 45-45v-34c0-8.28-6.72-15-15-15zm-15 49c0 8.27-6.73 15-15 15h-20c-8.27 0-15-6.73-15-15v-19h50z" fill="#0a617d"/><path d="m310.605 284.105v34c0 24.81-20.19 45-45 45h-10v-30h10c8.27 0 15-6.73 15-15v-19h-25v-30h40c8.28 0 15 6.72 15 15z" fill="#08475e"/><path d="m143.605 435.105h-64l12.722-263.084c1.828-35.639 31.236-63.916 67.278-63.916z" fill="#ffdd54"/><path d="m367.605 435.105h64l-12.722-263.084c-1.828-35.639-31.236-63.916-67.278-63.916z" fill="#ffb454"/><path d="m383.605 108.105c0 17.62-14.28 32-32 32h-192c-17.67 0-32-14.33-32-32 0-17.62 14.28-32 32-32h192c17.67 0 32 14.33 32 32z" fill="#0a789b"/><path d="m351.605 140.105h-96v-64h96c17.67 0 32 14.33 32 32 0 17.62-14.28 32-32 32z" fill="#0a617d"/></g></svg>