<svg id="Capa_1" enable-background="new 0 0 512 512" height="512" viewBox="0 0 512 512" width="512" xmlns="http://www.w3.org/2000/svg"><g><path d="m424 147h-264c-8.284 0-15-6.716-15-15s6.716-15 15-15h264c8.284 0 15 6.716 15 15s-6.716 15-15 15z" fill="#c2d1f1"/><path d="m497 77h-19.56c-18.21 0-35.17 8.16-46.55 22.37l-14.1 17.63v30l14.1 17.62c11.38 14.22 28.34 22.38 46.55 22.38h19.56c8.28 0 15-6.72 15-15v-80c0-8.28-6.72-15-15-15zm-15 80h-4.56c-9.04 0-17.47-4.05-23.12-11.12l-11.11-13.88 11.11-13.88c5.65-7.07 14.08-11.12 23.12-11.12h4.56z" fill="#0a617d"/><path d="m159.79 117c-43.491.115-78.79 35.542-78.79 79v4.62c0 8.28 6.71 15 14.99 15 .156 0 63.854.03 63.96.03 8.436 0 15.05-6.796 15.05-15 0-47.18.03-70.11.04-83.65z" fill="#e9edfd"/><path d="m175.04 117c-.01 13.54-.04 36.47-.04 83.65 0 8.28-6.71 15-15 15-3.014 0-28.728-.018-31.98-.02v-91.86c17.487-7.79 30.423-6.77 47.02-6.77z" fill="#d8e1fd"/><path d="m48 435c-8.284 0-15-6.716-15-15v-32c0-8.284 6.716-15 15-15s15 6.716 15 15v32c0 8.284-6.716 15-15 15z" fill="#0a617d"/><path d="m464 435c-8.284 0-15-6.716-15-15v-32c0-8.284 6.716-15 15-15s15 6.716 15 15v32c0 8.284-6.716 15-15 15z" fill="#0a617d"/><path d="m497 403h-482c-8.284 0-15-6.716-15-15v-80c0-70.028 57.42-127 128-127 68.658 0 127 55.207 127 128h242c8.284 0 15 6.716 15 15v64c0 8.284-6.716 15-15 15z" fill="#08475e"/><path d="m128 181c-71.015 0-128 57.408-128 127v80c0 8.28 6.72 15 15 15h240v-95c0-70.03-56.97-127-127-127z" fill="#0a789b"/><path d="m255 308v95h-127.5c0-239.287-.276-222 .5-222 70.03 0 127 56.97 127 127z" fill="#0a617d"/><circle cx="128" cy="292" fill="#e9edfd" r="32"/><path d="m160 292c0 17.66-14.32 31.99-31.98 32v-64c17.66.01 31.98 14.34 31.98 32z" fill="#c2d1f1"/><path d="m128.02 245c-25.968 0-47.02 21.1-47.02 47 0 25.865 21.017 47 47.02 47 25.91-.01 46.98-21.09 46.98-47s-21.07-46.99-46.98-47zm0 64c-9.459 0-17.02-7.69-17.02-17 0-9.312 7.564-17 17.02-17 9.36.01 16.98 7.64 16.98 17s-7.62 16.99-16.98 17z" fill="#0a617d"/><path d="m175 292c0 25.91-21.07 46.99-46.98 47v-30c9.36-.01 16.98-7.64 16.98-17s-7.62-16.99-16.98-17v-30c25.91.01 46.98 21.09 46.98 47z" fill="#08475e"/></g></svg>