<svg id="Capa_1" enable-background="new 0 0 512 512" height="512" viewBox="0 0 512 512" width="512" xmlns="http://www.w3.org/2000/svg"><g><path d="m334.437 335.46c-65.21 17.59-182.32 20.03-245.69 3.22-.37-1.12-.61-2.29-.7-3.48-.25-1.12-2.24-8.95-13.53-25.88-.35-.52-.66-1.06-.94-1.61-.69-1.39-16.53-33.78-17.53-96.45l-51.66-51.65c-5.85-5.86-5.85-15.36 0-21.22l40-40c5.86-5.85 15.36-5.85 21.22 0l22.39 22.4 261.77 44.21c3.202 50.266.725 123.451-15.33 170.46z" fill="#00c6cb"/><path d="m349.767 165h-198.91c-11.94 0-23.38-4.74-31.82-13.18l-31.04-31.03v-73.79c0-8.28 6.72-15 15-15h48v-17c0-8.28 6.72-15 15-15h34c8.28 0 15 6.72 15 15v17h48c8.28 0 15 6.72 15 15v17h41c6.02 0 11.45 3.6 13.8 9.13.63 1.47 12.99 29.27 16.97 91.87z" fill="#0a617d"/><path d="m334.437 335.46c-22.39 6.04-60.98 13.3-119.44 14.39v-207.61l134.77 22.76c3.202 50.266.725 123.451-15.33 170.46z" fill="#0d8ebc"/><path d="m349.767 165h-134.77v-133h48c8.28 0 15 6.72 15 15v17h41c6.02 0 11.45 3.6 13.8 9.13.63 1.47 12.99 29.27 16.97 91.87z" fill="#08475e"/><path d="m278.017 165h-127.02v-150c0-8.28 6.72-15 15-15h34c8.28 0 15 6.72 15 15v17h48c8.28 0 15 6.72 15 15 0 20.75.02 97.23.02 118z" fill="#0a789b"/><path d="m278.017 165h-63.02v-133h48c8.28 0 15 6.72 15 15 0 20.752.02 97.23.02 118z" fill="#0a617d"/><path d="m339.328 318.41s-2.84 12.19-7.72 26.03c-1.74 4.96-5.92 8.67-11.07 9.75-66.228 13.862-161.781 14.057-219.44 2.7-6.7-1.32-11.63-7.04-12.03-13.85-.09-1.5-.19-2.99-.32-4.36-.6-6.45-7.1-17.82-7.1-17.82 58.711 20.232 191.546 18.374 257.68-2.45z" fill="#0a789b"/><path d="m350.907 195c-.15-10.58-.55-20.68-1.14-30h-198.91c-11.632 0-22.782-4.51-31.153-12.546-11.647-11.579-36.838-36.8-54.097-54.064-5.82-5.82-15.34-5.88-21.22 0l-10.599 10.61c53.46 53.46 8.23 8.26 64.04 64.03 16.274 16.289 25.387 41.521 21.172 70.133-1.24 8.421 4.768 16.209 13.283 17.105 7.953.836 15.221-4.748 16.397-12.733 3.06-20.772.649-38.456-3.916-52.799 4.793.383-11.55.264 206.143.264z" fill="#0d8ebc"/><path d="m350.907 195h-135.91v-30h134.77c.59 9.32.99 19.42 1.14 30z" fill="#05303d"/><path d="m495.455 482.432c-65.21 17.59-182.32 20.03-245.69 3.22-.37-1.12-.61-2.29-.7-3.48-.25-1.12-2.24-8.95-13.53-25.88-.35-.52-.66-1.06-.94-1.61-.69-1.39-16.53-33.78-17.53-96.45l-51.66-51.65c-5.85-5.86-5.85-15.36 0-21.22l40-40c5.86-5.85 15.36-5.85 21.22 0l22.39 22.4 261.77 44.21c3.202 50.266.725 123.451-15.33 170.46z" fill="#7affe4"/><path d="m510.785 311.972h-198.91c-11.94 0-23.38-4.74-31.82-13.18l-31.04-31.03v-73.79c0-8.28 6.72-15 15-15h48v-17c0-8.28 6.72-15 15-15h34c8.28 0 15 6.72 15 15v17h48c8.28 0 15 6.72 15 15v17h41c6.02 0 11.45 3.6 13.8 9.13.63 1.47 12.99 29.27 16.97 91.87z" fill="#0a617d"/><path d="m495.455 482.432c-22.39 6.04-60.98 13.3-119.44 14.39v-207.61l134.77 22.76c3.202 50.266.725 123.451-15.33 170.46z" fill="#00c6cb"/><path d="m510.785 311.972h-134.77v-133h48c8.28 0 15 6.72 15 15v17h41c6.02 0 11.45 3.6 13.8 9.13.63 1.47 12.99 29.27 16.97 91.87z" fill="#08475e"/><path d="m439.035 311.972h-127.02v-150c0-8.28 6.72-15 15-15h34c8.28 0 15 6.72 15 15v17h48c8.28 0 15 6.72 15 15 0 20.75.02 97.23.02 118z" fill="#0a789b"/><path d="m439.035 311.972h-63.02v-133h48c8.28 0 15 6.72 15 15 0 20.752.02 97.23.02 118z" fill="#0a617d"/><path d="m500.345 465.382s-2.84 12.19-7.72 26.03c-1.74 4.96-5.92 8.67-11.07 9.75-66.228 13.862-161.781 14.057-219.44 2.7-6.7-1.32-11.63-7.04-12.03-13.85-.09-1.5-.19-2.99-.32-4.36-.6-6.45-7.1-17.82-7.1-17.82 58.712 20.232 191.547 18.374 257.68-2.45z" fill="#0a789b"/><path d="m500.345 465.382s-2.84 12.19-7.72 26.03c-1.74 4.96-5.92 8.67-11.07 9.75-24.03 5.03-58.66 9.81-105.54 10.67v-30c38.843-.747 87.407-4.824 124.33-16.45z" fill="#0a617d"/><path d="m510.785 311.972h-198.91c-11.94 0-23.38-4.74-31.82-13.18-37.65-37.63-25.24-25.23-53.43-53.43-5.82-5.82-15.34-5.88-21.22 0l-10.6 10.61c53.46 53.46 8.23 8.26 64.04 64.03 14.16 14.17 33 21.97 53.03 21.97h200.05c-.15-10.58-.55-20.68-1.14-30z" fill="#00c6cb"/><path d="m511.925 341.972h-135.91v-30h134.77c.59 9.32.99 19.42 1.14 30z" fill="#0d8ebc"/></g></svg>