<svg id="Capa_1" enable-background="new 0 0 512 512" height="512" viewBox="0 0 512 512" width="512" xmlns="http://www.w3.org/2000/svg"><g><path d="m279.5 72h-192c-8.28 0-15 6.72-15 15v57c0 8.28 6.72 15 15 15h192c8.28 0 15-6.72 15-15v-57c0-8.28-6.72-15-15-15z" fill="#c2d1f1"/><path d="m294.5 87v57c0 8.28-6.72 15-15 15h-96v-87h96c8.28 0 15 6.72 15 15z" fill="#b1c2e2"/><path d="m143.5 72h80v87h-80z" fill="#d8e1fd"/><path d="m183.5 72h40v87h-40z" fill="#c2d1f1"/><path d="m281.5 0h-196c-24.81 0-45 20.19-45 45v27c0 8.28 6.72 15 15 15h256c8.28 0 15-6.72 15-15v-27c0-24.81-20.19-45-45-45z" fill="#ffdd54"/><path d="m326.5 45v27c0 8.28-6.72 15-15 15h-128v-87h98c24.81 0 45 20.19 45 45z" fill="#ffb454"/><path d="m321.5 129h-276c-24.81 0-45 20.19-45 45v293c0 24.81 20.19 45 45 45h240l81-127v-211c0-24.81-20.19-45-45-45z" fill="#e9edfd"/><path d="m366.5 174v211l-81 127h-102v-383h138c24.81 0 45 20.19 45 45z" fill="#d8e1fd"/><path d="m.5 216v208h341.13l24.87-39v-169z" fill="#0a789b"/><path d="m366.5 216v169l-24.87 39h-158.13v-208z" fill="#0a617d"/><path d="m351.19 409-19.13 30h-331.56v-30z" fill="#0a617d"/><path d="m351.19 409-19.13 30h-148.56v-30z" fill="#08475e"/><path d="m.5 201h366v30h-366z" fill="#0a617d"/><path d="m183.5 201h183v30h-183z" fill="#08475e"/><path d="m95.486 375.002c-11.532 0-18.878-12.671-12.848-22.72l10.369-17.282h-13.507c-11.647 0-18.852-12.734-12.862-22.717l24-40c4.263-7.104 13.477-9.406 20.58-5.145 7.104 4.262 9.407 13.476 5.145 20.58l-10.37 17.282h13.507c11.647 0 18.852 12.734 12.862 22.717l-24 40c-2.812 4.688-7.781 7.285-12.876 7.285z" fill="#ffdd54"/><path d="m287.5 303h-72c-8.284 0-15-6.716-15-15s6.716-15 15-15h72c8.284 0 15 6.716 15 15s-6.716 15-15 15z" fill="#08475e"/><path d="m351.5 400v67c0 16.57-13.43 30-30 30h-36c-16.57 0-30-13.43-30-30v-67l19.33-45.1c10.81-25.223 46.539-25.203 57.34 0z" fill="#f2d1a3"/><path d="m351.5 400v67c0 16.57-13.43 30-30 30h-18v-161.01c11.64 0 23.27 6.31 28.67 18.91z" fill="#edbc85"/><path d="m496.5 415h-145c-8.284 0-15-6.716-15-15s6.716-15 15-15h145c8.284 0 15 6.716 15 15s-6.716 15-15 15z" fill="#c2d1f1"/><path d="m255.5 385c-8.28 0-15 6.72-15 15v67c0 24.85 20.15 45 45 45h36c24.85 0 45-20.15 45-45v-82zm81 82c0 8.28-6.72 15-15 15h-36c-8.28 0-15-6.72-15-15v-52h66z" fill="#e9edfd"/><path d="m366.5 385v82c0 24.85-20.15 45-45 45h-18v-30h18c8.28 0 15-6.72 15-15v-52h-33v-30z" fill="#d8e1fd"/></g></svg>