<svg id="Capa_1" enable-background="new 0 0 512 512" height="512" viewBox="0 0 512 512" width="512" xmlns="http://www.w3.org/2000/svg"><g><path d="m135.68 295h-19.68c-28.121 0-51-22.879-51-51s22.879-51 51-51h13.92c7.82 0 14.328 6.009 14.952 13.804l5.76 72c.698 8.72-6.196 16.196-14.952 16.196z" fill="#edbc85"/><path d="m396 295h-19.68c-8.748 0-15.651-7.468-14.952-16.196l5.76-72c.624-7.795 7.132-13.804 14.952-13.804h13.92c28.121 0 51 22.879 51 51s-22.879 51-51 51z" fill="#e9a86c"/><path d="m344.02 462.31-88.02 32-88.02-32c.1-.049-.487 1.589 18.66-58.819 41.144 30.075 96.757 30.508 138.71-.04 19.076 60.194 18.57 58.81 18.67 58.859z" fill="#edbc85"/><path d="m344 462.3c.1.049 2.379-.848-88 32.01v-68.09c25.18-.029 49.45-8.279 69.35-22.77z" fill="#e9a86c"/><path d="m384 169h-256c-8.76 0-15.65 7.48-14.95 16.2l10.7 133.819c5.52 68.94 63.17 122.101 132.21 122.101 68.534 0 126.737-52.683 132.29-122.101l10.7-133.819c.7-8.73-6.2-16.2-14.95-16.2z" fill="#f2d1a3"/><path d="m256 441.12v-272.12h128c8.75 0 15.65 7.47 14.95 16.2l-10.7 133.819c-5.55 69.381-63.71 122.081-132.25 122.101z" fill="#edbc85"/><path d="m299.29 334.12c-4.82-5.5-12.76-6.64-18.85-3.08-2.46 1.44-5.03 2.67-7.8 3.32-9.354 2.198-24.037 2.176-33.28 0-2.77-.65-5.35-1.88-7.8-3.32-6.08-3.56-14.03-2.42-18.85 3.08-5.45 6.24-4.82 15.71 1.41 21.17 16.443 14.378 67.463 14.265 83.76 0 6.23-5.46 6.86-14.93 1.41-21.17z" fill="#edbc85"/><path d="m297.88 355.29c-8.18 7.16-25.02 10.74-41.88 10.74v-30.03c5.99 0 11.96-.54 16.64-1.64 2.77-.65 5.34-1.88 7.8-3.32 6.09-3.56 14.03-2.42 18.85 3.08 5.45 6.24 4.82 15.71-1.41 21.17z" fill="#e9a86c"/><path d="m380.39 64.04c-16.76-29.22-51.94-64.04-124.39-64.04s-107.63 34.82-124.39 64.04c-17.93 31.25-18.59 62.43-18.61 63.74-.125 8.354 6.63 15.22 15 15.22h256c8.388 0 15.125-6.884 15-15.22-.02-1.31-.68-32.49-18.61-63.74z" fill="#766e6e"/><path d="m384 143h-128v-143c72.45 0 107.63 34.82 124.39 64.04 17.93 31.25 18.59 62.43 18.61 63.74.125 8.354-6.63 15.22-15 15.22z" fill="#5b5555"/><path d="m242.601 139.841c-11.954-9.298-27.41-25.208-33.153-48.206-2.008-8.037 2.881-16.181 10.918-18.188 8.033-2.009 16.181 2.881 18.188 10.918 3.669 14.69 14.242 25.398 22.466 31.794 6.539 5.086 7.718 14.511 2.632 21.05-5.099 6.554-14.525 7.708-21.051 2.632z" fill="#5b5555"/><path d="m398.99 127.89c0 65.45.274 53.365-.66 65.11h-284.66c-.969-12.187-.66 1.678-.66-65.11 0-4.284.957-11.646 1.71-16.069h282.56c.74 4.344 1.71 11.749 1.71 16.069z" fill="#f17ab4"/><path d="m398.99 127.89c0 65.45.274 53.365-.66 65.11h-142.33v-81.18h141.28c.74 4.345 1.71 11.75 1.71 16.07z" fill="#ff3d7d"/><path d="m475.75 482.47-135.21-31.09-60.69 26.29c-15.193 6.588-32.479 6.59-47.7-.01l-60.69-26.29-135.21 31.1c-7.51 1.94-12.34 9.311-11.04 17.04 1.23 7.3 7.84 12.49 15.24 12.49h431.1c7.4 0 14.01-5.19 15.24-12.49 1.3-7.73-3.53-15.1-11.04-17.04z" fill="#7affe4"/><path d="m486.79 499.51c-1.23 7.3-7.84 12.49-15.24 12.49h-215.55v-29.39c8.12 0 16.24-1.641 23.85-4.94l60.69-26.29 135.21 31.09c7.51 1.94 12.34 9.31 11.04 17.04z" fill="#00c6cb"/></g></svg>