<svg id="Capa_1" enable-background="new 0 0 512 512" height="512" viewBox="0 0 512 512" width="512" xmlns="http://www.w3.org/2000/svg"><g><path d="m437 41.06h-362c-41.36 0-75 33.64-75 75v116c0 8.28 6.72 15 15 15h56c7.87 0 14.4-6.08 14.96-13.93 1.593-22.268 5.458-76.349 7.01-98.07h326.06c1.554 21.742 5.418 75.821 7.01 98.07.56 7.85 7.09 13.93 14.96 13.93h56c8.28 0 15-6.72 15-15v-116c0-41.36-33.64-75-75-75z" fill="#e9edfd"/><path d="m512 116.06v116c0 8.28-6.72 15-15 15h-56c-7.87 0-14.4-6.08-14.96-13.93-1.593-22.268-5.458-76.349-7.01-98.07h-163.03v-94h181c41.36 0 75 33.64 75 75z" fill="#d8e1fd"/><path d="m127 232.06c0 8.28-6.72 15-15 15h-97c-8.28 0-15-6.72-15-15v-15h112c8.28 0 15 6.71 15 15z" fill="#0a789b"/><path d="m512 217.06v15c0 8.28-6.72 15-15 15h-96c-8.28 0-15-6.71-15-15 0-8.28 6.72-15 15-15z" fill="#0a617d"/><path d="m384 54.95v66.221c0 18.63-16.79 32.75-35.14 29.56-51.196-8.9-134.204-8.967-185.72 0-18.35 3.189-35.14-10.931-35.14-29.561v-66.22c0-18.63 16.79-32.75 35.14-29.56 51.196 8.901 134.204 8.967 185.72 0 18.35-3.19 35.14 10.93 35.14 29.56z" fill="#7affe4"/><path d="m384 54.95v66.221c0 18.63-16.79 32.75-35.14 29.56-25.71-4.47-59.29-6.7-92.86-6.7v-111.941c33.59 0 67.18-2.23 92.86-6.7 18.35-3.19 35.14 10.93 35.14 29.56z" fill="#00c6cb"/><path d="m437 281.061h-362c-41.36 0-75 33.64-75 75v116c0 8.28 6.72 15 15 15h56c7.87 0 14.4-6.08 14.96-13.93 1.593-22.268 5.458-76.349 7.01-98.07h326.06c1.554 21.742 5.418 75.821 7.01 98.07.56 7.85 7.09 13.93 14.96 13.93h56c8.28 0 15-6.72 15-15v-116c0-41.36-33.64-75-75-75z" fill="#e9edfd"/><path d="m512 356.061v116c0 8.28-6.72 15-15 15h-56c-7.87 0-14.4-6.08-14.96-13.93-1.593-22.268-5.458-76.349-7.01-98.07h-163.03v-94h181c41.36 0 75 33.64 75 75z" fill="#d8e1fd"/><path d="m127 472.061c0 8.28-6.72 15-15 15h-97c-8.28 0-15-6.72-15-15v-15h112c8.28 0 15 6.71 15 15z" fill="#0a789b"/><path d="m512 457.061v15c0 8.28-6.72 15-15 15h-96c-8.28 0-15-6.71-15-15 0-8.28 6.72-15 15-15z" fill="#0a617d"/><path d="m384 294.951v66.221c0 18.63-16.79 32.75-35.14 29.56-51.196-8.9-134.204-8.967-185.72 0-18.35 3.19-35.14-10.93-35.14-29.56v-66.221c0-18.63 16.79-32.75 35.14-29.56 51.196 8.901 134.204 8.967 185.72 0 18.35-3.19 35.14 10.93 35.14 29.56z" fill="#7affe4"/><path d="m384 294.951v66.221c0 18.63-16.79 32.75-35.14 29.56-25.71-4.47-59.29-6.7-92.86-6.7v-111.94c33.59 0 67.18-2.23 92.86-6.7 18.35-3.191 35.14 10.929 35.14 29.559z" fill="#00c6cb"/></g></svg>