<svg id="Capa_1" enable-background="new 0 0 512 512" height="512" viewBox="0 0 512 512" width="512" xmlns="http://www.w3.org/2000/svg"><g><path d="m366 97h-36c-24.81 0-45 20.19-45 45l.02 19c15.317.005 110.61.035 125.96.04l.02-19.04c0-24.81-20.19-45-45-45z" fill="#f17ab4"/><path d="m411 142-.02 19.04-62.98-.02v-64.02h18c24.81 0 45 20.19 45 45z" fill="#ff3d7d"/><path d="m428 344.09v152.91h-160v-152.91c0-57.54 10.86-114.57 32-168.09 95.294 0 96.01.11 96.01.01 21.13 53.52 31.99 110.54 31.99 168.08z" fill="#e9edfd"/><path d="m428 344.09v152.91h-80v-320.99c46.53.02 48.01.06 48.01 0 21.13 53.52 31.99 110.54 31.99 168.08z" fill="#d8e1fd"/><path d="m427.77 225c-8.65-33.15-16.81-51.07-16.81-51.96l.02-12c-57.026 0-43.461-.04-125.96-.04l.02 11.91c0 .87-8.59 20.57-16.81 52.09-10.12 38.78-15.23 78.64-15.23 119.09v152.91c0 8.28 6.72 15 15 15h160c8.28 0 15-6.72 15-15v-152.91c0-40.45-5.11-80.31-15.23-119.09zm-14.77 257h-130v-137.91c0-51.316 8.77-102.791 27.33-153.09 45.437 0 74.122.04 75.36.04 17.703 47.891 27.31 99.439 27.31 153.05z" fill="#d8e1fd"/><path d="m443 344.09v152.91c0 8.28-6.72 15-15 15h-80v-30h65v-137.91c0-53.603-9.612-105.173-27.31-153.05-5.082 0 2.409-.008-37.69-.03v-30c18.03.02 30.2.03 62.98.03l-.02 12c0 2 32.04 71.085 32.04 171.05z" fill="#c2d1f1"/><path d="m431.42 240h-166.84c-7.7 34.03-11.58 68.84-11.58 104.09v87.91h190v-87.91c0-35.25-3.88-70.06-11.58-104.09z" fill="#f17ab4"/><path d="m443 344.09v87.91h-95v-192h83.42c7.7 34.03 11.58 68.84 11.58 104.09z" fill="#ff3d7d"/><path d="m380 344c0 17.67-14.33 32-32 32s-32-14.33-32-32c0-10.63 11.57-25.83 20.8-36.27 5.94-6.7 16.448-6.714 22.4 0 9.23 10.44 20.8 25.64 20.8 36.27z" fill="#e9edfd"/><path d="m380 344c0 17.67-14.33 32-32 32v-73.3c4.12 0 8.23 1.68 11.2 5.03 9.23 10.44 20.8 25.64 20.8 36.27z" fill="#d8e1fd"/><path d="m228 159h-79.5c-43.836 0-79.5-35.664-79.5-79.5s35.664-79.5 79.5-79.5h79.5c8.284 0 15 6.716 15 15s-6.716 15-15 15h-79.5c-27.294 0-49.5 22.206-49.5 49.5s22.206 49.5 49.5 49.5h79.5c8.284 0 15 6.716 15 15s-6.716 15-15 15z" fill="#ffdd54"/><path d="m268 30v50h-80v-50c0-16.57 13.43-30 30-30h20c16.57 0 30 13.43 30 30z" fill="#ffb454"/><path d="m268 80h-40v-80h10c16.57 0 30 13.43 30 30z" fill="#ff8659"/><path d="m297.09 297.32c16.98 26.33 26.91 56.57 26.91 87.9v111.78h-192v-111.78c0-31.33 9.93-61.57 26.91-87.9 6.79-10.53 6.79-24.11 0-34.64-16.98-26.33-26.91-56.57-26.91-87.9 0-18.36 14.17-30.78 30-30.78h132c16.57 0 30 13.43 30 30 0 32.17-9.81 62.17-26.91 88.68-6.79 10.52-6.79 24.11 0 34.64z" fill="#7affe4"/><path d="m297.09 297.32c16.98 26.33 26.91 56.57 26.91 87.9v111.78h-96v-353h66c16.57 0 30 13.43 30 30 0 32.17-9.81 62.17-26.91 88.68-6.79 10.52-6.79 24.11 0 34.64z" fill="#00c6cb"/><path d="m309.69 289.19c-3.6-5.58-3.6-12.8 0-18.38 19.45-30.15 29.31-62.72 29.31-96.81 0-22.77-17.01-41.66-39-44.6v-33.4c0-16.57-13.43-30-30-30h-84c-16.57 0-30 13.43-30 30v33.39c-22.29 2.89-39 21.79-39 45.39 0 33.1 10.13 66.31 29.31 96.03 3.6 5.58 3.6 12.8 0 18.38-19.18 29.72-29.31 62.93-29.31 96.03v111.78c0 8.28 6.72 15 15 15h192c8.28 0 15-6.72 15-15v-111.78c0-34.39-10.883-67.477-29.31-96.03zm-.69 192.81h-162v-96.78c0-27.32 8.48-54.9 24.52-79.77 9.97-15.46 9.97-35.44 0-50.9-16.04-24.87-24.52-52.45-24.52-79.77 0-10.25 7.73-15.78 15-15.78h132c8.27 0 15 6.73 15 15 0 28.23-8.25 55.33-24.52 80.55-9.965 15.468-9.98 35.408 0 50.9 16.04 24.87 24.52 52.45 24.52 79.77z" fill="#00c6cb"/><path d="m339 385.22v111.78c0 8.28-6.72 15-15 15h-96v-30h81v-96.78c0-27.32-8.48-54.9-24.52-79.77-9.965-15.468-9.98-35.408 0-50.9 16.27-25.22 24.52-52.32 24.52-80.55 0-8.27-6.73-15-15-15h-66v-93h42c16.57 0 30 13.43 30 30v33.4c21.99 2.94 39 21.83 39 44.6 0 34.09-9.86 66.66-29.31 96.81-3.6 5.58-3.6 12.8 0 18.38 18.427 28.553 29.31 61.64 29.31 96.03z" fill="#0d8ebc"/><path d="m275 208c0 8.28-6.72 15-15 15h-64c-8.28 0-15-6.72-15-15s6.72-15 15-15h64c8.28 0 15 6.72 15 15z" fill="#0a789b"/><path d="m260 223h-32v-30h32c8.28 0 15 6.72 15 15s-6.72 15-15 15z" fill="#0a617d"/><path d="m260 337h-64c-8.28 0-15 6.72-15 15v80c0 8.28 6.72 15 15 15h64c8.28 0 15-6.72 15-15v-80c0-8.28-6.72-15-15-15z" fill="#e9edfd"/><path d="m275 352v80c0 8.28-6.72 15-15 15h-32v-110h32c8.28 0 15 6.72 15 15z" fill="#d8e1fd"/></g></svg>