<svg id="Capa_1" enable-background="new 0 0 512.02 512.02" height="512" viewBox="0 0 512.02 512.02" width="512" xmlns="http://www.w3.org/2000/svg"><g><path d="m384.017 417.02h-256c-8.27 0-15 6.71-15 15 0 4.69-1.02 1.4 33.54 71.62 2.53 5.13 7.75 8.38 13.46 8.38h192c5.71 0 10.93-3.25 13.46-8.38l27.87-56.62c4.16-8.43 5.41-10.21 5.65-14.23.36-9.01-6.72-15.77-14.98-15.77z" fill="#c2d1f1"/><path d="m398.997 432.79c-.24 4.021-1.49 5.801-5.65 14.23l-27.87 56.62c-2.53 5.13-7.75 8.38-13.46 8.38h-96.01v-95h128.01c8.26 0 15.34 6.76 14.98 15.77z" fill="#b1c2e2"/><path d="m309.367 35.45-6.4 77.801c-.65 7.84-7.21 13.77-14.93 13.77-8.78 0-15.69-7.48-14.97-16.23l5.88-71.51c-12.651-12.312-33.112-12.406-45.86 0l5.88 71.51c.68 8.261-5.46 15.5-13.72 16.181-8.27.689-15.5-5.46-16.18-13.72l-6.4-77.801c-.3-3.66.75-7.3 2.95-10.229 25.214-33.613 75.56-33.64 100.8 0 2.2 2.928 3.25 6.568 2.95 10.228z" fill="#ffdd54"/><path d="m278.947 39.28c-6.35-6.18-14.65-9.27-22.94-9.27v-30.01c18.89 0 37.79 8.4 50.41 25.22 2.2 2.93 3.25 6.569 2.95 10.229l-6.4 77.801c-.65 7.84-7.21 13.77-14.93 13.77-8.78 0-15.69-7.48-14.97-16.23z" fill="#ffb454"/><path d="m398.967 432.02h-285.84c-.24-10.73-.11-55.51-.11-254.91-.17-2.27.18-4.28.94-6.33.27-.819-.41.641 32.64-65.47 2.54-5.08 7.74-8.29 13.42-8.29h192c5.68 0 10.88 3.21 13.42 8.29 33.76 67.5 32.25 64.42 32.61 65.36.43.989.95 3.17.95 5.35 0 2.43.06 236.61-.03 256z" fill="#e9edfd"/><path d="m398.967 432.02h-142.96v-335h96.01c5.68 0 10.88 3.21 13.42 8.29 33.76 67.5 32.25 64.42 32.61 65.36.43.989.95 3.17.95 5.35 0 2.43.06 236.61-.03 256z" fill="#d8e1fd"/><path d="m399.017 191.02h-286c.879-25.27-2.869-11.182 5.73-30h274.55c6.86 13.74 5.72 8.64 5.72 30z" fill="#d8e1fd"/><path d="m399.017 191.02h-143.01v-30h137.29c6.86 13.74 5.72 8.64 5.72 30z" fill="#c2d1f1"/><path d="m393.347 447.02h-274.66c-6.9-14-5.67-9.03-5.67-30h286c0 21.56 1.04 16.38-5.67 30z" fill="#d8e1fd"/><path d="m399.017 417.02c0 21.56 1.04 16.38-5.67 30h-137.34v-30z" fill="#c2d1f1"/><path d="m399.067 191.02c-176.332 25.329-110.522 15.878-285.98 41.07.01 146.26-.07 184.93-.07 184.93 15.909-2.283 270.18-38.77 286.07-41.05z" fill="#ffdd54"/><path d="m399.087 375.97-143.08 20.53v-184.93l143.06-20.55z" fill="#ffb454"/><path d="m288.877 311.74-24 40c-4.226 7.058-13.437 9.418-20.58 5.141-7.1-4.261-9.4-13.471-5.14-20.58l10.37-17.28h-13.51c-11.613 0-18.865-12.698-12.86-22.72l24-40c4.243-7.065 13.459-9.408 20.58-5.141 7.1 4.261 9.4 13.471 5.14 20.58l-10.37 17.28h13.51c11.613 0 18.865 12.698 12.86 22.72z" fill="#ffb454"/><path d="m256.007 358.47v-108.89c12.968-3.63 23.827 10.549 16.87 22.16l-10.37 17.28h13.51c11.613 0 18.865 12.698 12.86 22.72l-24 40c-2.06 3.44-5.29 5.75-8.87 6.73z" fill="#ff8659"/></g></svg>