<svg id="Capa_1" enable-background="new 0 0 512 512" height="512" viewBox="0 0 512 512" width="512" xmlns="http://www.w3.org/2000/svg"><g><path d="m434.731 468.7-36.99-74.77c-27.49-54.97-24.33-121.49 8.25-173.6 16.36-26.19 25.01-56.35 25.01-87.23v-118.1c0-8.28-6.72-15-15-15h-64c0 92.14.19 93.1-.55 99.97-1.5 19.16-7.99 38.62-18.68 55.21-34.88-8.72-59.77-40.29-59.77-76.63 0-39.1 28.12-71.54 64.02-78.55h-162.04c35.93 7.02 64.02 39.48 64.02 78.55 0 36.33-24.87 67.89-59.73 76.62-10.43-16.15-17.16-35.38-18.72-55.2-.77-7.15-.55-9.63-.55-99.97h-64c-8.28 0-15 6.72-15 15v118.1c0 30.88 8.65 61.04 25.01 87.23 32.58 52.11 35.74 118.63 8.22 173.66l-36.96 74.71c-9.88 19.97 4.66 43.3 26.89 43.3h303.68c22.28 0 36.75-23.38 26.89-43.3z" fill="#f17ab4"/><path d="m407.841 512h-151.84v-512h81.02c-35.9 7.01-64.02 39.45-64.02 78.55 0 36.34 24.89 67.91 59.77 76.63 10.69-16.59 17.18-36.05 18.68-55.21.74-6.87.55-7.83.55-99.97h64c8.28 0 15 6.72 15 15v118.1c0 30.88-8.65 61.04-25.01 87.23-32.58 52.11-35.74 118.63-8.25 173.6l36.99 74.77c9.86 19.92-4.61 43.3-26.89 43.3z" fill="#ff3d7d"/><path d="m239.001 78.55c0 37.585-26.671 70.301-63.87 77.55-8.459 1.567-16.051-3.986-17.59-11.87-1.57-8.14 3.74-16.01 11.87-17.59 22.856-4.444 39.59-24.582 39.59-48.09 0-27.541-21.959-50-49-50-8.28 0-15-6.72-15-15 0-5.98 3.5-11.14 8.57-13.55h21.43c35.972 7.054 64 39.528 64 78.55z" fill="#ff3d7d"/><path d="m303.001 78.55c0 23.468 16.693 43.638 39.59 48.09 8.13 1.58 13.44 9.45 11.87 17.59-1.548 7.917-9.172 13.429-17.59 11.87-61.978-12.078-85.282-88.381-40.85-133.8 11.38-11.63 25.58-19.28 40.98-22.3h21.43c5.07 2.41 8.57 7.57 8.57 13.55 0 8.28-6.72 15-15 15-27.097 0-49 22.514-49 50z" fill="#cc006f"/><path d="m305.101 184.25c-30.669 21.45-68.752 20.598-98.2 0l-28.46 327.75h155.12z" fill="#ff3d7d"/><path d="m333.561 512h-77.56v-311.98c16.72.02 33.73-5.02 49.1-15.77z" fill="#cc006f"/><path d="m337.001 0v88c0 32.63-14.24 65.7-40.47 83.94-34.608 24.117-77.961 13.788-102.74-21.96-11.97-17.25-18.79-39.17-18.79-61.98v-88h-30v88c0 70.89 50 127 111 127 60.98 0 111-56.2 111-127v-88z" fill="#cc006f"/><path d="m367.001 0v88c0 70.8-50.02 127-111 127v-29.99c13.84.03 27.83-4.22 40.53-13.07 26.23-18.24 40.47-51.31 40.47-83.94v-88z" fill="#86335c"/></g></svg>