<svg id="Capa_1" enable-background="new 0 0 512.244 512.244" height="512" viewBox="0 0 512.244 512.244" width="512" xmlns="http://www.w3.org/2000/svg"><g><path d="m391.122 248.244c0 20.67-13.42 38.27-32 44.55v28.22c-5.62 4.101-35.46 23.23-103 23.23s-97.38-19.13-103-23.23v-28.22c-18.58-6.28-32-23.88-32-44.55s13.42-38.27 32-44.55v-34.681c5.62 4.101 35.46 23.23 103 23.23s97.38-19.13 103-23.23v34.681c18.58 6.281 32 23.88 32 44.55z" fill="#d8e1fd"/><path d="m391.122 248.244c0 20.67-13.42 38.27-32 44.55v28.22c-5.62 4.101-35.46 23.23-103 23.23v-152c67.54 0 97.38-19.13 103-23.23v34.681c18.58 6.28 32 23.879 32 44.549z" fill="#c2d1f1"/><path d="m359.122 51.694v-36.45c0-13.995-16.53-20.161-25.51-10.71-1.59 1.39-23.62 19.71-77.49 19.71s-75.9-18.32-77.49-19.71c-8.942-9.41-25.51-3.359-25.51 10.71v36.45c-18.58 6.28-32 23.88-32 44.55s13.42 38.27 32 44.55v28.22c5.62 4.101 35.46 23.23 103 23.23s97.38-19.13 103-23.23v-28.22c18.58-6.28 32-23.88 32-44.55s-13.42-38.269-32-44.55z" fill="#e9edfd"/><path d="m359.122 169.014c-5.62 4.101-35.46 23.23-103 23.23v-168c53.87 0 75.9-18.32 77.49-19.71 8.949-9.417 25.51-3.339 25.51 10.71v36.45c18.58 6.28 32 23.88 32 44.55s-13.42 38.27-32 44.55z" fill="#d8e1fd"/><path d="m359.122 355.694v-34.681c-5.62 4.101-35.46 23.23-103 23.23s-97.38-19.13-103-23.23v34.681c-18.58 6.28-32 23.88-32 44.55s13.42 38.27 32 44.55v28.45c0 3.98 1.58 7.79 4.39 10.61 2.91 2.899 30.37 28.39 98.61 28.39s95.7-25.49 98.61-28.39c2.81-2.82 4.39-6.63 4.39-10.61v-28.45c18.58-6.28 32-23.88 32-44.55s-13.42-38.269-32-44.55z" fill="#e9edfd"/><path d="m391.122 400.244c0 20.67-13.42 38.27-32 44.55v28.45c0 3.98-1.58 7.79-4.39 10.61-2.91 2.899-30.37 28.39-98.61 28.39v-168c67.54 0 97.38-19.13 103-23.23v34.681c18.58 6.28 32 23.879 32 44.549z" fill="#d8e1fd"/><path d="m391.122 400.244c0 20.67-13.42 38.27-32 44.55v-89.1c18.58 6.281 32 23.88 32 44.55z" fill="#c2d1f1"/><path d="m359.122 140.794v-89.1c18.58 6.28 32 23.88 32 44.55s-13.42 38.27-32 44.55z" fill="#c2d1f1"/><g fill="#d8e1fd"><path d="m391.122 248.244c0 20.67-13.42 38.27-32 44.55v-89.1c18.58 6.281 32 23.88 32 44.55z"/><path d="m153.122 51.694v89.1c-18.58-6.28-32-23.88-32-44.55s13.42-38.269 32-44.55z"/><path d="m153.122 355.694v89.1c-18.58-6.28-32-23.88-32-44.55s13.42-38.269 32-44.55z"/></g><path d="m153.122 203.694v89.1c-18.58-6.28-32-23.88-32-44.55s13.42-38.269 32-44.55z" fill="#e9edfd"/><path d="m287.122 424.244c0 8.28-6.72 15-15 15h-32c-8.28 0-15-6.72-15-15s6.72-15 15-15h32c8.28 0 15 6.72 15 15z" fill="#d8e1fd"/><path d="m287.122 424.244c0 8.28-6.72 15-15 15h-16v-30h16c8.28 0 15 6.72 15 15z" fill="#c2d1f1"/><path d="m287.122 120.244c0 8.28-6.72 15-15 15h-32c-8.28 0-15-6.72-15-15s6.72-15 15-15h32c8.28 0 15 6.72 15 15z" fill="#d8e1fd"/><path d="m272.122 135.244h-16v-30h16c8.28 0 15 6.72 15 15s-6.72 15-15 15z" fill="#c2d1f1"/><path d="m287.122 272.244c0 8.28-6.72 15-15 15h-32c-8.28 0-15-6.72-15-15s6.72-15 15-15h32c8.28 0 15 6.72 15 15z" fill="#e9edfd"/><path d="m287.122 272.244c0 8.28-6.72 15-15 15h-16v-30h16c8.28 0 15 6.72 15 15z" fill="#d8e1fd"/></g></svg>