<svg id="Capa_1" enable-background="new 0 0 512 512" height="512" viewBox="0 0 512 512" width="512" xmlns="http://www.w3.org/2000/svg"><g><path d="m424 287c-43.561 0-79-35.439-79-79 0-27.019-21.981-49-49-49h-8c-8.284 0-15-6.716-15-15s6.716-15 15-15h8c43.561 0 79 35.439 79 79 0 27.019 21.981 49 49 49 8.284 0 15 6.716 15 15s-6.716 15-15 15z" fill="#d8e1fd"/><path d="m497 217h-19.56c-18.21 0-35.17 8.16-46.55 22.37l-14.326 17.067-.055 30.213 14.38 17.97c11.38 14.22 28.34 22.38 46.55 22.38h19.561c8.28 0 15-6.72 15-15v-80c0-8.28-6.72-15-15-15zm-15 80h-4.56c-9.04 0-17.47-4.05-23.12-11.12l-11.11-13.88 11.11-13.88c5.65-7.07 14.08-11.12 23.12-11.12h4.56z" fill="#0a617d"/><g fill="#c2d1f1"><path d="m266 63h22c8.284 0 15-6.716 15-15s-6.716-15-15-15h-22c-8.284 0-15 6.716-15 15s6.716 15 15 15z"/><path d="m288 225h-22c-8.284 0-15 6.716-15 15s6.716 15 15 15h22c8.284 0 15-6.716 15-15s-6.716-15-15-15z"/><path d="m288 289h-22c-8.284 0-15 6.716-15 15s6.716 15 15 15h22c8.284 0 15-6.716 15-15s-6.716-15-15-15z"/><path d="m288 353h-22c-8.284 0-15 6.716-15 15s6.716 15 15 15h22c8.284 0 15-6.716 15-15s-6.716-15-15-15z"/></g><path d="m271 15v417c0 8.28-6.72 15-15 15s-15-6.72-15-15v-417c0-8.28 6.72-15 15-15s15 6.72 15 15z" fill="#e9edfd"/><path d="m271 15v417c0 8.28-6.72 15-15 15v-447c8.28 0 15 6.72 15 15z" fill="#d8e1fd"/><path d="m233.268 132.205c-6.513-5.117-15.943-3.987-21.062 2.527l-176 224c-7.775 9.896-.584 24.269 11.785 24.269 4.444 0 8.846-1.968 11.805-5.733l176-224c5.117-6.515 3.985-15.945-2.528-21.063z" fill="#d8e1fd"/><path d="m303 112v64c0 8.28-6.72 15-15 15h-32c-25.92 0-47-21.08-47-47s21.08-47 47-47h32c8.28 0 15 6.72 15 15z" fill="#0a789b"/><path d="m303 112v64c0 8.28-6.72 15-15 15h-32v-94h32c8.28 0 15 6.72 15 15z" fill="#0a617d"/><path d="m47.5 353c-26.191 0-47.5 21.309-47.5 47.5v31.5c0 8.284 6.716 15 15 15h65c8.284 0 15-6.716 15-15v-31.5c0-26.191-21.309-47.5-47.5-47.5z" fill="#0a617d"/><path d="m497 417h-497v80c0 8.28 6.72 15 15 15h482c8.28 0 15-6.72 15-15v-65c0-8.28-6.72-15-15-15z" fill="#0a789b"/><path d="m512 432v65c0 8.28-6.72 15-15 15h-241v-95h241c8.28 0 15 6.72 15 15z" fill="#0a617d"/></g></svg>