<svg id="Capa_1" enable-background="new 0 0 512 512" height="512" viewBox="0 0 512 512" width="512" xmlns="http://www.w3.org/2000/svg"><g><path d="m451.219 97.012c-34.989-6.719-67.219 20.938-67.219 56.566v6.419h-339c-16.57 0-30 13.43-30 30v196c0 16.57 13.43 30 30 30h394.59c31.71 0 57.41-25.7 57.41-57.41 0-8.563 0-195.409 0-206.09 0-27.58-19.75-50.486-45.781-55.485z" fill="#0a789b"/><path d="m451.219 97.012c-34.989-6.719-67.219 20.938-67.219 56.566v6.419h-128v256h183.59c31.71 0 57.41-25.7 57.41-57.41 0-8.563 0-195.409 0-206.09 0-27.58-19.75-50.486-45.781-55.485z" fill="#0a617d"/><path d="m454.05 82.287c-40.95-7.89-79.72 21.52-84.54 62.71h-324.51c-24.81 0-45 20.19-45 45v196c0 24.81 20.19 45 45 45h394.59c39.93 0 72.41-32.48 72.41-72.41v-206.09c0-34.24-24.37-63.77-57.95-70.21zm-424.05 107.71c0-8.27 6.73-15 15-15h324v34h-339zm0 49h339v34h-339zm0 64h339c0 31.95-.1 30.56.3 34h-339.3zm452 55.59c0 23.38-19.02 42.41-42.41 42.41h-394.59c-8.27 0-15-6.73-15-15v-19h357.07c28.27 20.2 67.93-.05 67.93-35v-4c0-8.28-6.72-15-15-15s-15 6.72-15 15v4c0 7.17-5.83 13-13 13s-13-5.83-13-13v-19.5c0-22.88 18.62-41.5 41.5-41.5s41.5 18.62 41.5 41.5zm0-104.28c-24.71-17.68-58.1-17.82-83 0v-21.81c0-22.88 18.62-41.5 41.5-41.5s41.5 18.62 41.5 41.5zm0-79.98c-24.84-17.78-58.14-17.79-83 0 0-21.39-.28-23.74.86-29.33 1.94-9.52 7.07-18.15 14.72-24.47 24.61-20.33 61.11-6.2 66.74 24.47.94 5.1.68 7.19.68 29.33z" fill="#0a617d"/><path d="m454.05 82.287c-40.95-7.89-79.72 21.52-84.54 62.71h-113.51v30h113v34h-113v30h113v34h-113v30h113c0 31.95-.1 30.56.3 34h-113.3v30h131.07c28.27 20.2 67.93-.05 67.93-35v-4c0-8.28-6.72-15-15-15s-15 6.72-15 15v4c0 7.17-5.83 13-13 13s-13-5.83-13-13v-19.5c0-22.88 18.62-41.5 41.5-41.5s41.5 18.62 41.5 41.5v46.09c0 23.38-19.02 42.41-42.41 42.41h-183.59v30h183.59c39.93 0 72.41-32.48 72.41-72.41v-206.09c0-34.24-24.37-63.77-57.95-70.21zm27.95 172.02c-24.71-17.68-58.1-17.82-83 0v-21.81c0-22.88 18.62-41.5 41.5-41.5s41.5 18.62 41.5 41.5zm0-79.98c-24.84-17.78-58.14-17.79-83 0 0-21.39-.28-23.74.86-29.33 1.94-9.52 7.07-18.15 14.72-24.47 24.61-20.33 61.11-6.2 66.74 24.47.94 5.1.68 7.19.68 29.33z" fill="#08475e"/></g></svg>